<?xml version="1.0" encoding="UTF-8" standalone="no"?>
<svg width="720px" height="720px" viewBox="0 0 720 720" version="1.1" xmlns="http://www.w3.org/2000/svg" xmlns:xlink="http://www.w3.org/1999/xlink">
    <!-- Generator: Sketch 3.8.3 (29802) - http://www.bohemiancoding.com/sketch -->
    <title>thegrid</title>
    <desc>Created with Sketch.</desc>
    <defs></defs>
    <g id="violet100" stroke="none" stroke-width="1" fill="none" fill-rule="evenodd">
        <g id="thegrid" fill="#000000">
            <g id="Layer_1">
                <polygon id="Shape" points="70.52 79.3 82.81 79.3 117.59 163.51 152.5 79.3 164.37 79.3 122.33 177.76 112.56 177.76"></polygon>
                <rect id="Rectangle-path" x="354.19" y="79.07" width="11.06" height="97.98"></rect>
                <path d="M599.84,168.51 C605.44,168.51 610.6,167.46 615.31,165.37 C620.03,163.27 624.06,160.4 627.42,156.76 C630.78,153.11 633.42,148.87 635.33,144.02 C637.24,139.17 638.21,133.94 638.21,128.33 L638.21,128.05 C638.21,122.45 637.25,117.2 635.33,112.3 C633.42,107.4 630.74,103.14 627.28,99.5 C623.83,95.85 619.75,92.96 615.03,90.81 C610.32,88.67 605.16,87.59 599.56,87.59 C593.95,87.59 588.79,88.65 584.08,90.75 C579.37,92.84 575.33,95.71 571.97,99.36 C568.61,103 565.98,107.24 564.06,112.09 C562.15,116.93 561.2,122.16 561.2,127.76 L561.2,128.04 C561.2,133.64 562.15,138.89 564.06,143.79 C565.97,148.69 568.66,152.96 572.11,156.6 C575.57,160.24 579.65,163.13 584.36,165.27 C589.08,167.44 594.24,168.51 599.84,168.51 L599.84,168.51 Z M599.56,178.75 C592.09,178.75 585.3,177.4 579.18,174.69 C573.06,171.98 567.81,168.32 563.43,163.71 C559.04,159.09 555.66,153.72 553.27,147.6 C550.89,141.49 549.71,135.07 549.71,128.35 L549.71,128.07 C549.71,121.35 550.92,114.91 553.35,108.76 C555.78,102.6 559.18,97.2 563.57,92.59 C567.95,87.97 573.23,84.28 579.38,81.53 C585.54,78.77 592.36,77.39 599.83,77.39 C607.3,77.39 614.09,78.75 620.21,81.45 C626.32,84.16 631.57,87.83 635.96,92.45 C640.34,97.07 643.73,102.43 646.1,108.54 C648.48,114.66 649.68,121.07 649.68,127.79 C649.77,127.88 649.77,127.98 649.68,128.07 C649.68,134.79 648.47,141.23 646.04,147.4 C643.61,153.56 640.2,158.95 635.82,163.57 C631.43,168.19 626.16,171.87 619.99,174.63 C613.84,177.37 607.03,178.75 599.56,178.75 L599.56,178.75 Z" id="Shape"></path>
                <polygon id="Shape" points="84.45 308.09 95.52 308.09 95.52 395.87 150.67 395.87 150.67 406.09 84.45 406.09"></polygon>
                <polygon id="Shape" points="324.41 308.09 395.25 308.09 395.25 318.16 335.47 318.16 335.47 351.63 388.95 351.63 388.95 361.71 335.47 361.71 335.47 396.01 395.95 396.01 395.95 406.09 324.41 406.09"></polygon>
                <polygon id="Shape" points="594.11 318.31 561.2 318.31 561.2 308.09 638.2 308.09 638.2 318.31 605.29 318.31 605.29 406.09 594.11 406.09"></polygon>
                <polygon id="Shape" points="100.26 553.48 81.78 559.21 79.12 550.26 103.06 542 111.18 542 111.18 640.7 100.26 640.7"></polygon>
                <path d="M357.6,632.29 C362.17,632.29 366.3,631.2 369.99,629.01 C373.68,626.81 376.8,623.87 379.37,620.18 C381.94,616.49 383.89,612.2 385.25,607.3 C386.6,602.41 387.28,597.3 387.28,591.97 L387.28,591.69 C387.28,586.37 386.58,581.26 385.17,576.36 C383.77,571.45 381.77,567.14 379.15,563.41 C376.54,559.68 373.4,556.7 369.71,554.46 C366.02,552.22 361.89,551.1 357.32,551.1 C352.75,551.1 348.62,552.2 344.93,554.4 C341.24,556.59 338.11,559.52 335.54,563.21 C332.98,566.9 330.99,571.17 329.59,576.02 C328.19,580.86 327.5,586 327.5,591.41 L327.5,591.69 C327.5,597.01 328.2,602.13 329.59,607.03 C331,611.93 333,616.24 335.62,619.97 C338.23,623.7 341.4,626.68 345.14,628.92 C348.87,631.18 353.03,632.29 357.6,632.29 L357.6,632.29 Z M357.32,642.39 C350.97,642.39 345.25,641.06 340.16,638.41 C335.07,635.75 330.74,632.11 327.14,627.49 C323.55,622.87 320.79,617.5 318.87,611.38 C316.96,605.27 316.01,598.8 316.01,591.99 L316.01,591.71 C316.01,584.8 316.99,578.3 318.95,572.18 C320.91,566.07 323.7,560.7 327.34,556.09 C330.98,551.47 335.37,547.8 340.5,545.09 C345.63,542.38 351.33,541.03 357.59,541.03 C363.93,541.03 369.62,542.37 374.67,545.03 C379.71,547.69 384.03,551.33 387.62,555.95 C391.21,560.57 393.96,565.91 395.87,571.98 C397.78,578.04 398.75,584.53 398.75,591.43 L398.75,591.71 C398.75,598.52 397.77,605.01 395.81,611.18 C393.85,617.34 391.08,622.73 387.48,627.35 C383.89,631.97 379.54,635.63 374.45,638.33 C369.38,641.03 363.66,642.39 357.32,642.39 L357.32,642.39 Z" id="Shape"></path>
                <path d="M599.93,632.29 C604.5,632.29 608.63,631.2 612.32,629.01 C616.01,626.81 619.13,623.87 621.7,620.18 C624.27,616.49 626.22,612.2 627.58,607.3 C628.93,602.41 629.61,597.3 629.61,591.97 L629.61,591.69 C629.61,586.37 628.91,581.26 627.5,576.36 C626.1,571.45 624.1,567.14 621.48,563.41 C618.87,559.68 615.73,556.7 612.04,554.46 C608.35,552.22 604.22,551.1 599.65,551.1 C595.08,551.1 590.95,552.2 587.26,554.4 C583.57,556.59 580.44,559.52 577.87,563.21 C575.31,566.9 573.32,571.17 571.92,576.02 C570.52,580.86 569.83,586 569.83,591.41 L569.83,591.69 C569.83,597.01 570.53,602.13 571.92,607.03 C573.33,611.93 575.33,616.24 577.95,619.97 C580.56,623.7 583.74,626.68 587.47,628.92 C591.2,631.18 595.36,632.29 599.93,632.29 L599.93,632.29 Z M599.65,642.39 C593.29,642.39 587.58,641.06 582.49,638.41 C577.4,635.75 573.07,632.11 569.47,627.49 C565.88,622.87 563.12,617.5 561.2,611.38 C559.29,605.27 558.34,598.8 558.34,591.99 L558.34,591.71 C558.34,584.8 559.32,578.3 561.28,572.18 C563.24,566.07 566.03,560.7 569.67,556.09 C573.31,551.47 577.7,547.8 582.83,545.09 C587.96,542.38 593.66,541.03 599.92,541.03 C606.26,541.03 611.96,542.37 617,545.03 C622.04,547.69 626.36,551.33 629.95,555.95 C633.54,560.57 636.29,565.91 638.2,571.98 C640.11,578.04 641.08,584.53 641.08,591.43 L641.08,591.71 C641.08,598.52 640.1,605.01 638.14,611.18 C636.18,617.34 633.41,622.73 629.81,627.35 C626.22,631.97 621.87,635.63 616.78,638.33 C611.7,641.03 605.99,642.39 599.65,642.39 L599.65,642.39 Z" id="Shape"></path>
                <path d="M708.94,11.06 L708.94,708.94 L11.06,708.94 L11.06,11.06 L708.94,11.06 L708.94,11.06 Z M720,0 L0,0 L0,720 L720,720 L720,0 L720,0 L720,0 Z" id="Shape"></path>
            </g>
        </g>
    </g>
</svg>