<?xml version="1.0" encoding="utf-8"?>
<!-- Generator: Adobe Illustrator 16.0.4, SVG Export Plug-In . SVG Version: 6.00 Build 0)  -->
<!DOCTYPE svg PUBLIC "-//W3C//DTD SVG 1.1//EN" "http://www.w3.org/Graphics/SVG/1.1/DTD/svg11.dtd" [
	<!ENTITY st0 "fill:#272525;">
]>
<svg version="1.1" id="Layer_1" xmlns="http://www.w3.org/2000/svg" xmlns:xlink="http://www.w3.org/1999/xlink" x="0px" y="0px"
	 width="720px" height="720px" viewBox="0 0 720 720" style="enable-background:new 0 0 720 720;" xml:space="preserve">
<polygon style="&st0;" points="70.52,79.3 82.81,79.3 117.59,163.51 152.5,79.3 164.37,79.3 122.33,177.76 112.56,177.76 "/>
<rect x="354.19" y="79.07" style="&st0;" width="11.06" height="97.98"/>
<path style="&st0;" d="M599.84,168.51c5.6,0,10.76-1.05,15.47-3.14c4.72-2.1,8.75-4.97,12.11-8.61c3.36-3.65,6-7.89,7.91-12.74
	c1.91-4.85,2.88-10.08,2.88-15.69v-0.28c0-5.6-0.96-10.85-2.88-15.75c-1.91-4.9-4.59-9.16-8.05-12.8
	c-3.45-3.65-7.53-6.54-12.25-8.69c-4.71-2.14-9.87-3.22-15.47-3.22c-5.61,0-10.77,1.06-15.48,3.16c-4.71,2.09-8.75,4.96-12.11,8.61
	c-3.36,3.64-5.99,7.88-7.91,12.73c-1.91,4.84-2.86,10.07-2.86,15.67v0.28c0,5.6,0.95,10.85,2.86,15.75c1.91,4.9,4.6,9.17,8.05,12.81
	c3.46,3.64,7.54,6.53,12.25,8.67C589.08,167.44,594.24,168.51,599.84,168.51z M599.56,178.75c-7.47,0-14.26-1.35-20.38-4.06
	c-6.12-2.71-11.37-6.37-15.75-10.98c-4.39-4.62-7.77-9.99-10.16-16.11c-2.38-6.11-3.56-12.53-3.56-19.25v-0.28
	c0-6.72,1.21-13.16,3.64-19.31c2.43-6.16,5.83-11.56,10.22-16.17c4.38-4.62,9.66-8.31,15.81-11.06c6.16-2.76,12.98-4.14,20.45-4.14
	s14.26,1.36,20.38,4.06c6.11,2.71,11.36,6.38,15.75,11c4.38,4.62,7.77,9.98,10.14,16.09c2.38,6.12,3.58,12.53,3.58,19.25
	c0.09,0.09,0.09,0.19,0,0.28c0,6.72-1.21,13.16-3.64,19.33c-2.43,6.16-5.84,11.55-10.22,16.17c-4.39,4.62-9.66,8.3-15.83,11.06
	C613.84,177.37,607.03,178.75,599.56,178.75z"/>
<polygon style="&st0;" points="84.45,308.09 95.52,308.09 95.52,395.87 150.67,395.87 150.67,406.09 84.45,406.09 "/>
<polygon style="&st0;" points="324.41,308.09 395.25,308.09 395.25,318.16 335.47,318.16 335.47,351.63 388.95,351.63 
	388.95,361.71 335.47,361.71 335.47,396.01 395.95,396.01 395.95,406.09 324.41,406.09 "/>
<polygon style="&st0;" points="594.11,318.31 561.2,318.31 561.2,308.09 638.2,308.09 638.2,318.31 605.29,318.31 605.29,406.09 
	594.11,406.09 "/>
<polygon style="&st0;" points="100.26,553.48 81.78,559.21 79.12,550.26 103.06,542 111.18,542 111.18,640.7 100.26,640.7 "/>
<path style="&st0;" d="M357.6,632.29c4.57,0,8.7-1.09,12.39-3.28c3.69-2.2,6.81-5.14,9.38-8.83s4.52-7.98,5.88-12.88
	c1.35-4.89,2.03-10,2.03-15.33v-0.28c0-5.32-0.7-10.43-2.11-15.33c-1.4-4.91-3.4-9.22-6.02-12.95c-2.61-3.73-5.75-6.71-9.44-8.95
	c-3.69-2.24-7.82-3.36-12.39-3.36c-4.57,0-8.7,1.1-12.39,3.3c-3.69,2.19-6.82,5.12-9.39,8.81c-2.56,3.69-4.55,7.96-5.95,12.81
	c-1.4,4.84-2.09,9.98-2.09,15.39v0.28c0,5.32,0.7,10.44,2.09,15.34c1.41,4.9,3.41,9.21,6.03,12.94c2.61,3.73,5.78,6.71,9.52,8.95
	C348.87,631.18,353.03,632.29,357.6,632.29z M357.32,642.39c-6.35,0-12.07-1.33-17.16-3.98c-5.09-2.66-9.42-6.3-13.02-10.92
	c-3.59-4.62-6.35-9.99-8.27-16.11c-1.91-6.11-2.86-12.58-2.86-19.39v-0.28c0-6.91,0.98-13.41,2.94-19.53
	c1.96-6.11,4.75-11.48,8.39-16.09c3.64-4.62,8.03-8.29,13.16-11c5.13-2.71,10.83-4.06,17.09-4.06c6.34,0,12.03,1.34,17.08,4
	c5.04,2.66,9.36,6.3,12.95,10.92c3.59,4.62,6.34,9.96,8.25,16.03c1.91,6.06,2.88,12.55,2.88,19.45v0.28c0,6.81-0.98,13.3-2.94,19.47
	c-1.96,6.16-4.73,11.55-8.33,16.17c-3.59,4.62-7.94,8.28-13.03,10.98C369.38,641.03,363.66,642.39,357.32,642.39z"/>
<path style="&st0;" d="M599.93,632.29c4.57,0,8.7-1.09,12.39-3.28c3.69-2.2,6.81-5.14,9.38-8.83s4.52-7.98,5.88-12.88
	c1.35-4.89,2.03-10,2.03-15.33v-0.28c0-5.32-0.7-10.43-2.11-15.33c-1.4-4.91-3.4-9.22-6.02-12.95c-2.61-3.73-5.75-6.71-9.44-8.95
	c-3.69-2.24-7.82-3.36-12.39-3.36c-4.57,0-8.7,1.1-12.39,3.3c-3.69,2.19-6.82,5.12-9.39,8.81c-2.56,3.69-4.55,7.96-5.95,12.81
	c-1.4,4.84-2.09,9.98-2.09,15.39v0.28c0,5.32,0.7,10.44,2.09,15.34c1.41,4.9,3.41,9.21,6.03,12.94c2.61,3.73,5.79,6.71,9.52,8.95
	C591.2,631.18,595.36,632.29,599.93,632.29z M599.65,642.39c-6.36,0-12.07-1.33-17.16-3.98c-5.09-2.66-9.42-6.3-13.02-10.92
	c-3.59-4.62-6.35-9.99-8.27-16.11c-1.91-6.11-2.86-12.58-2.86-19.39v-0.28c0-6.91,0.98-13.41,2.94-19.53
	c1.96-6.11,4.75-11.48,8.39-16.09c3.64-4.62,8.03-8.29,13.16-11c5.13-2.71,10.83-4.06,17.09-4.06c6.34,0,12.04,1.34,17.08,4
	c5.04,2.66,9.36,6.3,12.95,10.92c3.59,4.62,6.34,9.96,8.25,16.03c1.91,6.06,2.88,12.55,2.88,19.45v0.28c0,6.81-0.98,13.3-2.94,19.47
	c-1.96,6.16-4.73,11.55-8.33,16.17c-3.59,4.62-7.94,8.28-13.03,10.98C611.7,641.03,605.99,642.39,599.65,642.39z"/>
<g>
	<path style="&st0;" d="M708.94,11.06v697.88H11.06V11.06H708.94 M720,0H0v720h720V0L720,0z"/>
</g>
</svg>
