<?xml version="1.0" encoding="utf-8"?>
<!-- Generator: Adobe Illustrator 16.0.4, SVG Export Plug-In . SVG Version: 6.00 Build 0)  -->
<!DOCTYPE svg PUBLIC "-//W3C//DTD SVG 1.1//EN" "http://www.w3.org/Graphics/SVG/1.1/DTD/svg11.dtd" [
	<!ENTITY st0 "fill:#1A1A1A;">
	<!ENTITY st1 "fill:#212121;">
	<!ENTITY st2 "fill:#FFCCAA;">
	<!ENTITY st3 "fill:#D44700;">
]>
<svg version="1.1" id="Layer_1" xmlns="http://www.w3.org/2000/svg" xmlns:xlink="http://www.w3.org/1999/xlink" x="0px" y="0px"
	 width="1584px" height="2448px" viewBox="0 0 1584 2448" style="enable-background:new 0 0 1584 2448;" xml:space="preserve">
<rect style="&st3;" width="1584" height="2448"/>
<path style="&st0;" d="M1758.26,907.96c-5.52,223.85-99.75,436.33-261.93,590.71c-162.19,154.38-379.07,238-602.91,232.48
	c-223.85-5.52-436.33-99.75-590.71-261.93c-154.38-162.19-238-379.07-232.48-602.91c5.53-223.85,99.75-436.33,261.94-590.71
	c162.19-154.38,379.06-238,602.91-232.48c223.85,5.52,436.33,99.75,590.71,261.94C1680.16,467.24,1763.79,684.12,1758.26,907.96z"/>
<polygon style="&st2;" points="243.48,2161.49 261.49,2131.46 162.74,2026.14 144.74,2056.18 214.23,2125.5 213.81,2126.24 
	119.13,2098.91 106.85,2119.39 175.56,2190.04 175.12,2190.75 81.24,2162.11 63.15,2192.3 202.56,2229.75 220.65,2199.6 
	165.24,2140.47 "/>
<polygon style="&st2;" points="207.49,1951.5 166.65,2019.64 285.72,2091.03 326.57,2022.89 302.75,2008.61 278.18,2049.61 
	254.21,2035.25 277.75,1995.98 253.94,1981.72 230.4,2020.98 206.72,2006.78 231.3,1965.78 "/>
<path style="&st2;" d="M348.73,1877.92l-16.09,26.84l-26.69-34.03l0.17-0.3L348.73,1877.92z M276.75,1835.95l-15.05,25.11
	l90.27,119.47l17.47-29.16l-18.53-23.09l27.17-45.33l29.09,5.48l17.48-29.16L276.75,1835.95z"/>
<path style="&st2;" d="M377.36,1787.91l-31.17-18.69l1.91-3.17c6.14-10.25,14.2-22.08,29.08-13.17c14.86,8.91,8.23,21.61,2.09,31.86
	L377.36,1787.91z M308.27,1783.38l119.08,71.39l16.26-27.14l-47.05-28.2l68.86-8.17l20.67-34.5l-73.78,11.48
	c4.11-17.36-2-34.34-19.89-45.08c-23.39-14.02-45.39-4.45-58.62,17.62L308.27,1783.38z"/>
<polygon style="&st2;" points="411.14,1611.77 370.29,1679.91 489.37,1751.3 530.21,1683.16 506.4,1668.88 481.82,1709.88 
	457.85,1695.52 481.4,1656.25 457.59,1641.98 434.04,1681.25 410.37,1667.05 434.95,1626.05 "/>
<path style="&st2;" d="M513.24,1561.23l-31.17-18.69l1.91-3.17c6.14-10.25,14.2-22.08,29.08-13.17c14.86,8.91,8.23,21.61,2.09,31.86
	L513.24,1561.23z M444.15,1556.7l119.08,71.39l16.27-27.14l-47.05-28.2l68.86-8.17l20.67-34.5l-73.78,11.48
	c4.11-17.36-2-34.34-19.89-45.08c-23.39-14.02-45.39-4.45-58.62,17.62L444.15,1556.7z"/>
<polygon style="&st2;" points="547.02,1385.09 506.17,1453.23 625.25,1524.62 666.09,1456.48 642.28,1442.2 617.7,1483.2 
	593.73,1468.84 617.28,1429.57 593.47,1415.3 569.92,1454.57 546.25,1440.37 570.83,1399.37 "/>
<polygon style="&st2;" points="699.38,1400.95 712.18,1379.59 623.06,1258.26 604.71,1288.86 664.94,1365.79 568.71,1348.9 
	550.37,1379.51 "/>
<path style="&st2;" d="M696.35,1270.81c-17.75-10.64-29.62-31.09-17.08-52.02c12.64-21.08,36.11-19.97,53.86-9.33
	c17.75,10.64,30.14,30.23,17.16,51.89C736.96,1283.57,714.1,1281.45,696.35,1270.81z M678.81,1300.11
	c34.78,20.84,76.66,12.22,97.77-23c20.5-34.22,8.91-76.09-25.88-96.94c-34.8-20.86-77.73-10.11-97.55,22.95
	C633.51,1235.89,644.01,1279.25,678.81,1300.11z"/>
<polygon style="&st2;" points="714.68,1105.39 698.41,1132.53 817.49,1203.92 858.33,1135.78 834.52,1121.5 809.94,1162.5 "/>
<path style="&st2;" d="M800.5,962.22l-16.27,27.14l68.84,41.28c19.92,11.94,22.08,21.45,14.11,34.73
	c-7.95,13.28-17.38,15.89-37.3,3.95l-68.84-41.28l-16.27,27.12l76.78,46.03c29.44,17.66,54.16,10.48,72.33-19.83
	s12.83-55.47-16.61-73.12L800.5,962.22z"/>
<polygon style="&st2;" points="829.35,968.1 846.32,939.82 941.58,996.93 957.85,969.79 862.58,912.68 879.54,884.38 855.72,870.1 
	805.54,953.82 "/>
<polygon style="&st2;" points="876.24,835.87 859.97,863.01 979.05,934.4 995.32,907.26 "/>
<path style="&st2;" d="M960.5,830.15c-17.75-10.64-29.62-31.09-17.08-52.02c12.64-21.08,36.11-19.97,53.86-9.33
	c17.75,10.64,30.14,30.23,17.16,51.89C1001.11,842.92,978.25,840.79,960.5,830.15z M942.96,859.45c34.78,20.84,76.66,12.22,97.77-23
	c20.5-34.22,8.91-76.09-25.88-96.94c-34.8-20.86-77.73-10.11-97.55,22.95C897.66,795.23,908.16,838.59,942.96,859.45z"/>
<polygon style="&st2;" points="1024,691.83 1024.18,691.53 1126.46,688.48 1142.73,661.34 1023.65,589.95 1007.39,617.09 
	1081.29,661.41 1081.12,661.7 978.82,664.73 962.56,691.88 1081.64,763.27 1097.9,736.12 "/>
<path style="&st2;" d="M1142.28,554.1l-16.09,26.84l-26.69-34.03l0.17-0.3L1142.28,554.1z M1070.3,512.13l-15.05,25.11l90.27,119.47
	l17.47-29.16l-18.53-23.09l27.17-45.33l29.09,5.48l17.48-29.16L1070.3,512.13z"/>
<path style="&st2;" d="M1170.91,464.09l-31.17-18.69l1.91-3.17c6.14-10.25,14.2-22.08,29.08-13.17c14.86,8.91,8.23,21.61,2.09,31.86
	L1170.91,464.09z M1101.82,459.56l119.08,71.39l16.27-27.14l-47.05-28.2l68.86-8.17l20.67-34.5l-73.78,11.48
	c4.11-17.36-2-34.34-19.89-45.08c-23.39-14.02-45.39-4.45-58.62,17.62L1101.82,459.56z"/>
<polygon style="&st2;" points="1180.11,328.95 1163.84,356.09 1282.92,427.48 1299.18,400.34 "/>
<polygon style="&st2;" points="1228.17,248.77 1187.33,316.91 1306.41,388.3 1347.25,320.16 1323.44,305.88 1298.86,346.88 
	1274.89,332.52 1298.44,293.25 1274.62,278.99 1251.08,318.25 1227.41,304.05 1251.98,263.05 "/>
<path style="&st2;" d="M1260.05,190.67c-11.52,19.2-9.14,47.33,13.09,60.66c12.41,7.44,28.53,5.72,44.17-4.33
	c15.56-9.92,27.09-20.28,35.75-15.09c11.11,6.66,4.94,18.27,1.39,24.19c-7.97,13.28-30.91,21.12-30.91,21.12l14.69,27.23
	c0,0,25.84-7.45,42.55-35.33c13.94-23.23,16.95-50.86-11.48-67.91c-15.59-9.34-35.59-1.52-49.17,8.39
	c-13.92,10.11-25.44,18.53-32.08,14.55c-6.48-3.89-7.75-11.31-2.2-20.56c7.34-12.27,22.67-19.16,22.67-19.16l-15.06-23.95
	C1293.46,160.48,1273.02,169.03,1260.05,190.67z"/>
<polygon style="&st1;" points="566.11,1762.61 576.59,1768.93 613.56,1734.5 603.08,1728.17 578.72,1752.4 578.47,1752.25 
	588.14,1719.15 580.98,1714.84 556.19,1738.79 555.94,1738.65 566.06,1705.82 555.52,1699.46 542.27,1748.2 552.8,1754.57 
	573.55,1735.25 "/>
<polygon style="&st1;" points="610.27,1766.49 623.68,1774.59 613.6,1791.27 623.08,1796.99 648.19,1755.4 638.71,1749.68 
	628.69,1766.27 615.29,1758.18 625.3,1741.59 615.82,1735.87 590.71,1777.46 600.19,1783.18 "/>
<path style="&st1;" d="M660.59,1796.94l-9.38-5.67l11.94-9.28l0.09,0.05L660.59,1796.94z M675.34,1771.8l-8.75-5.3l-41.92,31.45
	l10.2,6.16l8.08-6.45l15.83,9.55l-1.94,10.17l10.19,6.14L675.34,1771.8z"/>
<polygon style="&st1;" points="681.18,1786.67 691.06,1792.62 670.96,1825.9 680.43,1831.62 700.53,1798.34 710.42,1804.31 
	715.43,1796 686.2,1778.36 "/>
<path style="&st1;" d="M721.42,1846.38l5.92-9.83l2.98,1.8c4.48,2.72,6.14,5.56,3.83,9.41c-1.98,3.27-5.27,3.14-9.75,0.42
	L721.42,1846.38z M732.28,1828.38l5.42-8.97l0.75,0.45c4.14,2.5,5.55,5.06,3.75,8.05c-2.11,3.48-5.08,3.39-9.17,0.92L732.28,1828.38
	z M732.62,1806.38l-25.11,41.59l15.8,9.53c8.61,5.19,16.45,3.47,20.59-3.39c4.05-6.7,2.11-11.8-2.53-15.83
	c4.64,0.3,8.27-1.97,10.58-5.8c4.78-7.92,0.75-14-6.41-18.31L732.62,1806.38z"/>
<polygon style="&st1;" points="775.69,1832.37 766.2,1826.65 741.09,1868.25 764.89,1882.61 769.91,1874.29 755.59,1865.65 "/>
<path style="&st1;" d="M801.82,1882.2l-9.38-5.67l11.94-9.28l0.09,0.05L801.82,1882.2z M816.57,1857.05l-8.75-5.3l-41.92,31.45
	l10.2,6.16l8.08-6.45l15.83,9.55l-1.94,10.17l10.19,6.14L816.57,1857.05z"/>
<path style="&st1;" d="M835.56,1913.57c-9.53-5.75-9.69-14.92-6.3-20.53c3.34-5.53,11.53-9.67,21.06-3.92
	c4.84,2.92,6.61,7.52,6.61,7.52l8.91-5.66c0,0-2.33-6.61-11.36-12.06c-11.8-7.12-28.38-3.92-35.58,8.03
	c-7.19,11.89-2.19,28,9.56,35.08c9.03,5.45,15.98,4.41,15.98,4.41l0.83-10.5C845.28,1915.93,840.4,1916.49,835.56,1913.57z"/>
<polygon style="&st1;" points="884.13,1954.59 877.96,1921.01 906.61,1911.42 895.11,1904.46 870.58,1912.86 880.85,1895.86 
	871.36,1890.14 846.25,1931.73 855.74,1937.45 866.39,1919.81 871.07,1946.7 "/>
<path style="&st1;" d="M923.08,1946.72l6.67-11.03l2.67,1.61c3.73,2.25,6.5,5.66,3.91,9.94c-2.55,4.23-6.84,3.34-10.58,1.09
	L923.08,1946.72z M924.83,1922.41L899.72,1964l9.48,5.72l9.31-15.42l5.7,3.44c8.11,4.91,17.09,3.78,22.27-4.78
	c5.2-8.62,1.64-16.48-6.47-21.39L924.83,1922.41z"/>
<path style="&st1;" d="M954.25,1968.49c3.73-6.19,10.92-10.33,18.23-5.92c7.36,4.45,6.94,12.67,3.2,18.86
	c-3.75,6.2-10.62,10.53-18.19,5.97C949.72,1982.71,950.5,1974.7,954.25,1968.49z M944.02,1962.32c-7.34,12.16-4.36,26.83,7.95,34.25
	c11.94,7.22,26.61,3.2,33.95-8.95c7.33-12.14,3.61-27.19-7.94-34.16C966.53,1946.55,951.34,1950.18,944.02,1962.32z"/>
<polygon style="&st1;" points="1007.85,2029.28 1018.34,2035.61 1055.3,2001.17 1044.82,1994.84 1020.46,2019.07 1020.21,2018.92 
	1029.88,1985.82 1022.73,1981.51 997.93,2005.46 997.68,2005.32 1007.8,1972.5 997.26,1966.14 984.01,2014.87 994.54,2021.25 
	1015.29,2001.92 "/>
<polygon style="&st1;" points="1081.36,2016.9 1057.56,2002.54 1032.45,2044.13 1056.25,2058.49 1061.26,2050.18 1046.95,2041.54 
	1052.01,2033.16 1065.73,2041.45 1070.75,2033.13 1057.03,2024.85 1062.03,2016.57 1076.34,2025.21 "/>
<path style="&st1;" d="M1085.15,2044.36l6.58-10.89l1.12,0.67c3.56,2.16,7.7,5,4.56,10.2c-3.12,5.19-7.58,2.84-11.14,0.69
	L1085.15,2044.36z M1086.8,2020.19l-25.11,41.59l9.48,5.72l9.92-16.44l2.78,24.11l12.05,7.27l-3.94-25.83
	c6.08,1.45,12.03-0.66,15.81-6.89c4.92-8.17,1.59-15.89-6.12-20.56L1086.8,2020.19z"/>
<polygon style="&st1;" points="1126.64,2055.58 1136.51,2061.53 1116.42,2094.81 1125.89,2100.53 1145.98,2067.25 1155.87,2073.22 
	1160.89,2064.91 1131.65,2047.27 "/>
<polygon style="&st1;" points="1188.09,2081.33 1164.29,2066.97 1139.18,2108.57 1162.98,2122.93 1168,2114.61 1153.68,2105.97 
	1158.75,2097.6 1172.46,2105.88 1177.48,2097.57 1163.76,2089.29 1168.76,2081 1183.07,2089.64 "/>
<polygon style="&st1;" points="1203.02,2090.34 1193.54,2084.62 1168.43,2126.22 1192.23,2140.58 1197.24,2132.27 1182.93,2123.62 
	"/>
<polygon style="&st1;" points="1231.48,2107.52 1222,2101.8 1196.89,2143.4 1220.68,2157.76 1225.7,2149.45 1211.39,2140.8 "/>
<path style="&st1;" d="M1266.25,2127.48c-6.7-4.05-16.56-3.25-21.25,4.52c-2.61,4.33-2.02,9.98,1.47,15.47
	c3.45,5.45,7.08,9.48,5.25,12.5c-2.36,3.89-6.39,1.72-8.47,0.47c-4.62-2.8-7.34-10.83-7.34-10.83l-9.56,5.11
	c0,0,2.59,9.06,12.31,14.94c8.12,4.89,17.78,5.95,23.78-3.97c3.28-5.44,0.56-12.44-2.89-17.2c-3.52-4.88-6.44-8.91-5.03-11.23
	c1.38-2.27,3.95-2.69,7.19-0.75c4.27,2.59,6.67,7.94,6.67,7.94l8.41-5.23C1276.78,2139.2,1273.8,2132.05,1266.25,2127.48z"/>
<path style="&st1;" d="M1330.09,2167.05l-9.48-5.72l-14.52,24.05c-4.2,6.97-7.55,7.69-12.19,4.89c-4.64-2.81-5.53-6.08-1.33-13.05
	l14.52-24.05l-9.48-5.73l-16.19,26.83c-6.22,10.28-3.72,18.95,6.86,25.34c10.59,6.39,19.41,4.55,25.62-5.73L1330.09,2167.05z"/>
<path style="&st1;" d="M1350.43,2178.3c-6.7-4.05-16.56-3.25-21.25,4.52c-2.61,4.33-2.02,9.98,1.47,15.47
	c3.45,5.45,7.08,9.48,5.25,12.5c-2.36,3.89-6.39,1.72-8.47,0.47c-4.62-2.8-7.34-10.83-7.34-10.83l-9.56,5.11
	c0,0,2.59,9.06,12.31,14.94c8.12,4.89,17.78,5.95,23.78-3.97c3.28-5.44,0.56-12.44-2.89-17.2c-3.52-4.88-6.44-8.91-5.03-11.23
	c1.38-2.27,3.95-2.69,7.19-0.75c4.27,2.59,6.67,7.94,6.67,7.94l8.41-5.23C1360.96,2190.02,1357.98,2182.87,1350.43,2178.3z"/>
<path style="&st1;" d="M527.63,1802.66l-9.38-5.67l11.94-9.28l0.09,0.05L527.63,1802.66z M542.38,1777.52l-8.75-5.3l-41.92,31.45
	l10.2,6.16l8.08-6.45l15.83,9.55l-1.94,10.17l10.19,6.14L542.38,1777.52z"/>
<path style="&st1;" d="M550.52,1829.19l5.92-9.83l2.98,1.8c4.48,2.72,6.14,5.56,3.83,9.41c-1.98,3.27-5.27,3.14-9.75,0.42
	L550.52,1829.19z M561.38,1811.19l5.42-8.97l0.75,0.45c4.14,2.5,5.55,5.06,3.75,8.05c-2.11,3.48-5.08,3.39-9.17,0.92L561.38,1811.19
	z M561.72,1789.19l-25.11,41.59l15.8,9.53c8.61,5.19,16.45,3.47,20.59-3.39c4.05-6.7,2.11-11.8-2.53-15.83
	c4.64,0.3,8.27-1.97,10.58-5.8c4.78-7.92,0.75-14-6.41-18.31L561.72,1789.19z"/>
<path style="&st1;" d="M591.14,1835.27c3.73-6.19,10.92-10.33,18.23-5.92c7.36,4.45,6.94,12.67,3.2,18.86
	c-3.75,6.2-10.62,10.53-18.19,5.97C586.6,1849.49,587.39,1841.48,591.14,1835.27z M580.9,1829.1c-7.34,12.16-4.36,26.83,7.95,34.25
	c11.94,7.22,26.61,3.2,33.95-8.95c7.33-12.14,3.61-27.19-7.94-34.16C603.42,1813.34,588.23,1816.96,580.9,1829.1z"/>
<path style="&st1;" d="M671.49,1855.45l-9.48-5.72l-14.52,24.05c-4.2,6.97-7.55,7.69-12.19,4.89c-4.64-2.81-5.53-6.08-1.33-13.05
	l14.51-24.05l-9.48-5.73l-16.19,26.83c-6.22,10.28-3.72,18.95,6.86,25.34c10.59,6.39,19.41,4.55,25.62-5.73L671.49,1855.45z"/>
<polygon style="&st1;" points="669.4,1865.53 679.27,1871.48 659.18,1904.77 668.65,1910.48 688.74,1877.2 698.63,1883.17 
	703.65,1874.86 674.41,1857.22 "/>
<path style="&st1;" d="M710.32,1924.09l14.89-24.66l1.47,0.89c7.06,4.25,8.58,12.53,4.39,19.48c-4.25,6.94-12.28,9.39-19.28,5.17
	L710.32,1924.09z M720.84,1885.25l-25.11,41.59l12.06,7.27c11.44,6.91,26.2,4,33.55-8.16c7.3-12.09,2.95-26.55-8.44-33.44
	L720.84,1885.25z"/>
<polygon style="&st1;" points="780.88,1921.48 757.08,1907.12 731.97,1948.72 755.77,1963.08 760.78,1954.77 746.47,1946.12 
	751.53,1937.75 765.25,1946.03 770.27,1937.72 756.55,1929.44 761.55,1921.16 775.86,1929.8 "/>
<polygon style="&st1;" points="795.6,1987.12 805.09,1992.84 826.46,1949 816.37,1942.92 792.66,1961.34 797.93,1931.78 
	787.84,1925.69 758.99,1965.03 768.48,1970.75 785.32,1947.28 785.57,1947.44 779.38,1976.98 785.02,1980.39 808.26,1961.14 
	808.52,1961.3 "/>
<path style="&st1;" d="M829.82,1979.36c3.73-6.19,10.92-10.33,18.23-5.92c7.36,4.45,6.94,12.67,3.2,18.86
	c-3.75,6.2-10.62,10.53-18.19,5.97C825.29,1993.58,826.07,1985.57,829.82,1979.36z M819.59,1973.19
	c-7.34,12.16-4.36,26.83,7.95,34.25c11.94,7.22,26.61,3.2,33.95-8.95c7.33-12.14,3.61-27.19-7.94-34.16
	C842.1,1957.43,826.91,1961.05,819.59,1973.19z"/>
<path style="&st1;" d="M880.39,2026.61c-9.53-5.75-9.69-14.92-6.3-20.53c3.34-5.53,11.53-9.67,21.06-3.92
	c4.84,2.92,6.61,7.52,6.61,7.52l8.91-5.66c0,0-2.33-6.61-11.36-12.06c-11.8-7.12-28.38-3.92-35.58,8.03
	c-7.19,11.89-2.19,28,9.56,35.08c9.03,5.45,15.98,4.41,15.98,4.41l0.83-10.5C890.11,2028.97,885.23,2029.54,880.39,2026.61z"/>
<path style="&st1;" d="M914.54,2027.36l6.58-10.89l1.12,0.67c3.56,2.16,7.7,5,4.56,10.2c-3.12,5.19-7.58,2.84-11.14,0.69
	L914.54,2027.36z M916.2,2003.18l-25.11,41.59l9.48,5.72l9.92-16.44l2.78,24.11l12.05,7.27l-3.94-25.83
	c6.08,1.45,12.03-0.66,15.81-6.89c4.92-8.17,1.59-15.89-6.12-20.56L916.2,2003.18z"/>
<path style="&st1;" d="M958.71,2062.89l-9.38-5.67l11.94-9.28l0.09,0.05L958.71,2062.89z M973.46,2037.75l-8.75-5.3l-41.92,31.45
	l10.2,6.16l8.08-6.45l15.83,9.55l-1.94,10.17l10.19,6.14L973.46,2037.75z"/>
<path style="&st1;" d="M992.45,2094.26c-9.53-5.75-9.69-14.92-6.3-20.53c3.34-5.53,11.53-9.67,21.06-3.92
	c4.84,2.92,6.61,7.52,6.61,7.52l8.91-5.66c0,0-2.33-6.61-11.36-12.06c-11.8-7.12-28.38-3.92-35.58,8.03
	c-7.19,11.89-2.19,28,9.56,35.08c9.03,5.45,15.98,4.41,15.98,4.41l0.83-10.5C1002.16,2096.62,997.29,2097.18,992.45,2094.26z"/>
<polygon style="&st1;" points="1023.72,2068.09 1025.2,2100.28 1013.94,2118.94 1023.41,2124.66 1034.67,2106 1063.86,2092.31 
	1052.45,2085.44 1035.75,2093.52 1035.12,2074.97 "/>
<polygon style="&st1;" points="1088.64,2107.28 1079.16,2101.56 1054.05,2143.15 1063.53,2148.87 "/>
<polygon style="&st1;" points="1094.66,2132.45 1094.76,2132.51 1095.73,2168.31 1105.21,2174.03 1130.32,2132.43 1120.84,2126.71 
	1105.26,2152.53 1105.16,2152.46 1104.2,2116.67 1094.71,2110.95 1069.6,2152.54 1079.09,2158.26 "/>
<path style="&st1;" d="M1156.52,2182.3l-9.38-5.67l11.94-9.28l0.09,0.05L1156.52,2182.3z M1171.27,2157.16l-8.75-5.3l-41.92,31.45
	l10.2,6.16l8.08-6.45l15.83,9.55l-1.94,10.17l10.19,6.14L1171.27,2157.16z"/>
<polygon style="&st1;" points="1198.91,2230.59 1208.4,2236.31 1229.77,2192.47 1219.68,2186.39 1195.98,2204.81 1201.24,2175.25 
	1191.15,2169.16 1162.3,2208.5 1171.79,2214.22 1188.63,2190.75 1188.88,2190.91 1182.7,2220.45 1188.34,2223.86 1211.57,2204.61 
	1211.84,2204.77 "/>
<polygon style="&st1;" points="1261.09,2211.38 1237.29,2197.02 1212.18,2238.61 1235.98,2252.97 1240.99,2244.66 1226.68,2236.02 
	1231.74,2227.64 1245.46,2235.93 1250.48,2227.61 1236.76,2219.33 1241.76,2211.05 1256.07,2219.69 "/>
<path style="&st1;" d="M1263.9,2238.25l6.58-10.89l1.12,0.67c3.56,2.16,7.7,5,4.56,10.2c-3.12,5.19-7.58,2.84-11.14,0.69
	L1263.9,2238.25z M1265.55,2214.08l-25.11,41.59l9.48,5.72l9.92-16.44l2.78,24.11l12.05,7.27l-3.94-25.83
	c6.08,1.45,12.03-0.66,15.81-6.89c4.92-8.17,1.59-15.89-6.12-20.56L1265.55,2214.08z"/>
<polygon style="&st1;" points="1311.18,2241.62 1301.69,2235.9 1276.58,2277.49 1286.07,2283.21 "/>
<path style="&st1;" d="M1317.88,2290.71c-9.53-5.75-9.69-14.92-6.3-20.53c3.34-5.53,11.53-9.67,21.06-3.92
	c4.84,2.92,6.61,7.52,6.61,7.52l8.91-5.66c0,0-2.33-6.61-11.36-12.06c-11.8-7.12-28.38-3.92-35.58,8.03
	c-7.19,11.89-2.19,28,9.56,35.08c9.03,5.45,15.98,4.41,15.98,4.41l0.83-10.5C1327.59,2293.07,1322.72,2293.64,1317.88,2290.71z"/>
<path style="&st1;" d="M1360.05,2305.17l-9.38-5.67l11.94-9.28l0.09,0.05L1360.05,2305.17z M1374.8,2280.03l-8.75-5.3l-41.92,31.45
	l10.2,6.16l8.08-6.45l15.83,9.55l-1.94,10.17l10.19,6.14L1374.8,2280.03z"/>
<polygon style="&st1;" points="797.79,2056.07 789.31,2070.11 802.64,2078.16 803.39,2078.62 818.17,2087.54 832.25,2096.04 
	851.69,2107.77 865.78,2116.28 880.55,2125.2 894.64,2133.7 901.71,2137.97 915.8,2146.48 935.23,2158.21 949.32,2166.71 
	964.1,2175.63 977.42,2183.68 978.18,2184.13 991.51,2192.18 999.99,2178.13 986.66,2170.09 985.9,2169.63 972.58,2161.58 
	957.8,2152.66 943.71,2144.16 924.28,2132.43 910.2,2123.93 903.12,2119.65 889.03,2111.15 874.26,2102.23 860.17,2093.73 
	840.73,2081.99 826.65,2073.49 811.87,2064.57 811.12,2064.11 "/>
<path style="&st1;" d="M486.88,1843.6l-4.88-2.95l6.19-4.86l0.08,0.05l-1.42,7.75L486.88,1843.6z M494.58,1830.51l-4.58-2.77
	l-21.81,16.39l5.27,3.17l4.22-3.36l8.27,5l-1,5.3l5.3,3.19l4.31-26.94L494.58,1830.51z"/>
<path style="&st1;" d="M511.63,1864.25c-4.95-3-5.06-7.78-3.3-10.67c1.73-2.89,6.02-5.05,10.97-2.05c2.51,1.52,3.44,3.91,3.44,3.91
	l4.66-2.94c0,0-1.22-3.45-5.92-6.3c-6.14-3.7-14.77-2.03-18.52,4.19c-3.75,6.19-1.14,14.56,4.97,18.25c4.7,2.84,8.33,2.3,8.33,2.3
	l0.42-5.47C516.68,1865.47,514.15,1865.77,511.63,1864.25z"/>
<path style="&st1;" d="M528.09,1865.51c1.95-3.25,5.69-5.39,9.48-3.09c3.84,2.31,3.62,6.58,1.67,9.83c-1.95,3.22-5.5,5.45-9.45,3.08
	C525.77,1872.88,526.14,1868.73,528.09,1865.51z M522.78,1862.29c-3.83,6.31-2.27,13.95,4.12,17.81c6.22,3.75,13.86,1.67,17.69-4.64
	c3.81-6.33,1.88-14.16-4.14-17.8C534.5,1854.07,526.59,1855.96,522.78,1862.29z"/>
<polygon style="&st1;" points="553.26,1877.15 553.31,1877.18 553.81,1895.81 558.75,1898.79 571.82,1877.14 566.89,1874.15 
	558.76,1887.59 558.68,1887.54 558.2,1868.92 553.29,1865.95 540.21,1887.61 545.15,1890.59 "/>
<polygon style="&st1;" points="566.41,1903.41 570.27,1905.74 592.46,1889.59 586.9,1886.23 572.83,1897.16 575.94,1879.63 
	570.38,1876.27 "/>
<polygon style="&st1;" points="605.67,1897.57 593.28,1890.09 580.2,1911.74 592.59,1919.23 595.2,1914.9 587.75,1910.4 
	590.37,1906.04 597.5,1910.34 600.12,1906.01 593,1901.71 595.59,1897.4 603.04,1901.9 "/>
<path style="&st1;" d="M607.64,1911.87l3.41-5.66l0.58,0.34c1.86,1.12,4.03,2.58,2.39,5.3c-1.64,2.7-3.94,1.48-5.8,0.36
	L607.64,1911.87z M608.5,1899.28l-13.08,21.66l4.94,2.98l5.17-8.56l1.44,12.55l6.27,3.78l-2.05-13.44c3.16,0.75,6.27-0.34,8.22-3.59
	c2.56-4.25,0.86-8.28-3.16-10.7L608.5,1899.28z"/>
<path style="&st1;" d="M635.52,1915.05c-3.48-2.11-8.62-1.69-11.06,2.34c-1.36,2.27-1.05,5.2,0.77,8.05s3.67,4.95,2.72,6.53
	c-1.22,2.02-3.33,0.89-4.39,0.25c-2.42-1.47-3.83-5.64-3.83-5.64l-4.97,2.64c0,0,1.34,4.72,6.41,7.77
	c4.23,2.56,9.27,3.12,12.38-2.03c1.72-2.84,0.3-6.5-1.48-8.98c-1.86-2.52-3.38-4.62-2.66-5.83c0.72-1.19,2.09-1.42,3.78-0.41
	c2.22,1.34,3.45,4.14,3.45,4.14l4.38-2.73C641,1921.15,639.45,1917.43,635.52,1915.05z"/>
<path style="&st1;" d="M648.24,1941.01l-4.88-2.95l6.19-4.86l0.08,0.05l-1.42,7.75L648.24,1941.01z M655.94,1927.92l-4.58-2.77
	l-21.81,16.39l5.26,3.17l4.22-3.36l8.27,5l-1,5.3l5.3,3.19l4.31-26.94L655.94,1927.92z"/>
<polygon style="&st1;" points="660.23,1936.41 665.36,1939.52 654.91,1956.85 659.84,1959.82 670.3,1942.49 675.45,1945.6 
	678.08,1941.27 662.86,1932.09 "/>
<rect x="672.9" y="1942.02" transform="matrix(0.8558 0.5173 -0.5173 0.8558 1108.6401 -67.7167)" style="&st1;" width="5.77" height="25.3"/>
<path style="&st1;" d="M685.76,1960.69c1.95-3.25,5.69-5.39,9.48-3.09c3.84,2.31,3.62,6.58,1.67,9.83c-1.95,3.22-5.5,5.45-9.45,3.08
	C683.43,1968.07,683.81,1963.91,685.76,1960.69z M680.45,1957.47c-3.83,6.31-2.27,13.95,4.12,17.81c6.22,3.75,13.86,1.67,17.69-4.64
	c3.81-6.33,1.88-14.16-4.14-17.8C692.17,1949.25,684.26,1951.14,680.45,1957.47z"/>
<polygon style="&st1;" points="710.93,1972.34 710.98,1972.37 711.48,1990.99 716.42,1993.98 729.5,1972.32 724.56,1969.34 
	716.43,1982.77 716.35,1982.73 715.87,1964.1 710.96,1961.13 697.89,1982.79 702.82,1985.77 "/>
<polygon style="&st1;" points="741.1,2008.88 746.54,2012.16 765.81,1994.24 760.35,1990.94 747.68,2003.57 747.52,2003.47 
	752.56,1986.24 748.85,1984 735.94,1996.49 735.79,1996.39 741.06,1979.3 735.57,1975.99 728.69,2001.38 734.15,2004.68 
	744.98,1994.64 "/>
<rect x="760.04" y="1994.62" transform="matrix(0.8558 0.5172 -0.5172 0.8558 1148.2333 -105.2446)" style="&st1;" width="5.77" height="25.3"/>
<polygon style="&st1;" points="769.82,2002.57 774.95,2005.68 764.5,2023.01 769.43,2025.98 779.89,2008.65 785.04,2011.76 
	787.67,2007.43 772.45,1998.24 "/>
<polygon style="&st1;" points="786.54,2024.46 793.5,2028.66 788.27,2037.35 793.21,2040.34 806.29,2018.68 801.35,2015.7 
	796.13,2024.34 789.16,2020.13 794.38,2011.49 789.44,2008.51 776.36,2030.16 781.3,2033.15 "/>
<path style="&st1;" d="M815.7,2037.58l3.45-5.73l1.39,0.83c1.94,1.17,3.38,2.92,2.03,5.16c-1.33,2.2-3.55,1.75-5.48,0.58
	L815.7,2037.58z M816.61,2024.91l-13.08,21.66l4.94,2.98l4.84-8.03l2.95,1.78c4.23,2.55,8.92,1.97,11.61-2.48
	c2.7-4.48,0.86-8.59-3.38-11.14L816.61,2024.91z"/>
<polygon style="&st1;" points="846.48,2042.95 834.09,2035.46 821.01,2057.12 833.4,2064.6 836.01,2060.27 828.56,2055.77 
	831.18,2051.41 838.31,2055.71 840.93,2051.38 833.81,2047.09 836.4,2042.77 843.86,2047.27 "/>
<polygon style="&st1;" points="849.28,2055.85 849.33,2055.88 849.83,2074.51 854.77,2077.49 867.84,2055.84 862.91,2052.85 
	854.78,2066.29 854.7,2066.24 854.22,2047.62 849.31,2044.65 836.23,2066.3 841.17,2069.29 "/>
<rect x="864.04" y="2057.41" transform="matrix(0.8558 0.5173 -0.5173 0.8558 1195.7991 -149.9741)" style="&st1;" width="5.77" height="25.3"/>
<polygon style="&st1;" points="891.48,2070.11 879.09,2062.63 866.02,2084.29 878.41,2091.77 881.02,2087.44 873.56,2082.94 
	876.19,2078.58 883.31,2082.88 885.94,2078.55 878.81,2074.25 881.41,2069.94 888.86,2074.44 "/>
<polygon style="&st1;" points="899.25,2074.8 894.32,2071.82 881.24,2093.47 893.63,2100.96 896.24,2096.63 888.79,2092.13 "/>
<path style="&st1;" d="M925.73,2090.78l-4.94-2.98l-8.62,14.28c-1.31,2.19-2.92,2.41-4.33,1.55c-1.27-0.77-1.92-3.19-1.92-3.19
	l-4.06,3.17c0,0,0.72,3.27,3.81,5.14c4.34,2.62,8.11,1.83,10.67-2.42L925.73,2090.78z"/>
<path style="&st1;" d="M926.42,2105.97c1.95-3.25,5.69-5.39,9.48-3.09c3.84,2.31,3.62,6.58,1.67,9.83c-1.95,3.22-5.5,5.45-9.45,3.08
	C924.09,2113.35,924.47,2109.19,926.42,2105.97z M921.11,2102.75c-3.83,6.31-2.27,13.95,4.12,17.81c6.22,3.75,13.86,1.67,17.69-4.64
	c3.81-6.33,1.88-14.16-4.14-17.8C932.83,2094.54,924.92,2096.43,921.11,2102.75z"/>
<path style="&st1;" d="M959.83,2110.84c-3.48-2.11-8.62-1.69-11.06,2.34c-1.36,2.27-1.05,5.2,0.77,8.05s3.67,4.95,2.72,6.53
	c-1.22,2.02-3.33,0.89-4.39,0.25c-2.42-1.47-3.83-5.64-3.83-5.64l-4.97,2.64c0,0,1.34,4.72,6.41,7.77
	c4.23,2.56,9.27,3.12,12.38-2.03c1.72-2.84,0.3-6.5-1.48-8.98c-1.86-2.52-3.38-4.62-2.66-5.83c0.72-1.19,2.09-1.42,3.78-0.41
	c2.22,1.34,3.45,4.14,3.45,4.14l4.38-2.73C965.31,2116.93,963.77,2113.21,959.83,2110.84z"/>
<polygon style="&st1;" points="981.65,2124.54 969.26,2117.06 956.18,2138.71 968.57,2146.2 971.18,2141.87 963.73,2137.37 
	966.35,2133.01 973.48,2137.31 976.1,2132.98 968.98,2128.68 971.57,2124.37 979.02,2128.87 "/>
<path style="&st1;" d="M983.57,2138.92l3.45-5.73l1.39,0.83c1.94,1.17,3.38,2.92,2.03,5.16c-1.33,2.2-3.55,1.75-5.48,0.58
	L983.57,2138.92z M984.48,2126.25l-13.08,21.66l4.94,2.98l4.84-8.03l2.95,1.78c4.23,2.55,8.92,1.97,11.61-2.48
	c2.7-4.48,0.86-8.59-3.38-11.14L984.48,2126.25z"/>
<polygon style="&st1;" points="999.05,2152.75 1006.02,2156.96 1000.79,2165.64 1005.73,2168.63 1018.8,2146.97 1013.87,2143.99 
	1008.65,2152.63 1001.68,2148.43 1006.9,2139.79 1001.96,2136.8 988.88,2158.46 993.82,2161.44 "/>
<path style="&st1;" d="M1032.42,2172.93l-4.88-2.95l6.19-4.86l0.08,0.05l-1.42,7.75L1032.42,2172.93z M1040.12,2159.84l-4.58-2.77
	l-21.81,16.39l5.27,3.17l4.22-3.36l8.27,5l-1,5.3l5.3,3.19l4.31-26.94L1040.12,2159.84z"/>
<polygon style="&st1;" points="1049.65,2176.81 1049.7,2176.84 1050.2,2195.47 1055.13,2198.45 1068.21,2176.8 1063.27,2173.81 
	1055.15,2187.25 1055.07,2187.2 1054.59,2168.58 1049.68,2165.61 1036.6,2187.27 1041.54,2190.25 "/>
<path style="&st1;" d="M1065.89,2198.91l7.73-12.83l0.75,0.45c3.67,2.22,4.48,6.53,2.3,10.16c-2.2,3.59-6.38,4.88-10.03,2.67
	L1065.89,2198.91z M1071.36,2178.7l-13.08,21.66l6.28,3.78c5.94,3.59,13.62,2.08,17.45-4.23c3.8-6.31,1.55-13.84-4.38-17.42
	L1071.36,2178.7z"/>
<polygon style="&st1;" points="1093.18,2191.88 1093.96,2208.63 1088.11,2218.35 1093.03,2221.32 1098.89,2211.6 1114.09,2204.49 
	1108.15,2200.89 1099.45,2205.1 1099.11,2195.44 1093.17,2191.85 "/>
<path style="&st1;" d="M1112.7,2218.42c1.95-3.25,5.69-5.39,9.48-3.09c3.84,2.31,3.62,6.58,1.67,9.83c-1.95,3.22-5.5,5.45-9.45,3.08
	C1110.37,2225.8,1110.74,2221.64,1112.7,2218.42z M1107.38,2215.2c-3.83,6.31-2.27,13.95,4.12,17.81
	c6.22,3.75,13.86,1.67,17.69-4.64c3.81-6.33,1.88-14.16-4.14-17.8C1119.1,2206.98,1111.2,2208.88,1107.38,2215.2z"/>
<polygon style="&st1;" points="1134.99,2234.82 1141.96,2239.02 1136.73,2247.71 1141.66,2250.69 1154.74,2229.04 1149.8,2226.05 
	1144.59,2234.69 1137.62,2230.49 1142.84,2221.85 1137.9,2218.86 1124.82,2240.52 1129.76,2243.5 "/>
<path style="&st1;" d="M1174.53,2240.98l-4.94-2.98l-7.56,12.52c-2.19,3.62-3.92,4-6.33,2.55c-2.42-1.45-2.89-3.17-0.7-6.8
	l7.56-12.52l-4.94-2.97l-8.44,13.97c-3.23,5.34-1.94,9.84,3.58,13.17s10.09,2.38,13.33-2.97L1174.53,2240.98z"/>
<path style="&st1;" d="M1176.56,2255.31l3.41-5.66l0.58,0.34c1.86,1.12,4.03,2.58,2.39,5.3c-1.64,2.7-3.94,1.48-5.8,0.36
	L1176.56,2255.31z M1177.42,2242.72l-13.08,21.66l4.94,2.98l5.17-8.56l1.44,12.55l6.27,3.78l-2.05-13.44
	c3.16,0.75,6.27-0.34,8.22-3.59c2.56-4.25,0.86-8.28-3.16-10.7L1177.42,2242.72z"/>
<path style="&st1;" d="M1212.87,2264.12l-4.94-2.98l-7.56,12.52c-2.19,3.62-3.92,4-6.33,2.55c-2.42-1.45-2.89-3.17-0.7-6.8
	l7.56-12.52l-4.94-2.97l-8.44,13.97c-3.23,5.34-1.94,9.84,3.58,13.17s10.09,2.38,13.33-2.97L1212.87,2264.12z"/>
<polygon style="&st1;" points="1224.21,2300.52 1229.65,2303.8 1248.91,2285.88 1243.46,2282.59 1230.79,2295.21 1230.63,2295.12 
	1235.66,2277.88 1231.96,2275.65 1219.05,2288.13 1218.9,2288.04 1224.16,2270.95 1218.68,2267.63 1211.8,2293.02 1217.26,2296.32 
	1228.09,2286.29 "/>
<rect x="1243.15" y="2286.27" transform="matrix(0.8558 0.5173 -0.5173 0.8558 1368.8447 -313.0803)" style="&st1;" width="5.77" height="25.3"/>
<polygon style="&st1;" points="1263.14,2294.47 1258.2,2291.49 1245.12,2313.14 1257.51,2320.63 1260.12,2316.3 1252.67,2311.8 "/>
<polygon style="&st1;" points="1277.95,2303.41 1273.02,2300.43 1259.94,2322.09 1272.33,2329.57 1274.94,2325.24 1267.48,2320.74 
	"/>
<rect x="1280.87" y="2309.04" transform="matrix(0.8558 0.5173 -0.5173 0.8558 1386.0646 -329.312)" style="&st1;" width="5.77" height="25.3"/>
<path style="&st1;" d="M1299.22,2334l-4.88-2.95l6.19-4.86l0.08,0.05l-1.42,7.75L1299.22,2334z M1306.93,2320.9l-4.58-2.77
	l-21.81,16.39l5.27,3.17l4.22-3.36l8.27,5l-1,5.3l5.3,3.19l4.31-26.94L1306.93,2320.9z"/>
<polygon style="&st1;" points="1321.29,2359.12 1326.23,2362.11 1337.36,2339.26 1332.12,2336.11 1319.76,2345.71 1322.48,2330.29 
	1317.28,2327.14 1302.25,2347.62 1307.15,2350.59 1315.93,2338.37 1316.09,2338.48 1312.84,2353.84 1315.76,2355.59 
	1327.87,2345.59 1328.03,2345.68 "/>
<path style="&st1;" d="M1348.98,2345.76c-3.48-2.11-8.62-1.69-11.06,2.34c-1.36,2.27-1.05,5.2,0.77,8.05s3.67,4.95,2.72,6.53
	c-1.22,2.02-3.33,0.89-4.39,0.25c-2.42-1.47-3.83-5.64-3.83-5.64l-4.97,2.64c0,0,1.34,4.72,6.41,7.77
	c4.23,2.56,9.27,3.12,12.38-2.03c1.72-2.84,0.3-6.5-1.48-8.98c-1.86-2.52-3.38-4.62-2.66-5.83c0.72-1.19,2.09-1.42,3.78-0.41
	c2.22,1.34,3.45,4.14,3.45,4.14l4.38-2.73C1354.46,2351.85,1352.92,2348.13,1348.98,2345.76z"/>
<polygon style="&st1;" points="1082.58,2227.99 1074.1,2242.04 1088.8,2250.91 1113.13,2265.6 1114.23,2266.26 1127.83,2274.47 
	1142.92,2283.58 1153.25,2289.82 1183.05,2307.8 1222.08,2331.37 1235.09,2339.22 1274.12,2362.78 1275.21,2363.45 1288.82,2371.66 
	1289.92,2372.32 1314.24,2387 1328.95,2395.88 1337.43,2381.84 1322.72,2372.96 1298.39,2358.27 1297.3,2357.61 1283.69,2349.4 
	1282.59,2348.73 1243.57,2325.17 1230.55,2317.32 1191.52,2293.76 1161.73,2275.77 1151.4,2269.54 1136.31,2260.43 1122.71,2252.21 
	1121.61,2251.55 1097.28,2236.86 "/>
<polygon style="&st3;" points="815.15,2070.32 818.54,2072.37 811.65,2083.79 814.9,2085.76 821.79,2074.34 825.18,2076.39 
	827.04,2073.31 817.01,2067.25 "/>
<path style="&st3;" d="M839.2,2080.64l-3.25-1.95l-5.05,8.38c-1.44,2.38-2.53,2.5-4.12,1.55c-1.59-0.97-1.95-1.98-0.52-4.36
	l5.05-8.38l-3.25-1.95l-5.62,9.33c-2.12,3.53-1.34,6.59,2.28,8.78c3.64,2.19,6.73,1.47,8.86-2.06L839.2,2080.64z"/>
<polygon style="&st3;" points="849.35,2086.77 841.1,2081.79 832.35,2096.29 835.6,2098.26 839.05,2092.54 843.66,2095.32 
	845.54,2092.23 840.93,2089.45 842.49,2086.84 847.49,2089.85 "/>
<polygon style="&st3;" points="847.29,2089.73 850.68,2091.77 843.79,2103.2 847.04,2105.16 853.93,2093.74 857.32,2095.79 
	859.18,2092.71 849.15,2086.65 "/>
<path style="&st3;" d="M865.79,2096.33c-2.3-1.38-5.77-0.98-7.38,1.69c-0.89,1.5-0.75,3.52,0.45,5.39l0.02-0.03
	c1.19,1.88,2.47,3.2,1.83,4.25c-0.8,1.33-2.11,0.45-2.81,0.02c-1.59-0.95-2.66-3.53-2.66-3.53l0.09-0.14l-3.27,1.77l-0.09,0.16
	c0,0,0.86,3.12,4.2,5.14c2.78,1.67,6.16,1.94,8.22-1.47c1.12-1.86,0.28-4.38-0.91-6.02c-1.2-1.67-2.3-2.94-1.81-3.73
	c0.47-0.78,1.31-0.83,2.42-0.16c1.47,0.89,2.31,2.69,2.31,2.69l2.88-1.81C869.29,2100.53,868.39,2097.91,865.79,2096.33z"/>
<path style="&st3;" d="M887.7,2109.92l-3.25-1.95l-5.05,8.38c-1.44,2.38-2.53,2.5-4.12,1.55c-1.59-0.97-1.95-1.98-0.52-4.36
	l5.05-8.38l-3.25-1.95l-5.62,9.33c-2.12,3.53-1.34,6.59,2.28,8.78c3.64,2.19,6.73,1.47,8.86-2.06L887.7,2109.92z"/>
<polygon style="&st3;" points="889.46,2118.66 889.51,2118.7 889.82,2130.99 893.06,2132.95 901.81,2118.45 898.56,2116.49 
	893.21,2125.35 893.15,2125.3 892.81,2113.01 889.61,2111.07 880.86,2125.57 884.11,2127.54 "/>
<polygon style="&st3;" points="907.16,2121.67 903.91,2119.7 895.16,2134.2 898.41,2136.17 "/>
<polygon style="&st3;" points="903.46,2139.21 905.98,2140.75 920.79,2129.9 917.18,2127.73 907.76,2135.06 909.84,2123.29 
	906.18,2121.07 903.49,2139.25 "/>
<polygon style="&st3;" points="929.47,2135.15 921.31,2130.21 912.56,2144.71 920.72,2149.65 922.58,2146.57 917.67,2143.6 
	919.27,2140.96 923.97,2143.8 925.84,2140.71 921.14,2137.87 922.7,2135.26 927.61,2138.23 "/>
<path style="&st3;" d="M930.29,2144.44l2.19-3.62l0.38,0.22c1.23,0.75,2.72,1.61,1.64,3.41c-1.08,1.77-2.52,0.84-3.75,0.09
	l-0.38-0.22L930.29,2144.44z M930.87,2136.14l-8.69,14.38l3.25,1.97l3.42-5.67l0.95,8.31l4.28,2.58l-1.38-8.92
	c1.95,0.47,4.05-0.38,5.34-2.52c1.69-2.81,0.61-5.56-2.03-7.17l-5.09-3.08L930.87,2136.14z"/>
<path style="&st3;" d="M948.48,2146.24c-2.3-1.38-5.77-0.98-7.38,1.69c-0.89,1.5-0.75,3.52,0.45,5.39l0.02-0.03
	c1.19,1.88,2.47,3.2,1.83,4.25c-0.8,1.33-2.11,0.45-2.81,0.02c-1.59-0.95-2.66-3.53-2.66-3.53l0.09-0.14l-3.27,1.77l-0.09,0.16
	c0,0,0.86,3.12,4.2,5.14c2.78,1.67,6.16,1.94,8.22-1.47c1.12-1.86,0.28-4.38-0.91-6.02c-1.2-1.67-2.3-2.94-1.81-3.73
	c0.47-0.78,1.31-0.83,2.42-0.16c1.47,0.89,2.31,2.69,2.31,2.69l2.88-1.81C951.98,2150.45,951.07,2147.82,948.48,2146.24z"/>
<polygon style="&st3;" points="957.37,2151.98 954.12,2150.02 945.37,2164.52 948.62,2166.48 "/>
<polygon style="&st3;" points="955.85,2155.26 959.24,2157.31 952.35,2168.73 955.6,2170.7 962.49,2159.28 965.88,2161.32 
	967.74,2158.25 957.71,2152.18 "/>
<polygon style="&st3;" points="967.25,2158.2 967.77,2169.25 963.88,2175.69 967.13,2177.66 971.02,2171.22 981.25,2166.41 
	977.24,2163.98 971.47,2166.77 971.24,2160.36 967.22,2157.94 "/>
<polygon style="&st3;" points="1119.76,2250.01 1111.51,2245.03 1102.76,2259.53 1106.01,2261.5 1109.46,2255.78 1114.07,2258.56 
	1115.95,2255.46 1111.34,2252.68 1112.9,2250.07 1117.9,2253.09 "/>
<path style="&st3;" d="M1122.89,2263.59l-3.2-1.94l3.89-3.03l0.11,0.08l-0.86,4.84L1122.89,2263.59z M1127.95,2254.95l-2.94-1.76
	l-14.59,10.97l3.44,2.08l2.8-2.22l5.52,3.33l-0.67,3.5l3.48,2.11l2.91-18.03L1127.95,2254.95z"/>
<polygon style="&st3;" points="1137.51,2260.73 1134.26,2258.76 1125.51,2273.26 1128.76,2275.23 "/>
<path style="&st3;" d="M1138.96,2270.41l2.19-3.62l0.38,0.22c1.23,0.75,2.72,1.61,1.64,3.41c-1.08,1.77-2.52,0.84-3.75,0.09
	l-0.38-0.22L1138.96,2270.41z M1139.54,2262.11l-8.69,14.38l3.25,1.97l3.42-5.67l0.95,8.31l4.28,2.58l-1.38-8.92
	c1.95,0.47,4.05-0.38,5.34-2.52c1.69-2.81,0.61-5.56-2.03-7.17l-5.09-3.08L1139.54,2262.11z"/>
<polygon style="&st3;" points="1160.25,2274.46 1152,2269.47 1143.25,2283.97 1146.5,2285.94 1149.96,2280.22 1154.57,2283 
	1156.44,2279.91 1151.83,2277.13 1153.39,2274.52 1158.39,2277.54 "/>
<polygon style="&st3;" points="1165.05,2277.36 1161.8,2275.39 1153.05,2289.89 1156.3,2291.86 "/>
<polygon style="&st3;" points="1175.3,2283.55 1167.14,2278.61 1158.39,2293.11 1166.55,2298.05 1168.41,2294.97 1163.5,2292 
	1165.1,2289.36 1169.8,2292.21 1171.68,2289.11 1166.97,2286.27 1168.54,2283.66 1173.44,2286.63 "/>
<polygon style="&st3;" points="1180.43,2286.64 1177.18,2284.68 1168.43,2299.18 1176.59,2304.11 1178.45,2301.04 1173.54,2298.07 
	"/>
<path style="&st3;" d="M1183.27,2304.02l5.05-8.36l0.48,0.3c2.44,1.47,3.05,4.22,1.53,6.72c-1.47,2.36-4.08,2.98-6.5,1.53l-0.48-0.3
	L1183.27,2304.02z M1186.89,2290.7l-8.69,14.38l4.12,2.5c3.94,2.38,9.06,1.27,11.58-2.91c2.52-4.16,1.08-9.23-2.83-11.59l-4.12-2.5
	L1186.89,2290.7z"/>
<path style="&st3;" d="M1215.43,2307.77l-3.25-1.95l-5.05,8.38c-1.44,2.37-2.53,2.5-4.12,1.55c-1.59-0.97-1.95-1.98-0.52-4.36
	l5.05-8.38l-3.25-1.95l-5.62,9.33c-2.12,3.53-1.34,6.59,2.28,8.78c3.64,2.19,6.73,1.47,8.86-2.06L1215.43,2307.77z"/>
<polygon style="&st3;" points="1217.2,2316.51 1217.25,2316.54 1217.56,2328.84 1220.79,2330.79 1229.54,2316.29 1226.29,2314.34 
	1220.95,2323.2 1220.89,2323.15 1220.54,2310.85 1217.34,2308.91 1208.59,2323.41 1211.84,2325.38 "/>
<polygon style="&st3;" points="1234.89,2319.52 1231.64,2317.55 1222.89,2332.05 1226.14,2334.02 "/>
<polygon style="&st3;" points="1231.2,2337.06 1233.71,2338.59 1248.52,2327.75 1244.91,2325.58 1235.49,2332.91 1237.57,2321.14 
	1233.91,2318.92 1231.23,2337.09 "/>
<polygon style="&st3;" points="1257.2,2332.99 1249.05,2328.05 1240.3,2342.55 1248.45,2347.49 1250.31,2344.41 1245.41,2341.45 
	1247,2338.8 1251.7,2341.65 1253.58,2338.55 1248.88,2335.71 1250.44,2333.1 1255.34,2336.07 "/>
<path style="&st3;" d="M1258.02,2342.29l2.19-3.62l0.38,0.22c1.23,0.75,2.72,1.61,1.64,3.41c-1.08,1.77-2.52,0.84-3.75,0.09
	l-0.38-0.22L1258.02,2342.29z M1258.6,2333.99l-8.69,14.38l3.25,1.97l3.42-5.67l0.95,8.31l4.28,2.58l-1.38-8.92
	c1.95,0.47,4.05-0.38,5.34-2.52c1.69-2.81,0.61-5.56-2.03-7.17l-5.09-3.08L1258.6,2333.99z"/>
<path style="&st3;" d="M1276.21,2344.09c-2.3-1.38-5.77-0.98-7.38,1.69c-0.89,1.5-0.75,3.52,0.45,5.39l0.02-0.03
	c1.19,1.88,2.47,3.2,1.83,4.25c-0.8,1.33-2.11,0.45-2.81,0.02c-1.59-0.95-2.66-3.53-2.66-3.53l0.09-0.14l-3.27,1.77l-0.09,0.16
	c0,0,0.86,3.12,4.2,5.14c2.78,1.67,6.16,1.94,8.22-1.47c1.12-1.86,0.28-4.38-0.91-6.02c-1.2-1.67-2.3-2.94-1.81-3.73
	c0.47-0.78,1.31-0.83,2.42-0.16c1.47,0.89,2.31,2.69,2.31,2.69l2.88-1.81C1279.71,2348.29,1278.8,2345.66,1276.21,2344.09z"/>
<polygon style="&st3;" points="1285.1,2349.83 1281.85,2347.86 1273.1,2362.36 1276.35,2364.33 "/>
<polygon style="&st3;" points="1283.58,2353.11 1286.97,2355.15 1280.08,2366.57 1283.33,2368.54 1290.22,2357.12 1293.61,2359.17 
	1295.47,2356.09 1285.44,2350.03 "/>
<polygon style="&st3;" points="1294.99,2356.05 1295.5,2367.09 1291.61,2373.53 1294.86,2375.5 1298.75,2369.06 1308.99,2364.25 
	1304.97,2361.83 1299.21,2364.61 1298.97,2358.2 1294.96,2355.78 "/>
<polygon style="&st1;" points="433.38,1903.98 438.69,1907.19 427.91,1925.06 433,1928.14 443.78,1910.27 449.09,1913.48 
	451.81,1909 436.09,1899.5 "/>
<path style="&st1;" d="M470.81,1920.46l-5.09-3.06l-7.81,12.92c-2.25,3.75-4.03,4.16-6.53,2.64c-2.5-1.5-2.97-3.28-0.72-7.03
	l7.81-12.92l-5.11-3.08l-8.72,14.42c-3.33,5.53-1.98,10.19,3.7,13.61c5.69,3.44,10.42,2.45,13.75-3.08L470.81,1920.46z"/>
<polygon style="&st1;" points="486.57,1929.98 473.79,1922.27 460.29,1944.62 473.07,1952.34 475.77,1947.88 468.09,1943.22 
	470.79,1938.72 478.15,1943.17 480.85,1938.7 473.49,1934.25 476.16,1929.81 483.85,1934.47 "/>
<path style="&st1;" d="M497.97,1936.33c-3.59-2.17-8.89-1.77-11.41,2.41c-1.41,2.33-1.09,5.38,0.78,8.34
	c1.86,2.91,3.8,5.08,2.81,6.7c-1.25,2.08-3.44,0.92-4.55,0.25c-2.48-1.5-3.94-5.83-3.94-5.83l-5.14,2.75c0,0,1.38,4.86,6.61,8.02
	c4.36,2.64,9.55,3.23,12.78-2.11c1.77-2.92,0.31-6.7-1.55-9.25c-1.89-2.62-3.45-4.8-2.7-6.05c0.73-1.2,2.12-1.44,3.84-0.41
	c2.31,1.41,3.59,4.3,3.59,4.3l4.5-2.83C503.61,1942.62,502.03,1938.78,497.97,1936.33z"/>
<path style="&st1;" d="M502.04,1963.61l7.98-13.25l0.78,0.48c3.8,2.28,4.64,6.73,2.38,10.48c-2.28,3.72-6.59,5.03-10.36,2.77
	L502.04,1963.61z M507.69,1942.73l-13.5,22.36l6.47,3.91c6.16,3.7,14.09,2.14,18.03-4.39c3.92-6.5,1.59-14.28-4.53-17.97
	L507.69,1942.73z"/>
<path style="&st1;" d="M531.09,1975.16l-5.05-3.03l6.42-5l0.05,0.03L531.09,1975.16z M539.03,1961.65l-4.7-2.84l-22.53,16.92
	l5.47,3.3l4.38-3.47l8.5,5.14l-1.06,5.45l5.47,3.31L539.03,1961.65z"/>
<polygon style="&st1;" points="544.03,1964.66 544.81,1981.98 538.77,1992 543.86,1995.08 549.91,1985.06 565.59,1977.69 
	559.47,1973.98 550.48,1978.33 550.16,1968.36 "/>
<path style="&st1;" d="M557.48,1995.39c-1.69-1.03-3.91-0.48-4.97,1.27c-0.86,1.42-0.52,3.11,0.62,4.23
	c-1.8,1.98-4.34,2.55-4.34,2.55l0.69,1.98c3.33-0.52,7.27-1.75,9.23-5.03C559.77,1998.64,559.23,1996.44,557.48,1995.39z"/>
<polygon style="&st1;" points="594.19,1994.95 581.27,1987.15 567.77,2009.51 572.87,2012.57 578.27,2003.61 585.51,2007.98 
	588.21,2003.51 580.98,1999.14 583.65,1994.7 591.48,1999.43 "/>
<polygon style="&st1;" points="609.4,2004.13 596.61,1996.41 583.11,2018.77 595.9,2026.49 598.6,2022.02 590.91,2017.37 
	593.61,2012.87 600.97,2017.32 603.68,2012.85 596.32,2008.4 598.99,2003.96 606.68,2008.62 "/>
<path style="&st1;" d="M606.29,2027.38l3.19-5.27l1.59,0.97c2.42,1.45,3.3,2.98,2.05,5.05c-1.06,1.77-2.81,1.67-5.23,0.22
	L606.29,2027.38z M612.14,2017.71l2.91-4.81l0.41,0.25c2.22,1.34,2.97,2.73,2.02,4.33c-1.14,1.88-2.72,1.81-4.92,0.48
	L612.14,2017.71z M612.32,2005.9l-13.5,22.36l8.47,5.11c4.64,2.81,8.86,1.88,11.09-1.81c2.17-3.59,1.11-6.34-1.38-8.5
	c2.48,0.16,4.44-1.06,5.67-3.12c2.58-4.25,0.42-7.53-3.42-9.84L612.32,2005.9z"/>
<path style="&st1;" d="M629.46,2029.79l3.53-5.86l0.59,0.38c1.94,1.16,4.16,2.67,2.47,5.47c-1.67,2.78-4.06,1.55-6,0.39
	L629.46,2029.79z M630.36,2016.79l-13.5,22.36l5.09,3.06l5.33-8.83l1.48,12.95l6.48,3.91l-2.12-13.89c3.27,0.81,6.47-0.33,8.5-3.69
	c2.66-4.41,0.88-8.55-3.27-11.05L630.36,2016.79z"/>
<path style="&st1;" d="M666.94,2038.86l-5.09-3.06l-7.81,12.92c-2.25,3.75-4.03,4.16-6.53,2.64c-2.5-1.5-2.97-3.28-0.72-7.03
	l7.81-12.92l-5.11-3.08l-8.72,14.42c-3.33,5.53-1.98,10.19,3.7,13.61c5.69,3.44,10.42,2.45,13.75-3.08L666.94,2038.86z"/>
<path style="&st1;" d="M673.34,2061.03l-5.05-3.03l6.42-5l0.05,0.03L673.34,2061.03z M681.27,2047.52l-4.7-2.84l-22.53,16.92
	l5.47,3.3l4.38-3.47l8.5,5.14l-1.06,5.45l5.47,3.31L681.27,2047.52z"/>
<path style="&st1;" d="M690.23,2066.48l3.53-5.86l0.59,0.38c1.94,1.16,4.16,2.67,2.47,5.47c-1.67,2.78-4.06,1.55-6,0.39
	L690.23,2066.48z M691.14,2053.48l-13.5,22.36l5.09,3.06l5.33-8.83l1.48,12.95l6.48,3.91l-2.12-13.89c3.27,0.81,6.47-0.33,8.5-3.69
	c2.66-4.41,0.88-8.55-3.27-11.05L691.14,2053.48z"/>
<polygon style="&st1;" points="705.68,2062.24 706.46,2079.57 700.42,2089.59 705.51,2092.66 711.56,2082.65 727.25,2075.27 
	721.12,2071.57 712.14,2075.91 711.81,2065.95 "/>
<polygon style="&st1;" points="729.11,2088.89 734.22,2088.75 724.81,2104.32 729.91,2107.39 743.41,2085.04 741,2083.57 
	732.14,2083.85 "/>
<path style="&st1;" d="M744.15,2100.75c2.72-4.5,5.78-6.22,8.25-4.73c2.44,1.47,2.38,4.98-0.36,9.5c-2.91,4.81-5.78,6.19-8.22,4.72
	C741.35,2108.75,741.24,2105.57,744.15,2100.75z M739,2097.64c-5,8.28-2.69,14.17,2.11,17.06c4.8,2.89,11.05,2.19,16.05-6.09
	c4.67-7.75,2.73-14.17-2.06-17.06C750.3,2088.66,743.68,2089.89,739,2097.64z"/>
<path style="&st1;" d="M768.85,2121.09c1.2-1.98,3.61-2.53,5.48-1.41c1.91,1.16,2.56,3.55,1.36,5.53c-1.19,1.95-3.53,2.52-5.5,1.33
	C768.21,2125.36,767.66,2123.04,768.85,2121.09z M787.79,2111.82l-6.27-3.8l-9.05,3.09c-4.25,1.77-6.53,2.86-8.89,6.78
	c-2.59,4.28-0.7,9.95,4.31,12.98c4.05,2.44,9.67,2.67,12.88-2.61c3.12-5.19,0.67-10.27-2.39-12.12c-1.03-0.61-1.81-0.64-1.81-0.64
	L787.79,2111.82z"/>
<path style="&st1;" d="M785.46,2133.02c-1.69-1.03-3.91-0.48-4.97,1.27c-1.02,1.7-0.47,3.91,1.22,4.94c1.75,1.05,3.97,0.5,4.98-1.2
	C787.76,2136.27,787.21,2134.07,785.46,2133.02z M791.02,2123.8c-1.69-1.03-3.91-0.47-4.97,1.27c-1.03,1.72-0.47,3.92,1.22,4.95
	c1.75,1.05,3.95,0.5,4.98-1.22C793.32,2127.07,792.77,2124.85,791.02,2123.8z"/>
<path style="&st1;" d="M801.87,2129.12c0,0,2.2-2.42,5-0.73c1.45,0.88,2.16,2.7,1.3,4.12c-0.98,1.64-3.03,2.03-4.39,1.2l-1.11-0.67
	l-2.02,3.33c0,0,0.53,0.11,1.06,0.44c1.8,1.08,2.41,3.3,1.25,5.23c-1.14,1.88-3.12,2.11-5,0.98c-3.36-2.03-1.59-5.61-1.59-5.61
	l-6.11-0.55c0,0-1.8,6.41,5.08,10.56c4.8,2.91,10.14,1.95,12.73-2.31c1.42-2.38,1.33-4.75,0.23-6.86c1.78-0.22,3.41-1.16,4.52-3
	c2.28-3.78,0.83-8.36-3.42-10.94c-6.27-3.78-10.38,0.44-10.38,0.44L801.87,2129.12z"/>
<path style="&st1;" d="M817.35,2144.95c2.72-4.5,5.78-6.22,8.25-4.73c2.44,1.47,2.38,4.98-0.36,9.5c-2.91,4.81-5.78,6.19-8.22,4.72
	C814.55,2152.95,814.45,2149.76,817.35,2144.95z M812.21,2141.84c-5,8.28-2.69,14.17,2.11,17.06s11.05,2.19,16.05-6.09
	c4.67-7.75,2.73-14.17-2.06-17.06S816.88,2134.09,812.21,2141.84z"/>
<polygon style="&st1;" points="832,2155.5 829.5,2159.64 838.23,2164.91 840.73,2160.77 "/>
<path style="&st1;" d="M846.94,2168.72c1.02-1.67,2.94-2.11,4.55-1.14c1.56,0.95,2.12,2.89,1.11,4.56c-1,1.66-2.92,2.11-4.55,1.12
	C846.36,2172.25,845.94,2170.38,846.94,2168.72z M858.02,2162.36c-0.89,1.48-2.53,1.89-3.95,1.02c-1.39-0.84-1.92-2.53-1.03-4.02
	c0.86-1.42,2.59-1.88,4.05-1C858.53,2159.25,858.88,2160.94,858.02,2162.36z M863.28,2164.53c1.98-3.3-0.09-7.73-3.91-10.03
	c-3.69-2.22-8.8-2.14-10.78,1.16c-1.5,2.47-1.25,4.84-0.12,6.86c-2.88-0.33-5.7,0.64-7.53,3.69c-2.28,3.77,0.14,8.86,4.48,11.47
	c4.19,2.53,9.94,2.38,12.22-1.39c1.83-3.05,1.34-6-0.28-8.39C859.61,2167.91,861.78,2167,863.28,2164.53z"/>
<path style="&st1;" d="M863.17,2179.93c-1.69-1.03-3.91-0.48-4.97,1.27c-1.02,1.7-0.47,3.91,1.22,4.94c1.75,1.05,3.97,0.5,4.98-1.2
	C865.46,2183.18,864.92,2180.97,863.17,2179.93z M868.73,2170.71c-1.69-1.03-3.91-0.47-4.97,1.27c-1.03,1.72-0.47,3.92,1.22,4.95
	c1.75,1.05,3.95,0.5,4.98-1.22C871.03,2173.97,870.48,2171.75,868.73,2170.71z"/>
<path style="&st1;" d="M879.57,2176.03c0,0,2.2-2.42,5-0.73c1.45,0.88,2.16,2.7,1.3,4.12c-0.98,1.64-3.03,2.03-4.39,1.2l-1.11-0.67
	l-2.02,3.33c0,0,0.53,0.11,1.06,0.44c1.8,1.08,2.41,3.3,1.25,5.23c-1.14,1.88-3.12,2.11-5,0.98c-3.36-2.03-1.59-5.61-1.59-5.61
	l-6.11-0.55c0,0-1.8,6.41,5.08,10.56c4.8,2.91,10.14,1.95,12.73-2.31c1.42-2.38,1.33-4.75,0.23-6.86c1.78-0.22,3.41-1.16,4.52-3
	c2.28-3.78,0.83-8.36-3.42-10.94c-6.27-3.78-10.38,0.44-10.38,0.44L879.57,2176.03z"/>
<path style="&st1;" d="M895.06,2191.86c2.72-4.5,5.78-6.22,8.25-4.73c2.44,1.47,2.38,4.98-0.36,9.5c-2.91,4.81-5.78,6.19-8.22,4.72
	C892.26,2199.86,892.15,2196.67,895.06,2191.86z M889.92,2188.75c-5,8.28-2.69,14.17,2.11,17.06c4.8,2.89,11.05,2.19,16.05-6.09
	c4.67-7.75,2.73-14.17-2.06-17.06S894.59,2181,889.92,2188.75z"/>
<path style="&st1;" d="M916.27,2203.04l3.58-5.94l1.44,0.88c2,1.2,3.48,3.03,2.09,5.34c-1.38,2.27-3.67,1.8-5.67,0.59
	L916.27,2203.04z M917.22,2189.96l-13.5,22.36l5.09,3.06l5-8.3l3.06,1.86c4.36,2.62,9.2,2.05,11.97-2.56
	c2.81-4.64,0.89-8.88-3.47-11.5L917.22,2189.96z"/>
<polygon style="&st1;" points="940.24,2234.36 945.32,2237.42 956.82,2213.86 951.4,2210.58 938.65,2220.5 941.49,2204.59 
	936.07,2201.33 920.55,2222.48 925.66,2225.55 934.71,2212.94 934.85,2213.02 931.51,2228.89 934.54,2230.72 947.04,2220.38 
	947.18,2220.47 "/>
<path style="&st1;" d="M426.78,1940.07l-5.08-3.06l-8.91,14.75c-1.36,2.25-3,2.47-4.48,1.58c-1.3-0.78-1.95-3.28-1.95-3.28
	l-4.22,3.28c0,0,0.73,3.38,3.94,5.31c4.47,2.69,8.36,1.86,11.02-2.53L426.78,1940.07z"/>
<polygon style="&st1;" points="442.54,1949.6 429.76,1941.88 416.26,1964.24 429.04,1971.96 431.74,1967.49 424.06,1962.83 
	426.76,1958.33 434.12,1962.79 436.82,1958.32 429.46,1953.86 432.13,1949.43 439.82,1954.08 "/>
<path style="&st1;" d="M444.56,1964.36l3.53-5.86l0.59,0.38c1.94,1.16,4.16,2.67,2.47,5.47c-1.67,2.78-4.06,1.55-6,0.39
	L444.56,1964.36z M445.47,1951.36l-13.5,22.36l5.09,3.06l5.33-8.83l1.48,12.95l6.48,3.91l-2.12-13.89c3.27,0.81,6.47-0.33,8.5-3.69
	c2.66-4.41,0.88-8.55-3.27-11.05L445.47,1951.36z"/>
<path style="&st1;" d="M463.98,1976.08l3.53-5.86l0.59,0.38c1.94,1.16,4.16,2.67,2.47,5.47c-1.67,2.78-4.06,1.55-6,0.39
	L463.98,1976.08z M464.88,1963.08l-13.5,22.36l5.09,3.06l5.33-8.83l1.48,12.95l6.48,3.91l-2.12-13.89c3.27,0.81,6.47-0.33,8.5-3.69
	c2.66-4.41,0.88-8.55-3.27-11.05L464.88,1963.08z"/>
<polygon style="&st1;" points="479.43,1971.85 480.21,1989.18 474.16,1999.19 479.25,2002.27 485.3,1992.25 500.99,1984.88 
	494.86,1981.18 485.88,1985.52 485.55,1975.55 "/>
<polygon style="&st1;" points="506.21,2006.29 513.41,2010.65 508.01,2019.62 513.1,2022.7 526.6,2000.34 521.51,1997.26 
	516.12,2006.18 508.91,2001.82 514.31,1992.9 509.21,1989.84 495.71,2012.2 500.81,2015.26 "/>
<path style="&st1;" d="M522.92,2020.71c-1.69-1.03-3.91-0.48-4.97,1.27c-1.02,1.7-0.47,3.91,1.22,4.94c1.75,1.05,3.97,0.5,4.98-1.2
	C525.21,2023.96,524.67,2021.76,522.92,2020.71z"/>
<polygon style="&st1;" points="551.81,2015.54 546.71,2012.48 533.21,2034.84 546,2042.56 548.7,2038.09 541.01,2033.43 "/>
<path style="&st1;" d="M565.83,2042.32l-5.05-3.03l6.42-5l0.05,0.03L565.83,2042.32z M573.77,2028.81l-4.7-2.84l-22.53,16.92
	l5.47,3.3l4.38-3.47l8.5,5.14l-1.06,5.45l5.47,3.31L573.77,2028.81z"/>
<path style="&st1;" d="M577.6,2056.25l3.19-5.27l1.59,0.97c2.42,1.45,3.3,2.98,2.05,5.05c-1.06,1.77-2.81,1.67-5.23,0.22
	L577.6,2056.25z M583.45,2046.58l2.91-4.81l0.41,0.25c2.22,1.34,2.97,2.73,2.01,4.33c-1.14,1.88-2.72,1.81-4.92,0.48L583.45,2046.58
	z M583.64,2034.77l-13.5,22.36l8.47,5.11c4.64,2.81,8.86,1.88,11.09-1.81c2.17-3.59,1.11-6.34-1.38-8.5
	c2.48,0.16,4.44-1.06,5.67-3.12c2.58-4.25,0.42-7.53-3.42-9.84L583.64,2034.77z"/>
<path style="&st1;" d="M599.42,2059.55c2.02-3.33,5.84-5.56,9.78-3.19c3.95,2.39,3.73,6.8,1.72,10.12c-2.02,3.33-5.69,5.67-9.75,3.2
	C597,2067.18,597.41,2062.88,599.42,2059.55z M593.92,2056.22c-3.94,6.53-2.34,14.41,4.27,18.39c6.42,3.88,14.3,1.73,18.23-4.8
	c3.94-6.52,1.95-14.61-4.25-18.36C606.02,2047.75,597.86,2049.71,593.92,2056.22z"/>
<polygon style="&st1;" points="628.22,2092.19 633.86,2095.59 653.72,2077.08 648.09,2073.67 635.02,2086.72 634.88,2086.64 
	640.08,2068.84 636.22,2066.52 622.89,2079.41 622.75,2079.31 628.2,2061.67 622.55,2058.25 615.41,2084.45 621.08,2087.88 
	632.23,2077.48 "/>
<polygon style="&st1;" points="660.04,2080.88 654.94,2077.82 641.44,2100.18 646.54,2103.24 "/>
<polygon style="&st1;" points="657.85,2085.69 663.16,2088.89 652.38,2106.77 657.48,2109.84 668.26,2091.97 673.57,2095.19 
	676.29,2090.7 660.57,2081.2 "/>
<polygon style="&st1;" points="696.89,2103.13 678.48,2092.04 675.77,2096.52 685.25,2102.24 663.41,2113.44 682.64,2125.05 
	685.34,2120.58 675.02,2114.33 "/>
<polygon style="&st1;" points="700.91,2111.68 706.22,2114.88 695.44,2132.76 700.53,2135.84 711.31,2117.96 716.62,2121.18 
	719.34,2116.7 703.62,2107.2 "/>
<polygon style="&st1;" points="718.17,2134.25 725.37,2138.61 719.96,2147.57 725.06,2150.65 738.56,2128.29 733.46,2125.21 
	728.07,2134.14 720.87,2129.78 726.26,2120.86 721.17,2117.79 707.67,2140.15 712.76,2143.21 "/>
<polygon style="&st1;" points="754.58,2137.97 741.8,2130.25 728.3,2152.61 741.08,2160.33 743.78,2155.86 736.09,2151.2 
	738.8,2146.7 746.16,2151.16 748.86,2146.69 741.5,2142.23 744.17,2137.8 751.86,2142.45 "/>
<path style="&st1;" d="M761.07,2160.19l-5.05-3.03l6.42-5l0.05,0.03L761.07,2160.19z M769.01,2146.67l-4.7-2.84l-22.53,16.92
	l5.47,3.3l4.38-3.47l8.5,5.14l-1.06,5.45l5.47,3.31L769.01,2146.67z"/>
<polygon style="&st1;" points="773.43,2155.46 778.74,2158.66 767.96,2176.54 773.06,2179.62 783.84,2161.74 789.15,2164.96 
	791.87,2160.48 776.15,2150.98 "/>
<path style="&st1;" d="M792.78,2174.57l3.53-5.86l0.59,0.38c1.94,1.16,4.16,2.67,2.47,5.47c-1.67,2.78-4.06,1.55-6,0.39
	L792.78,2174.57z M793.69,2161.57l-13.5,22.36l5.09,3.06l5.33-8.83l1.48,12.95l6.48,3.91l-2.12-13.89c3.27,0.81,6.47-0.33,8.5-3.69
	c2.66-4.41,0.88-8.55-3.27-11.05L793.69,2161.57z"/>
<polygon style="&st1;" points="825.88,2181.01 813.1,2173.29 799.6,2195.65 812.38,2203.37 815.09,2198.9 807.4,2194.25 
	810.1,2189.75 817.46,2194.2 820.16,2189.73 812.8,2185.28 815.48,2180.84 823.16,2185.5 "/>
<polygon style="&st1;" points="409.55,1975.87 396.63,1968.07 383.13,1990.43 388.22,1993.49 393.63,1984.52 400.86,1988.9 
	403.57,1984.43 396.33,1980.05 399,1975.62 406.83,1980.35 "/>
<path style="&st1;" d="M409.72,1991.22c2.02-3.33,5.84-5.56,9.78-3.19c3.95,2.39,3.73,6.8,1.72,10.12c-2.02,3.33-5.69,5.67-9.75,3.2
	C407.3,1998.84,407.7,1994.55,409.72,1991.22z M404.22,1987.89c-3.94,6.53-2.34,14.41,4.27,18.39c6.42,3.88,14.3,1.73,18.23-4.8
	c3.94-6.52,1.95-14.61-4.25-18.36C416.31,1979.42,408.16,1981.38,404.22,1987.89z"/>
<path style="&st1;" d="M434.81,2004.67l3.53-5.86l0.59,0.38c1.94,1.16,4.16,2.67,2.47,5.47c-1.67,2.78-4.06,1.55-6,0.39
	L434.81,2004.67z M435.72,1991.67l-13.5,22.36l5.09,3.06l5.33-8.83l1.48,12.95l6.48,3.91l-2.12-13.89c3.27,0.81,6.47-0.33,8.5-3.69
	c2.66-4.41,0.88-8.55-3.27-11.05L435.72,1991.67z"/>
<polygon style="&st1;" points="457.09,2010.68 462.4,2013.89 451.62,2031.76 456.71,2034.84 467.5,2016.96 472.81,2020.18 
	475.53,2015.7 459.81,2006.2 "/>
<polygon style="&st1;" points="474.35,2033.25 481.55,2037.61 476.15,2046.58 481.24,2049.66 494.74,2027.3 489.65,2024.22 
	484.25,2033.14 477.05,2028.78 482.44,2019.86 477.35,2016.8 463.85,2039.16 468.94,2042.22 "/>
<polygon style="&st1;" points="510.76,2036.97 497.98,2029.25 484.48,2051.61 497.26,2059.33 499.96,2054.86 492.27,2050.2 
	494.98,2045.7 502.34,2050.16 505.04,2045.69 497.68,2041.23 500.35,2036.8 508.04,2041.45 "/>
<path style="&st1;" d="M520.14,2056.29l3.58-5.94l1.44,0.88c2,1.2,3.48,3.03,2.09,5.34c-1.38,2.27-3.67,1.8-5.67,0.59
	L520.14,2056.29z M521.09,2043.21l-13.5,22.36l5.09,3.06l5-8.3l3.06,1.86c4.36,2.62,9.2,2.05,11.97-2.56
	c2.81-4.64,0.89-8.88-3.47-11.5L521.09,2043.21z"/>
<polygon style="&st1;" points="551.91,2061.81 539.13,2054.09 525.63,2076.45 538.41,2084.17 541.11,2079.7 533.43,2075.05 
	536.13,2070.55 543.49,2075 546.19,2070.53 538.83,2066.08 541.5,2061.64 549.19,2066.3 "/>
<path style="&st1;" d="M553.93,2076.58l3.53-5.86l0.59,0.38c1.94,1.16,4.16,2.67,2.47,5.47c-1.67,2.78-4.06,1.55-6,0.39
	L553.93,2076.58z M554.84,2063.58l-13.5,22.36l5.09,3.06l5.33-8.83l1.48,12.95l6.48,3.91l-2.12-13.89c3.27,0.81,6.47-0.33,8.5-3.69
	c2.66-4.41,0.88-8.55-3.27-11.05L554.84,2063.58z"/>
<polygon style="&st1;" points="587.18,2083.09 574.25,2075.3 560.75,2097.66 565.85,2100.72 571.25,2091.75 578.49,2096.12 
	581.19,2091.66 573.96,2087.28 576.63,2082.84 584.46,2087.58 "/>
<path style="&st1;" d="M587.34,2098.45c2.02-3.33,5.84-5.56,9.78-3.19c3.95,2.39,3.73,6.8,1.72,10.12c-2.02,3.33-5.69,5.67-9.75,3.2
	C584.92,2106.07,585.33,2101.78,587.34,2098.45z M581.84,2095.12c-3.94,6.53-2.34,14.41,4.27,18.39c6.42,3.88,14.3,1.73,18.23-4.8
	c3.94-6.52,1.95-14.61-4.25-18.36C593.94,2086.65,585.78,2088.61,581.84,2095.12z"/>
<path style="&st1;" d="M612.44,2111.89l3.53-5.86l0.59,0.38c1.94,1.16,4.16,2.67,2.47,5.47c-1.67,2.78-4.06,1.55-6,0.39
	L612.44,2111.89z M613.34,2098.89l-13.5,22.36l5.09,3.06l5.33-8.83l1.48,12.95l6.48,3.91l-2.12-13.89c3.27,0.81,6.47-0.33,8.5-3.69
	c2.66-4.41,0.88-8.55-3.27-11.05L613.34,2098.89z"/>
<polygon style="&st1;" points="637.74,2144.13 642.82,2147.19 654.32,2123.63 648.9,2120.35 636.15,2130.27 638.99,2114.36 
	633.57,2111.1 618.06,2132.25 623.16,2135.32 632.21,2122.71 632.35,2122.79 629.01,2138.66 632.04,2140.49 644.54,2130.14 
	644.68,2130.24 "/>
<polygon style="&st1;" points="663.45,2129.13 658.36,2126.07 644.86,2148.43 649.95,2151.49 "/>
<polygon style="&st1;" points="666.69,2142.66 666.73,2142.71 667.25,2161.95 672.34,2165.02 685.84,2142.66 680.75,2139.59 
	672.38,2153.46 672.31,2153.43 671.81,2134.18 666.72,2131.12 653.22,2153.48 658.31,2156.54 "/>
<path style="&st1;" d="M703.36,2166.66l-10.31-6.22l-2.38,3.92l5.14,3.09c-1.66,2.75-5.02,2.86-7.45,1.39
	c-3.14-1.89-3.81-6.52-1.53-10.3c2.34-3.88,6.77-5.47,9.91-3.58c1.98,1.2,3.2,3.02,3.23,5.89l5.55-1.62
	c-0.52-3.56-2.38-6.67-6.3-9.03c-6.28-3.8-14.02-1.41-17.89,5.02c-3.86,6.39-2.11,14.5,3.91,18.14c4.39,2.64,10.56,3.08,15.19-1.86
	L703.36,2166.66z"/>
<path style="&st1;" d="M722.33,2182.99l-5.05-3.03l6.42-5l0.05,0.03L722.33,2182.99z M730.27,2169.48l-4.7-2.84l-22.53,16.92
	l5.47,3.3l4.38-3.47l8.5,5.14l-1.06,5.45l5.47,3.31L730.27,2169.48z"/>
<path style="&st1;" d="M739.23,2188.44l3.53-5.86l0.59,0.38c1.94,1.16,4.16,2.67,2.47,5.47c-1.67,2.78-4.06,1.55-6,0.39
	L739.23,2188.44z M740.14,2175.44l-13.5,22.36l5.09,3.06l5.33-8.83l1.48,12.95l6.48,3.91L742.9,2195c3.27,0.81,6.47-0.33,8.5-3.69
	c2.66-4.41,0.88-8.55-3.26-11.05L740.14,2175.44z"/>
<polygon style="&st1;" points="754.37,2190.14 759.68,2193.35 748.9,2211.22 753.99,2214.3 764.77,2196.43 770.09,2199.64 
	772.81,2195.16 757.09,2185.66 "/>
<path style="&st1;" d="M783.09,2200.84c-3.59-2.17-8.89-1.77-11.41,2.41c-1.41,2.33-1.09,5.38,0.78,8.34
	c1.86,2.91,3.8,5.08,2.81,6.7c-1.25,2.08-3.44,0.92-4.55,0.25c-2.48-1.5-3.94-5.83-3.94-5.83l-5.14,2.75c0,0,1.38,4.86,6.61,8.02
	c4.36,2.64,9.55,3.23,12.78-2.11c1.77-2.92,0.31-6.7-1.55-9.25c-1.89-2.62-3.45-4.8-2.7-6.05c0.73-1.2,2.12-1.44,3.84-0.41
	c2.31,1.41,3.59,4.3,3.59,4.3l4.5-2.83C788.73,2207.13,787.16,2203.29,783.09,2200.84z"/>
<path style="&st1;" d="M182.04,79.56l-3.07,31.99c-0.02,0.27,0.12,0.43,0.35,0.46c0.03,0,0.07,0,0.11,0v0l5.72-0.58
	c0.31-0.02,0.64-0.35,0.66-0.66l1.44-15l0.68-7.18l0.81-8.38L182.04,79.56"/>
<path style="&st1;" d="M226.96,83.87l-3.27-0.31l-0.64,6.7l1.84,0.18c0.31,0.04,0.69-0.22,0.78-0.52l1.66-5.51
	c0.01-0.04,0.02-0.07,0.02-0.1C227.35,84.07,227.23,83.9,226.96,83.87"/>
<polyline style="&st1;" points="206.46,81.9 205.81,88.6 215.39,89.52 216.03,82.82 206.46,81.9 "/>
<path style="&st1;" d="M219.56,100.55l-23.37-2.24l-0.65,6.7l21.94,2.1c0.31,0.04,0.7-0.22,0.78-0.52l1.66-5.51
	c0.01-0.04,0.02-0.07,0.02-0.1C219.96,100.75,219.83,100.59,219.56,100.55"/>
<path style="&st1;" d="M194.71,108.71l1.14-11.89l-6.7-0.64l-1,10.45c-0.04,0.31,0.21,0.7,0.52,0.78l5.51,1.66
	c0.04,0.01,0.07,0.02,0.1,0.02C194.51,109.11,194.67,108.98,194.71,108.71"/>
<path style="&st1;" d="M178.28,55.16l-1.66,5.51c-0.01,0.04-0.02,0.07-0.02,0.1c-0.02,0.23,0.11,0.4,0.38,0.43l23.52,2.25l0.65-6.7
	l-22.08-2.12C178.74,54.6,178.36,54.85,178.28,55.16"/>
<path style="&st1;" d="M230.25,99.14l-0.59-5.72c-0.02-0.31-0.35-0.64-0.66-0.66l-14.76-1.41l-0.64,6.7l16.2,1.55
	c0.27,0.02,0.43-0.12,0.46-0.35C230.26,99.21,230.26,99.18,230.25,99.14"/>
<polyline style="&st1;" points="188.4,88.87 187.75,95.57 205.94,97.31 206.59,90.61 188.4,88.87 "/>
<path style="&st1;" d="M225.22,62.52c0.03-0.31-0.22-0.69-0.52-0.77l-5.51-1.66c-0.03-0.01-0.07-0.02-0.1-0.02
	c-0.23-0.02-0.4,0.11-0.43,0.38l-2.79,29.12l6.7,0.65L225.22,62.52"/>
<polyline style="&st1;" points="207.2,89.22 206.42,97.35 213.12,98 213.91,89.86 207.2,89.22 "/>
<path style="&st1;" d="M208.54,55.13c0.04-0.31-0.22-0.69-0.52-0.78l-5.51-1.66c-0.03-0.01-0.07-0.02-0.1-0.02
	c-0.23-0.01-0.4,0.11-0.43,0.38l-1.14,11.89l6.7,0.64L208.54,55.13"/>
<path style="&st1;" d="M171.02,71.85l-1.66,5.51c-0.01,0.03-0.02,0.07-0.02,0.1c-0.02,0.23,0.11,0.4,0.38,0.43l3.27,0.31l0.64-6.7
	l-1.83-0.18C171.49,71.3,171.1,71.55,171.02,71.85"/>
<polyline style="&st1;" points="181.29,72.25 180.65,78.95 190.23,79.86 190.87,73.16 181.29,72.25 "/>
<path style="&st1;" d="M178.02,101.32l2.79-29.12l-6.7-0.64l-2.65,27.69c-0.04,0.31,0.22,0.69,0.52,0.77l5.51,1.66
	c0.04,0.01,0.07,0.02,0.1,0.02C177.82,101.71,177.99,101.59,178.02,101.32"/>
<path style="&st1;" d="M166.29,62.51c0,0.03,0,0.07,0,0.1l0.59,5.72c0.02,0.32,0.35,0.64,0.66,0.66l14.91,1.43l0.64-6.7l-16.34-1.57
	C166.47,62.14,166.32,62.27,166.29,62.51"/>
<polyline style="&st1;" points="190.74,64.45 190.09,71.16 208.29,72.9 208.93,66.2 190.74,64.45 "/>
<polyline style="&st1;" points="183.56,63.77 182.77,71.9 189.48,72.55 190.26,64.41 183.56,63.77 "/>
<polyline style="&st1;" points="200.1,72.6 198.63,87.92 205.34,88.56 206.8,73.24 200.1,72.6 "/>
<polyline style="&st1;" points="190.68,80.15 189.88,88.52 196.58,89.17 198.05,73.85 191.35,73.21 190.68,80.15 "/>
<path style="&st1;" d="M217.35,49.75c-0.03,0-0.07,0-0.1,0l-5.72,0.59c-0.32,0.02-0.64,0.35-0.66,0.66l-1.44,15l-0.69,7.18
	l-0.8,8.38l6.7,0.64l3.07-31.99C217.72,49.94,217.59,49.79,217.35,49.75"/>
<polyline style="&st1;" points="250.56,91.95 246.53,95.27 245.55,94.09 249.58,90.76 248.31,89.22 249.4,88.32 252.92,92.59 
	251.83,93.48 250.56,91.95 "/>
<polyline style="&st1;" points="251.01,100.71 253.07,99.01 251.44,97.04 249.39,98.74 248.41,97.55 253.53,93.32 254.51,94.51 
	252.5,96.17 254.12,98.14 256.13,96.48 257.11,97.67 251.99,101.9 251.01,100.71 "/>
<polyline style="&st1;" points="252.98,103.1 258.1,98.88 260.78,102.11 259.69,103.02 258,100.96 257.08,101.71 258.62,103.59 
	257.59,104.44 256.05,102.57 255.05,103.4 256.74,105.45 255.66,106.34 252.98,103.1 "/>
<polyline style="&st1;" points="236.53,116.68 242.4,111.84 237.75,106.22 231.89,111.05 229.09,107.66 243.71,95.6 246.51,98.99 
	240.79,103.71 245.43,109.34 251.15,104.62 253.94,108.01 239.33,120.07 236.53,116.68 "/>
<path style="&st1;" d="M246.74,129.54c-3.24-3.93-2.93-7.87,1.13-11.22l8.68-7.16l2.8,3.39l-8.44,6.96
	c-2.07,1.71-2.6,3.62-1.01,5.56c1.58,1.91,3.56,1.75,5.63,0.04l8.44-6.96l2.8,3.39l-8.68,7.16
	C254.02,134.06,249.98,133.47,246.74,129.54"/>
<polyline style="&st1;" points="264.43,150.48 271.46,144.38 262.99,144.56 262.69,144.2 264.44,135.89 257.15,141.67 254.45,138.4 
	269.73,126.93 270.15,127.36 267.25,140.88 280.94,140.44 281.28,140.93 267.14,153.78 264.43,150.48 "/>
<path style="&st1;" d="M277.23,166l1.75-3.29l-4.16-5.05l-3.56,1.09l-2.85-3.45l20.41-5.28l0.38,0.46l-9.06,19.04L277.23,166
	 M283,155.17l-4.71,1.44l2.38,2.89L283,155.17z"/>
<polyline style="&st1;" points="291.26,183.58 291.9,168.23 284.27,174.53 281.46,171.14 296.29,158.91 296.74,159.31 
	296.06,174.49 303.64,168.23 306.44,171.62 291.6,183.87 291.26,183.58 "/>
<rect x="301.08" y="173.21" transform="matrix(-0.6364 -0.7714 0.7714 -0.6364 355.3572 532.8788)" style="&st1;" width="4.39" height="18.95"/>
<polyline style="&st1;" points="316.9,190.65 305.4,200.14 302.6,196.75 314.1,187.26 310.48,182.87 313.6,180.3 323.63,192.47 
	320.52,195.04 316.9,190.65 "/>
<rect x="317.17" y="192.71" transform="matrix(-0.6368 -0.771 0.771 -0.6368 366.8541 577.1714)" style="&st1;" width="4.39" height="18.95"/>
<polyline style="&st1;" points="316.17,213.2 330.79,201.14 338.42,210.39 335.31,212.96 330.47,207.09 327.86,209.25 332.27,214.6 
	329.32,217.03 324.91,211.69 322.06,214.04 326.9,219.9 323.81,222.45 316.17,213.2 "/>
<path style="&st1;" d="M329.24,229.53c-1.37-1.66-2.35-4.19-2.57-6.16l3.85-1.6c0.11,1.89,0.82,3.88,1.96,5.26
	c0.98,1.2,1.92,1.2,2.64,0.6c0.76-0.62,0.97-1.43,0.02-4.41c-1.09-3.43-0.33-5.56,1.42-7.01c2.14-1.76,5.64-1.74,8.45,1.67
	c1.32,1.6,2.11,3.7,2.24,5.03l-3.74,1.65c-0.11-1.32-0.61-3.18-1.47-4.22c-1.02-1.23-2.01-1.26-2.61-0.77
	c-0.96,0.79-0.67,1.79,0.07,4.27c1.1,3.69,0.46,5.59-1.42,7.14C335.75,232.91,332.13,233.04,329.24,229.53"/>
<rect x="217.65" y="108.66" transform="matrix(-0.6363 -0.7714 0.7714 -0.6363 268.61 362.9084)" style="&st1;" width="4.4" height="18.95"/>
<polyline style="&st1;" points="226.44,141.59 227.09,126.25 219.45,132.55 216.65,129.16 231.47,116.93 231.93,117.32 
	231.25,132.5 238.82,126.25 241.62,129.64 226.79,141.88 226.44,141.59 "/>
<rect x="236.26" y="131.22" transform="matrix(-0.6363 -0.7714 0.7714 -0.6363 281.6631 414.1832)" style="&st1;" width="4.4" height="18.95"/>
<polyline style="&st1;" points="252.09,148.66 240.58,158.16 237.79,154.77 249.29,145.27 245.67,140.89 248.79,138.32 
	258.82,150.48 255.71,153.05 252.09,148.66 "/>
<rect x="252.35" y="150.72" transform="matrix(-0.6364 -0.7714 0.7714 -0.6364 292.9742 458.5003)" style="&st1;" width="4.4" height="18.95"/>
<path style="&st1;" d="M258.81,180.25l1.75-3.29l-4.16-5.04l-3.56,1.09l-2.85-3.45l20.41-5.28l0.38,0.46l-9.06,19.04L258.81,180.25
	 M264.59,169.41l-4.71,1.44l2.38,2.89L264.59,169.41z"/>
<polyline style="&st1;" points="278.64,180.84 267.13,190.33 264.33,186.94 275.84,177.45 272.22,173.06 275.33,170.49 
	285.37,182.66 282.26,185.23 278.64,180.84 "/>
<rect x="278.9" y="182.9" transform="matrix(-0.6363 -0.7715 0.7715 -0.6363 311.544 531.635)" style="&st1;" width="4.4" height="18.95"/>
<polyline style="&st1;" points="282.5,209.21 282.18,208.81 291.15,189.67 294.36,193.56 289.21,203.41 299.86,200.22 303,204.03 
	282.5,209.21 "/>
<polyline style="&st1;" points="289.72,217.71 304.34,205.65 311.97,214.91 308.86,217.47 304.02,211.61 301.41,213.77 
	305.82,219.11 302.87,221.55 298.46,216.2 295.61,218.55 300.44,224.42 297.35,226.97 289.72,217.71 "/>
<polyline style="&st1;" points="202.04,136.84 202.78,130.84 199.5,133.55 198.77,132.68 203.96,128.4 204.11,128.52 203.39,134.43 
	206.62,131.76 207.34,132.63 202.15,136.92 202.04,136.84 "/>
<polyline style="&st1;" points="203.21,138.06 208.34,133.84 210.91,136.96 210.11,137.62 208.26,135.37 206.92,136.47 
	208.59,138.51 207.83,139.14 206.15,137.11 204.73,138.28 206.59,140.53 205.79,141.18 203.21,138.06 "/>
<polyline style="&st1;" points="210.41,146.95 210.28,146.82 212.53,142.29 207.67,143.66 207.57,143.52 211.42,137.58 
	212.22,138.54 209.75,142.13 214.19,140.85 214.28,140.95 212.21,145.07 216.17,143.33 216.95,144.28 210.41,146.95 "/>
<polyline style="&st1;" points="217.54,151.04 215.39,152.82 214.67,151.94 216.82,150.16 218.3,145.91 219.12,146.91 218,149.96 
	221.19,149.41 222,150.4 217.54,151.04 "/>
<path style="&st1;" d="M219,157.37c-1.22-1.48-0.99-3.49,0.52-4.74c1.52-1.26,3.58-1.05,4.81,0.43c1.22,1.48,0.99,3.49-0.54,4.75
	C222.28,159.05,220.22,158.85,219,157.37 M223.53,153.68c-0.81-0.98-2.16-1-3.23-0.11c-1.06,0.88-1.31,2.22-0.5,3.19
	c0.8,0.97,2.16,0.99,3.23,0.11C224.09,155.98,224.33,154.65,223.53,153.68z"/>
<path style="&st1;" d="M224.34,163.67l0.92-2.64c-0.08-0.08-0.15-0.17-0.23-0.27c-0.14-0.17-0.27-0.35-0.41-0.52l-1.85,1.53
	l-0.72-0.88l5.07-4.18c0.38,0.36,0.77,0.76,1.19,1.28c1.2,1.45,1.02,2.68,0.12,3.43c-0.67,0.55-1.5,0.62-2.31,0.22l-0.96,3.04
	L224.34,163.67 M227.63,158.75c-0.18-0.21-0.35-0.41-0.53-0.55l-1.75,1.44c0.11,0.18,0.25,0.36,0.39,0.52
	c0.63,0.76,1.3,0.85,1.89,0.37C228.15,160.1,228.18,159.42,227.63,158.75z"/>
<polyline style="&st1;" points="228.21,168.35 228.94,164.23 226.48,166.26 225.76,165.39 230.88,161.16 231.6,162.04 229.3,163.94 
	233.26,164.05 234.13,165.1 229.83,164.9 229.1,169.44 228.21,168.35 "/>
<path style="&st1;" d="M232.42,173.62c-1.06-1.28-0.96-2.62,0.37-3.72l3.16-2.6l0.72,0.87l-3.09,2.56
	c-0.88,0.73-0.96,1.52-0.34,2.25c0.6,0.73,1.41,0.81,2.28,0.09l3.09-2.55l0.72,0.88l-3.16,2.6
	C234.86,175.07,233.45,174.88,232.42,173.62"/>
<polyline style="&st1;" points="238.42,180.93 239.16,174.94 235.88,177.65 235.16,176.77 240.34,172.49 240.49,172.61 
	239.77,178.52 243,175.85 243.72,176.73 238.52,181.02 238.42,180.93 "/>
<rect x="241.96" y="177.18" transform="matrix(-0.6367 -0.7711 0.7711 -0.6367 257.7614 482.4351)" style="&st1;" width="1.13" height="6.64"/>
<polyline style="&st1;" points="242.84,186.23 242.75,186.12 245.99,179.47 246.81,180.47 244.59,184.72 249.18,183.34 
	249.98,184.31 242.84,186.23 "/>
<polyline style="&st1;" points="245.4,189.18 250.52,184.96 253.09,188.08 252.29,188.74 250.44,186.49 249.1,187.59 250.77,189.63 
	250.01,190.26 248.33,188.23 246.91,189.4 248.77,191.65 247.97,192.3 245.4,189.18 "/>
<path style="&st1;" d="M251.13,196.14l0.92-2.64c-0.08-0.08-0.15-0.17-0.24-0.27c-0.14-0.17-0.27-0.35-0.41-0.52l-1.85,1.53
	l-0.72-0.88l5.07-4.18c0.38,0.36,0.77,0.76,1.19,1.28c1.2,1.45,1.02,2.68,0.12,3.43c-0.67,0.55-1.5,0.63-2.31,0.22l-0.95,3.04
	L251.13,196.14 M254.42,191.21c-0.17-0.21-0.35-0.41-0.53-0.55l-1.75,1.44c0.11,0.18,0.25,0.36,0.39,0.52
	c0.63,0.76,1.3,0.85,1.89,0.37C254.94,192.57,254.97,191.89,254.42,191.21z"/>
<path style="&st1;" d="M253.54,199.23c-0.48-0.58-0.75-1.33-0.82-2.02l1.03-0.34c0.04,0.65,0.26,1.28,0.62,1.73
	c0.44,0.54,0.96,0.52,1.31,0.22c0.35-0.29,0.45-0.63,0.12-1.73c-0.36-1.2-0.16-1.91,0.45-2.41c0.74-0.61,1.94-0.57,2.82,0.5
	c0.41,0.5,0.64,1.12,0.69,1.59l-1,0.35c-0.04-0.43-0.19-0.98-0.48-1.33c-0.44-0.54-0.94-0.55-1.29-0.27
	c-0.34,0.28-0.34,0.7-0.09,1.57c0.4,1.38,0.22,2.01-0.45,2.56C255.65,200.34,254.41,200.29,253.54,199.23"/>
<rect x="258.16" y="196.81" transform="matrix(-0.6363 -0.7715 0.7715 -0.6363 268.9588 527.0562)" style="&st1;" width="1.13" height="6.64"/>
<polyline style="&st1;" points="263.53,202.35 259.21,205.92 258.48,205.05 262.81,201.48 261.47,199.85 262.26,199.2 
	265.66,203.32 264.87,203.98 263.53,202.35 "/>
<polyline style="&st1;" points="265.32,208.96 263.17,210.73 262.45,209.86 264.61,208.08 266.09,203.83 266.91,204.83 
	265.78,207.88 268.97,207.33 269.78,208.31 265.32,208.96 "/>
<rect x="62.37" y="177.69" transform="matrix(0.7928 0.6095 -0.6095 0.7928 122.2926 -1.7134)" style="&st1;" width="2.6" height="2.6"/>
<rect x="66.22" y="172.69" transform="matrix(0.7916 0.611 -0.611 0.7916 120.3782 -5.0013)" style="&st1;" width="2.6" height="2.59"/>
<rect x="68.46" y="182.39" transform="matrix(0.7921 0.6104 -0.6104 0.7921 126.6198 -4.3934)" style="&st1;" width="2.6" height="2.59"/>
<rect x="73.35" y="186.16" transform="matrix(0.7919 0.6107 -0.6107 0.7919 130.0132 -6.5736)" style="&st1;" width="2.6" height="2.59"/>
<rect x="75.3" y="183.62" transform="matrix(0.7924 0.61 -0.61 0.7924 128.7004 -8.3371)" style="&st1;" width="2.59" height="2.6"/>
<rect x="85.28" y="191.31" transform="matrix(0.7923 0.6102 -0.6102 0.7923 135.5077 -12.8157)" style="&st1;" width="2.59" height="2.6"/>
<rect x="87.19" y="188.84" transform="matrix(0.793 0.6093 -0.6093 0.793 134.1597 -14.5481)" style="&st1;" width="2.6" height="2.6"/>
<rect x="97.22" y="204.54" transform="matrix(0.7929 0.6093 -0.6093 0.7929 145.8324 -17.4047)" style="&st1;" width="2.6" height="2.6"/>
<rect x="104.98" y="210.52" transform="matrix(0.7922 0.6103 -0.6103 0.7922 151.3685 -20.8411)" style="&st1;" width="2.6" height="2.6"/>
<rect x="106.93" y="207.99" transform="matrix(0.7924 0.61 -0.61 0.7924 150.1231 -22.5744)" style="&st1;" width="2.59" height="2.6"/>
<rect x="113.91" y="213.37" transform="matrix(0.7915 0.6112 -0.6112 0.7915 155.2292 -25.6523)" style="&st1;" width="2.59" height="2.59"/>
<rect x="115.82" y="210.89" transform="matrix(0.7917 0.6109 -0.6109 0.7917 154.0305 -27.3467)" style="&st1;" width="2.6" height="2.59"/>
<rect x="109.49" y="213.99" transform="matrix(0.793 0.6093 -0.6093 0.793 154.1 -22.9254)" style="&st1;" width="2.6" height="2.6"/>
<rect x="113.34" y="208.98" transform="matrix(0.793 0.6093 -0.6093 0.793 151.8485 -26.3103)" style="&st1;" width="2.6" height="2.6"/>
<rect x="122.72" y="220.15" transform="matrix(0.7924 0.61 -0.61 0.7924 160.8252 -29.6759)" style="&st1;" width="2.59" height="2.59"/>
<rect x="124.62" y="217.68" transform="matrix(0.7922 0.6103 -0.6103 0.7922 159.7964 -31.3414)" style="&st1;" width="2.59" height="2.59"/>
<rect x="123.31" y="224.64" transform="matrix(0.7924 0.61 -0.61 0.7924 163.6862 -29.1068)" style="&st1;" width="2.59" height="2.59"/>
<rect x="131.27" y="230.77" transform="matrix(0.7915 0.6111 -0.6111 0.7915 169.4633 -32.6341)" style="&st1;" width="2.6" height="2.59"/>
<rect x="136.58" y="234.87" transform="matrix(0.7917 0.6109 -0.6109 0.7917 173.0017 -35.0392)" style="&st1;" width="2.6" height="2.59"/>
<rect x="140.92" y="238.21" transform="matrix(0.7924 0.61 -0.61 0.7924 175.617 -37.0316)" style="&st1;" width="2.59" height="2.59"/>
<rect x="148.68" y="244.19" transform="matrix(0.7916 0.611 -0.611 0.7916 181.2488 -40.4847)" style="&st1;" width="2.6" height="2.59"/>
<rect x="150.63" y="241.66" transform="matrix(0.7924 0.61 -0.61 0.7924 179.7365 -42.2393)" style="&st1;" width="2.59" height="2.59"/>
<rect x="152.54" y="239.18" transform="matrix(0.7922 0.6103 -0.6103 0.7922 178.7198 -43.9077)" style="&st1;" width="2.59" height="2.59"/>
<rect x="168.6" y="259.53" transform="matrix(0.7923 0.6101 -0.6101 0.7923 194.4057 -49.4866)" style="&st1;" width="2.59" height="2.59"/>
<rect x="158.94" y="248.06" transform="matrix(0.7924 0.61 -0.61 0.7924 185.3668 -45.9786)" style="&st1;" width="2.59" height="2.59"/>
<rect x="175.58" y="264.91" transform="matrix(0.7914 0.6113 -0.6113 0.7914 199.6367 -52.5933)" style="&st1;" width="2.6" height="2.59"/>
<rect x="177.53" y="262.38" transform="matrix(0.7928 0.6094 -0.6094 0.7928 197.7406 -54.3586)" style="&st1;" width="2.6" height="2.6"/>
<rect x="189.01" y="275.26" transform="matrix(0.7923 0.6101 -0.6101 0.7923 208.2394 -58.675)" style="&st1;" width="2.59" height="2.59"/>
<rect x="205.78" y="288.17" transform="matrix(0.7924 0.61 -0.61 0.7924 219.5564 -66.2212)" style="&st1;" width="2.59" height="2.6"/>
<rect x="207.72" y="285.64" transform="matrix(0.7923 0.6101 -0.6101 0.7923 218.4591 -67.934)" style="&st1;" width="2.59" height="2.59"/>
<rect x="214.77" y="291.07" transform="matrix(0.7916 0.611 -0.611 0.7916 223.6665 -71.0948)" style="&st1;" width="2.6" height="2.59"/>
<polygon style="&st1;" points="222.57,303.05 220.52,301.46 222.1,299.41 224.15,300.99 "/>
<rect x="233.49" y="309.53" transform="matrix(0.7922 0.6103 -0.6103 0.7922 238.4702 -78.695)" style="&st1;" width="2.59" height="2.59"/>
<rect x="241.67" y="315.51" transform="matrix(0.7923 0.6102 -0.6102 0.7923 243.7744 -82.4387)" style="&st1;" width="2.59" height="2.59"/>
<rect x="243.46" y="313.17" transform="matrix(0.7924 0.61 -0.61 0.7924 242.6323 -84.0204)" style="&st1;" width="2.59" height="2.6"/>
<rect x="246.56" y="319.28" transform="matrix(0.7922 0.6103 -0.6103 0.7922 247.1651 -84.6409)" style="&st1;" width="2.59" height="2.6"/>
<rect x="248.36" y="316.94" transform="matrix(0.7924 0.61 -0.61 0.7924 245.9376 -86.2225)" style="&st1;" width="2.6" height="2.6"/>
<rect x="75.96" y="188.16" transform="matrix(0.7924 0.61 -0.61 0.7924 131.6062 -7.7975)" style="&st1;" width="2.59" height="2.6"/>
<path style="&st1;" d="M56.44,185.07l4.08-5.29l3.26,2.51l-4.04,5.25c-0.92,1.19-0.69,2.17,0.17,2.84c0.86,0.66,1.84,0.68,2.74-0.49
	l4.09-5.32l3.26,2.51l-4.02,5.22c-2.52,3.27-5.42,3.09-8.28,0.89C54.83,190.99,54,188.25,56.44,185.07"/>
<path style="&st1;" d="M71.56,188.29l4.68,3.61c1.7,1.31,2.45,2.57,2.61,3.76c0.13,1.02-0.12,1.96-0.88,2.95l-0.02,0.03
	c-1.07,1.39-2.55,1.81-4.15,1.47l-0.28,4.98l-3.66-2.82l0.3-4.13l-0.03-0.02l-0.66-0.51l-2.11,2.74l-3.2-2.47L71.56,188.29z
	 M72.63,196.39c0.77,0.59,1.5,0.61,1.95,0.02l0.02-0.03c0.47-0.62,0.23-1.29-0.51-1.86l-1.4-1.08l-1.44,1.88L72.63,196.39z"/>
<path style="&st1;" d="M81.9,196.26l5.37,4.14c1.33,1.02,1.93,1.97,2.06,2.96c0.08,0.61-0.05,1.29-0.56,1.95l-0.02,0.02
	c-0.88,1.14-2.1,1.31-3.4,0.88c0.96,1.3,1.25,2.57,0.23,3.89l-0.02,0.03c-1.18,1.54-3.31,1.69-5.74-0.18l-5.31-4.09L81.9,196.26z
	 M83.51,203.5c0.68,0.53,1.19,0.55,1.52,0.12l0.02-0.03c0.32-0.43,0.16-0.92-0.52-1.45l-1.38-1.07l-1.04,1.34L83.51,203.5z
	 M81.1,207.06c0.69,0.54,1.27,0.52,1.59,0.11l0.02-0.03c0.32-0.41,0.2-0.96-0.5-1.5l-1.62-1.25l-1.1,1.43L81.1,207.06z"/>
<path style="&st1;" d="M95.53,206.66l3.18,2.45l-3.4,12.77l-3.48-2.68l0.48-1.67l-3.35-2.59l-1.48,0.91l-3.43-2.64L95.53,206.66z
	 M93.27,214.63l0.92-3l-2.67,1.65L93.27,214.63z"/>
<polygon style="&st1;" points="103.64,213.01 106.64,215.32 106.79,222.18 110.05,217.95 113.23,220.4 105.84,229.98 102.99,227.79 
	102.84,220.62 99.43,225.05 96.25,222.6 "/>
<path style="&st1;" d="M118.9,224.76l3.67,2.83c3.81,2.93,4.27,6.28,2.08,9.11l-0.02,0.03c-2.19,2.84-5.68,3.35-9.56,0.36
	l-3.56-2.74L118.9,224.76z M117.4,234.44c1.47,1.13,2.88,1.25,3.94-0.13l0.02-0.03c1.07-1.38,0.59-2.72-0.88-3.84l-0.53-0.41
	l-3.08,4L117.4,234.44z"/>
<polygon style="&st1;" points="129.7,233.09 137.88,239.39 135.85,242.02 130.82,238.15 130.07,239.12 134.76,242.72 132.98,245.04 
	128.29,241.43 127.49,242.47 132.59,246.4 130.56,249.03 122.31,242.68 "/>
<polygon style="&st1;" points="139.35,240.52 142.7,243.1 142.16,248.05 146.81,246.27 150.15,248.84 142.76,258.43 139.57,255.97 
	143.23,251.21 138.4,252.93 138.34,252.89 138.77,247.78 135.1,252.53 131.97,250.11 "/>
<path style="&st1;" d="M147.85,254.76l0.02-0.03c2.14-2.78,6.14-3.24,9.1-0.96c2.96,2.28,3.53,6.21,1.39,9l-0.02,0.03
	c-2.14,2.78-6.14,3.23-9.1,0.96C146.29,261.47,145.71,257.54,147.85,254.76 M155.09,260.33l0.02-0.03c0.88-1.14,0.89-2.77-0.35-3.71
	c-1.22-0.94-2.77-0.52-3.63,0.6l-0.02,0.03c-0.88,1.14-0.89,2.77,0.35,3.72C152.68,261.88,154.22,261.45,155.09,260.33"/>
<path style="&st1;" d="M159.52,263.75l0.02-0.03c2.21-2.86,6.09-3.28,8.95-1.07c2.11,1.62,2.74,3.75,2.42,5.83l-3.84-0.49
	c0.17-0.96,0.03-1.83-0.84-2.5c-1.08-0.83-2.52-0.44-3.41,0.71l-0.02,0.03c-0.96,1.25-0.9,2.69,0.16,3.5
	c0.9,0.7,1.79,0.59,2.73,0.19l1.5,3.53c-1.91,0.8-4.14,0.93-6.53-0.91C158.01,270.5,157.23,266.72,159.52,263.75"/>
<path style="&st1;" d="M173.91,267.14l4.68,3.61c1.7,1.31,2.45,2.57,2.61,3.76c0.13,1.02-0.12,1.96-0.88,2.95l-0.02,0.03
	c-1.07,1.4-2.55,1.81-4.15,1.47l-0.28,4.98l-3.66-2.82l0.3-4.13l-0.03-0.02l-0.66-0.51l-2.11,2.74l-3.21-2.47L173.91,267.14z
	 M174.98,275.24c0.77,0.59,1.5,0.61,1.95,0.02l0.02-0.03c0.47-0.62,0.23-1.29-0.51-1.86l-1.4-1.07l-1.44,1.88L174.98,275.24z"/>
<path style="&st1;" d="M187.3,277.35l3.18,2.45l-3.4,12.77l-3.48-2.68l0.48-1.68l-3.35-2.58l-1.48,0.91l-3.43-2.64L187.3,277.35z
	 M185.04,285.32l0.92-3l-2.67,1.65L185.04,285.32z"/>
<path style="&st1;" d="M190.85,287.88l0.02-0.03c2.2-2.86,6.08-3.28,8.94-1.07c2.11,1.62,2.74,3.75,2.42,5.84l-3.84-0.49
	c0.17-0.96,0.03-1.83-0.84-2.5c-1.08-0.84-2.52-0.44-3.41,0.71l-0.02,0.03c-0.96,1.25-0.9,2.7,0.16,3.51
	c0.9,0.69,1.79,0.59,2.74,0.19l1.49,3.53c-1.91,0.81-4.14,0.93-6.53-0.9C189.34,294.64,188.56,290.85,190.85,287.88"/>
<polygon style="&st1;" points="202.9,299.35 204.06,290.37 207.65,293.13 206.86,297.55 210.94,295.68 214.49,298.41 206.14,301.77 
	203.49,305.21 200.29,302.74 "/>
<polygon style="&st1;" points="219.4,302.19 222.6,304.66 217.32,311.5 221.83,314.98 219.72,317.71 212.01,311.77 "/>
<path style="&st1;" d="M231.75,311.59l3.18,2.45l-3.4,12.77l-3.48-2.68l0.48-1.68l-3.36-2.59l-1.48,0.91l-3.42-2.64L231.75,311.59z
	 M229.49,319.57l0.92-3l-2.67,1.65L229.49,319.57z"/>
<path style="&st1;" d="M239.85,317.95l5.37,4.14c1.33,1.02,1.93,1.97,2.06,2.96c0.08,0.61-0.06,1.29-0.56,1.95l-0.02,0.03
	c-0.88,1.14-2.1,1.31-3.4,0.88c0.96,1.3,1.25,2.57,0.23,3.89l-0.02,0.03c-1.18,1.53-3.31,1.68-5.73-0.18l-5.31-4.09L239.85,317.95z
	 M241.47,325.2c0.68,0.53,1.19,0.55,1.52,0.12l0.02-0.03c0.33-0.43,0.16-0.92-0.52-1.45l-1.38-1.07l-1.03,1.34L241.47,325.2z
	 M239.06,328.75c0.7,0.54,1.28,0.52,1.59,0.11l0.02-0.03c0.32-0.41,0.2-0.96-0.5-1.5l-1.62-1.24l-1.1,1.42L239.06,328.75z"/>
<rect x="64.32" y="175.16" transform="matrix(0.793 0.6093 -0.6093 0.793 121.0931 -3.4449)" style="&st1;" width="2.6" height="2.6"/>
<rect x="77.21" y="181.15" transform="matrix(0.7923 0.6102 -0.6102 0.7923 127.631 -10.0026)" style="&st1;" width="2.59" height="2.59"/>
<rect x="83.33" y="193.84" transform="matrix(0.7915 0.6112 -0.6112 0.7915 136.9174 -11.0336)" style="&st1;" width="2.59" height="2.6"/>
<rect x="99.17" y="202.01" transform="matrix(0.7922 0.6102 -0.6102 0.7922 144.9345 -19.0683)" style="&st1;" width="2.6" height="2.6"/>
<rect x="108.84" y="205.52" transform="matrix(0.7922 0.6102 -0.6102 0.7922 149.0812 -24.2398)" style="&st1;" width="2.6" height="2.6"/>
<rect x="111.96" y="215.9" transform="matrix(0.7924 0.61 -0.61 0.7924 155.998 -23.9993)" style="&st1;" width="2.59" height="2.59"/>
<rect x="111.43" y="211.46" transform="matrix(0.7916 0.611 -0.611 0.7916 153.4905 -24.5451)" style="&st1;" width="2.6" height="2.6"/>
<rect x="120.77" y="222.68" transform="matrix(0.7916 0.611 -0.611 0.7916 162.2926 -27.9097)" style="&st1;" width="2.6" height="2.59"/>
<rect x="125.26" y="222.11" transform="matrix(0.7919 0.6107 -0.6107 0.7919 162.7751 -30.7883)" style="&st1;" width="2.6" height="2.59"/>
<rect x="133.91" y="232.81" transform="matrix(0.7922 0.6103 -0.6103 0.7922 170.9583 -33.8638)" style="&st1;" width="2.59" height="2.59"/>
<rect x="142.87" y="235.68" transform="matrix(0.7915 0.6112 -0.6112 0.7915 174.9025 -38.699)" style="&st1;" width="2.59" height="2.59"/>
<rect x="144.77" y="233.2" transform="matrix(0.7916 0.611 -0.611 0.7916 173.7325 -40.3861)" style="&st1;" width="2.6" height="2.59"/>
<rect x="170.55" y="257" transform="matrix(0.7917 0.6109 -0.6109 0.7917 193.6009 -51.1776)" style="&st1;" width="2.6" height="2.59"/>
<rect x="156.99" y="250.59" transform="matrix(0.7915 0.6111 -0.6111 0.7915 186.9264 -44.2252)" style="&st1;" width="2.6" height="2.6"/>
<rect x="178.12" y="266.87" transform="matrix(0.7924 0.61 -0.61 0.7924 200.8478 -53.7742)" style="&st1;" width="2.59" height="2.59"/>
<rect x="190.96" y="272.73" transform="matrix(0.7917 0.6109 -0.6109 0.7917 207.4613 -60.373)" style="&st1;" width="2.6" height="2.59"/>
<rect x="199.45" y="283.3" transform="matrix(0.7928 0.6094 -0.6094 0.7928 215.0317 -63.3848)" style="&st1;" width="2.6" height="2.6"/>
<rect x="209.63" y="283.17" transform="matrix(0.7917 0.6109 -0.6109 0.7917 217.7269 -69.6035)" style="&st1;" width="2.6" height="2.59"/>
<rect x="212.82" y="293.6" transform="matrix(0.7924 0.61 -0.61 0.7924 224.3282 -69.391)" style="&st1;" width="2.59" height="2.6"/>
<rect x="235.44" y="306.99" transform="matrix(0.7924 0.61 -0.61 0.7924 237.1977 -80.4105)" style="&st1;" width="2.59" height="2.6"/>
<rect x="244.15" y="317.42" transform="matrix(0.793 0.6093 -0.6093 0.793 244.9934 -83.5552)" style="&st1;" width="2.6" height="2.6"/>
<rect x="250.26" y="314.47" transform="matrix(0.7923 0.6101 -0.6101 0.7923 244.8787 -87.9001)" style="&st1;" width="2.59" height="2.6"/>
<rect x="77.91" y="185.64" transform="matrix(0.792 0.6105 -0.6105 0.792 130.5906 -9.4797)" style="&st1;" width="2.6" height="2.6"/>
<path style="&st1;" d="M189.7,201.05l0.03-0.04c3.44-3.77,9.2-4.17,13.21-0.51c2.39,2.18,3.23,4.14,3.55,6.57l-3.86,0.54
	c-0.25-1.79-0.7-3.11-2.24-4.51c-2.12-1.94-5.52-1.6-7.57,0.65l-0.04,0.04c-2.21,2.42-2.17,5.72,0.18,7.87
	c1.06,0.97,2.25,1.57,3.47,1.71l1.73-1.9l-2.93-2.68l2.3-2.52l5.76,5.26l-5.26,5.75c-2.42-0.09-5.16-0.85-7.58-3.07
	C186.32,210.46,186.12,204.96,189.7,201.05"/>
<path style="&st1;" d="M214.72,211.5l2.69,2.46l-6.51,18.53l-3.05-2.78l1.5-4.08l-5.6-5.12l-3.93,1.87l-2.97-2.71L214.72,211.5
	 M210.66,222.1l2.16-5.91l-5.68,2.69L210.66,222.1z"/>
<polyline style="&st1;" points="224.67,220.76 227.59,223.42 217.91,234.03 224.51,240.06 222.09,242.71 212.57,234.01 
	224.67,220.76 "/>
<polyline style="&st1;" points="236.02,231.12 238.93,233.78 229.25,244.39 235.86,250.42 233.44,253.07 223.91,244.37 
	236.02,231.12 "/>
<path style="&st1;" d="M251.99,245.54l2.69,2.46l-6.51,18.54l-3.05-2.79l1.5-4.08l-5.6-5.12l-3.93,1.87l-2.97-2.71L251.99,245.54
	 M247.93,256.14l2.16-5.91l-5.68,2.69L247.93,256.14z"/>
<polyline style="&st1;" points="260.68,258.58 256.65,254.9 259.1,252.21 270.09,262.23 267.63,264.92 263.6,261.24 253.95,271.8 
	251.03,269.14 260.68,258.58 "/>
<rect x="265.51" y="263.03" transform="matrix(-0.7381 -0.6747 0.6747 -0.7381 281.3646 653.2493)" style="&st1;" width="3.95" height="17.95"/>
<polyline style="&st1;" points="277.93,269.4 280.62,271.85 279.38,285.68 286.83,277.52 289.7,280.15 277.6,293.41 275.12,291.14 
	276.4,276.85 268.7,285.28 265.82,282.65 277.93,269.4 "/>
<rect x="183.24" y="179.47" transform="matrix(-0.7371 -0.6758 0.6758 -0.7371 186.8526 463.4661)" style="&st1;" width="0.69" height="31.84"/>
<polyline style="&st1;" points="143.93,146.73 146.63,149.2 145.38,163.14 152.89,154.91 155.79,157.56 143.59,170.92 
	141.09,168.63 142.38,154.24 134.63,162.73 131.73,160.08 143.93,146.73 "/>
<polyline style="&st1;" points="155,171.68 157.25,158.9 160.69,162.04 158.98,170.31 167.12,167.91 170.46,170.96 157.99,174.3 
	153.13,179.62 150.19,176.94 155,171.68 "/>
<path style="&st1;" d="M164.74,179.74l6.97-7.63l2.94,2.68l-6.9,7.55c-1.99,2.18-1.93,4.29-0.14,5.93c1.79,1.64,3.88,1.54,5.81-0.57
	l6.99-7.65l2.93,2.68l-6.88,7.54c-3.7,4.04-7.77,3.95-11.36,0.68C161.52,187.67,161.16,183.67,164.74,179.74"/>
<path style="&st1;" d="M120.88,159.67l-23.5-21.47l21.47-23.51l23.5,21.47L120.88,159.67 M110.82,145.45
	c-0.12,0.19,0.16,0.59,0.47,0.42l6.77-5.76l-2-1.82L110.82,145.45z M119.18,140.27l0.9-0.98l-3.39-3.1l-0.9,0.99L119.18,140.27z
	 M119.54,137.91c4.16,4.08,8.04,0.44,9.4-1.01c0.08-0.09,0.04-0.13-0.03-0.09c-0.41,0.19-1.96,0.77-4.12,0.02
	c-1.93-0.67-3.99-0.08-5.24,1C119.51,137.85,119.52,137.9,119.54,137.91z M119.33,137.2c3.66-2.64,6.4-0.29,7.19-0.7
	c1.25-0.63,2.14-2.96,2.15-3.32c0-0.03-0.03-0.04-0.06-0.03c-1.08,0.46-2.35,0.68-3.1,0.64c-1.04-0.07-4.92-0.47-6.25,3.37
	C119.25,137.2,119.3,137.22,119.33,137.2z M118.74,136.9c1.37-4.39,6.07-3.75,6.93-3.75c0.12,0,0.15-0.07,0.22-0.14
	c0.88-0.96,1.76-3.04,1.78-3.43c0.01-0.05-0.03-0.06-0.07-0.04c-1.12,0.73-3.73,0.95-4.28,1.03c-4.64,0.61-5.6,2.69-4.66,6.33
	C118.67,136.94,118.73,136.95,118.74,136.9z M118,136.42c-1.1-3.64,1.02-5.47,3.4-6.07c0.05-0.01,0.1-0.06,0.16-0.12
	c0.29-0.4,0.72-1.66,0.79-2.06c0.02-0.1-0.02-0.13-0.07-0.09c-0.39,0.4-1.79,1-3.59,1.53c-1.91,0.57-4.41,3.3-0.74,6.86
	C117.97,136.5,118.02,136.47,118,136.42z"/>
</svg>
