<?xml version="1.0" encoding="utf-8"?>
<!-- Generator: Adobe Illustrator 16.0.4, SVG Export Plug-In . SVG Version: 6.00 Build 0)  -->
<!DOCTYPE svg PUBLIC "-//W3C//DTD SVG 1.1//EN" "http://www.w3.org/Graphics/SVG/1.1/DTD/svg11.dtd" [
	<!ENTITY st0 "fill:#1A1A1A;">
	<!ENTITY st1 "fill:#212121;">
	<!ENTITY st2 "fill:#F2F2F2;">
	<!ENTITY st3 "fill:#FFCCAA;">
	<!ENTITY st4 "fill:#D44700;">
]>
<svg version="1.1" id="Layer_1" xmlns="http://www.w3.org/2000/svg" xmlns:xlink="http://www.w3.org/1999/xlink" x="0px" y="0px"
	 width="1584px" height="2448px" viewBox="0 0 1584 2448" style="enable-background:new 0 0 1584 2448;" xml:space="preserve">
<rect style="&st0;" width="1584" height="2448"/>
<polygon style="&st4;" points="0,578 1584,578 1584,1551.91 792,1855.98 0,1551.91 "/>
<polygon style="&st3;" points="813.17,1923.43 819.61,1920.94 827.95,1942.68 834.15,1940.3 825.81,1918.57 832.26,1916.08 
	830.18,1910.66 811.09,1918 "/>
<path style="&st3;" d="M853.28,1901.8l-6.19,2.38l6.03,15.7c1.73,4.53,0.84,6.39-2.17,7.55c-3.03,1.17-4.92,0.38-6.66-4.16
	l-6.03-15.7l-6.19,2.38l6.72,17.52c2.58,6.7,7.59,8.72,14.5,6.06c6.92-2.66,9.28-7.5,6.7-14.2L853.28,1901.8z"/>
<polygon style="&st3;" points="872.45,1894.45 856.91,1900.41 867.33,1927.57 882.88,1921.6 880.8,1916.18 871.45,1919.76 
	869.34,1914.29 878.3,1910.85 876.22,1905.41 867.27,1908.85 865.19,1903.45 874.53,1899.87 "/>
<path style="&st3;" d="M885.83,1888.72c-4.39,1.69-7.62,6.62-5.69,11.7c1.09,2.83,3.97,4.64,7.86,4.98
	c3.86,0.39,7.08,0.17,7.84,2.14c0.97,2.53-1.55,3.66-2.91,4.17c-3.03,1.17-7.83-0.52-7.83-0.52l-1.08,6.39c0,0,5.22,2.12,11.58-0.31
	c5.3-2.05,9.36-6.22,6.88-12.7c-1.36-3.55-5.66-4.84-9.2-4.97c-3.59-0.14-6.58-0.23-7.16-1.75c-0.56-1.47,0.17-2.86,2.28-3.67
	c2.81-1.08,6.22-0.22,6.22-0.22l0.61-5.91C895.24,1888.07,890.77,1886.83,885.83,1888.72z"/>
<path style="&st3;" d="M912.62,1903.82l-6.17-16.09l0.94-0.36c4.61-1.77,9.09,0.55,10.84,5.09c1.7,4.56-0.08,9.23-4.67,11
	L912.62,1903.82z M898.12,1884.59l10.42,27.16l7.88-3.03c7.47-2.86,11.53-10.91,8.48-18.84c-3.03-7.91-11.47-11.17-18.91-8.31
	L898.12,1884.59z"/>
<path style="&st3;" d="M942.68,1886.17l-6.12,2.34l-0.02-9.05l0.08-0.03L942.68,1886.17z M936.23,1869.96l-5.73,2.19l-0.53,31.38
	l6.66-2.56l-0.08-6.19l10.34-3.97l4.09,4.66l6.64-2.56L936.23,1869.96z"/>
<polygon style="&st3;" points="942.31,1867.62 958.06,1878.76 962.73,1890.95 968.93,1888.56 964.26,1876.37 968.51,1857.56 
	961.07,1860.42 958.75,1871.28 949.75,1864.78 "/>
<path style="&st3;" d="M978.55,1876.79c-2.08,0.8-3.12,3.12-2.31,5.25c0.67,1.73,2.39,2.58,4.17,2.36c0.52,2.94-0.73,5.56-0.73,5.56
	l2.2,0.73c1.84-3.27,3.44-7.58,1.91-11.56C982.97,1877,980.64,1875.99,978.55,1876.79z"/>
<polygon style="&st3;" points="1003.28,1844.22 987.57,1850.25 998,1877.41 1004.2,1875.02 1000.01,1864.13 1008.79,1860.77 
	1006.71,1855.33 997.93,1858.69 995.86,1853.29 1005.36,1849.64 "/>
<polygon style="&st3;" points="1021.77,1837.13 1006.22,1843.1 1016.64,1870.25 1032.19,1864.29 1030.11,1858.86 1020.77,1862.44 
	1018.66,1856.97 1027.61,1853.54 1025.54,1848.1 1016.58,1851.54 1014.5,1846.13 1023.85,1842.55 "/>
<path style="&st3;" d="M1040.12,1855.77l-2.47-6.42l1.94-0.73c2.94-1.12,4.88-0.86,5.83,1.64c0.83,2.14-0.42,3.66-3.36,4.78
	L1040.12,1855.77z M1035.6,1844l-2.25-5.86l0.5-0.19c2.69-1.03,4.42-0.75,5.17,1.19c0.88,2.28-0.28,3.66-2.92,4.67L1035.6,1844z
	 M1025.32,1835.77l10.42,27.16l10.31-3.97c5.62-2.16,7.7-6.5,5.98-10.98c-1.69-4.38-4.81-5.33-8.42-4.62
	c1.84-2.06,2.11-4.62,1.16-7.12c-1.98-5.16-6.34-5.5-11.02-3.7L1025.32,1835.77z"/>
<path style="&st3;" d="M1058.08,1837l-2.73-7.11l0.72-0.27c2.34-0.91,5.19-1.81,6.48,1.58c1.31,3.41-1.41,4.62-3.75,5.53
	L1058.08,1837z M1047.25,1827.35l10.42,27.16l6.2-2.39l-4.12-10.73l12.42,7.55l7.86-3.02l-13.66-7.64c2.92-2.33,4.09-5.92,2.53-10
	c-2.05-5.34-6.89-6.59-11.94-4.66L1047.25,1827.35z"/>
<path style="&st3;" d="M1091.73,1810.27l-6.19,2.38l6.03,15.7c1.73,4.53,0.84,6.39-2.17,7.55c-3.03,1.17-4.92,0.38-6.66-4.16
	l-6.03-15.7l-6.19,2.38l6.72,17.52c2.58,6.7,7.59,8.72,14.5,6.06c6.92-2.66,9.28-7.5,6.7-14.2L1091.73,1810.27z"/>
<path style="&st3;" d="M1115.6,1819.79l-6.12,2.34l-0.02-9.05l0.08-0.03L1115.6,1819.79z M1109.15,1803.59l-5.73,2.19l-0.53,31.38
	l6.66-2.56l-0.08-6.19l10.34-3.97l4.09,4.66l6.64-2.56L1109.15,1803.59z"/>
<path style="&st3;" d="M1131.96,1808.64l-2.73-7.11l0.72-0.27c2.34-0.91,5.19-1.81,6.48,1.58c1.31,3.41-1.41,4.62-3.75,5.53
	L1131.96,1808.64z M1121.14,1798.98l10.42,27.16l6.2-2.39l-4.12-10.73l12.42,7.55l7.86-3.02l-13.66-7.64
	c2.92-2.33,4.09-5.92,2.53-10c-2.05-5.34-6.89-6.59-11.94-4.66L1121.14,1798.98z"/>
<polygon style="&st3;" points="1138.82,1792.19 1154.57,1803.33 1159.25,1815.52 1165.45,1813.12 1160.78,1800.94 1165.03,1782.12 
	1157.59,1784.98 1155.26,1795.84 1146.26,1789.34 "/>
<polygon style="&st3;" points="1178.27,1789.82 1181.63,1785.19 1188.9,1804.13 1195.1,1801.74 1184.68,1774.58 1181.74,1775.71 
	1175.93,1783.69 "/>
<path style="&st3;" d="M1199.02,1784.68c-2.11-5.47-1.52-9.36,1.48-10.52c2.97-1.12,6,1.33,8.11,6.83c2.25,5.86,1.5,9.33-1.47,10.45
	C1204.14,1792.61,1201.27,1790.54,1199.02,1784.68z M1192.77,1787.07c3.86,10.08,10.62,12.06,16.45,9.81
	c5.83-2.23,9.5-8.22,5.64-18.3c-3.61-9.41-10.61-12.09-16.44-9.86C1192.59,1770.98,1189.16,1777.67,1192.77,1787.07z"/>
<path style="&st3;" d="M1233.83,1776.88c-0.94-2.44,0.23-4.94,2.48-5.8c2.36-0.91,4.88,0.17,5.81,2.61c0.91,2.36-0.2,4.8-2.61,5.72
	C1237.12,1780.33,1234.73,1779.23,1233.83,1776.88z M1238.64,1753.88l-7.64,2.94l-3.47,10.03c-1.36,4.95-1.95,7.72-0.12,12.5
	c2,5.2,8.28,7.39,14.38,5.05c4.91-1.88,8.98-6.67,6.53-13.08c-2.42-6.33-8.58-7.62-12.3-6.19c-1.27,0.47-1.8,1.12-1.8,1.12
	L1238.64,1753.88z"/>
<path style="&st3;" d="M1255.7,1770.39c-2.08,0.8-3.12,3.12-2.31,5.25c0.8,2.06,3.12,3.09,5.2,2.3c2.09-0.8,3.14-3.14,2.34-5.2
	C1260.12,1770.61,1257.79,1769.6,1255.7,1770.39z M1251.4,1759.21c-2.08,0.8-3.12,3.12-2.31,5.23c0.8,2.06,3.12,3.09,5.2,2.3
	c2.09-0.8,3.14-3.14,2.34-5.2C1255.82,1759.43,1253.5,1758.41,1251.4,1759.21z"/>
<path style="&st3;" d="M1263.51,1753.3c0,0-0.66-3.59,2.77-4.91c1.75-0.67,3.86-0.03,4.52,1.7c0.77,1.98-0.31,4.05-1.97,4.67
	l-1.34,0.52l1.56,4.06c0,0,0.45-0.41,1.11-0.66c2.17-0.83,4.55,0.14,5.44,2.47c0.88,2.31-0.25,4.22-2.53,5.09
	c-4.08,1.58-6.05-2.42-6.05-2.42l-4.66,4.98c0,0,4.42,5.98,12.78,2.78c5.83-2.25,8.66-7.59,6.66-12.81
	c-1.09-2.86-3.25-4.41-5.84-4.88c1.03-1.72,1.3-3.8,0.44-6.03c-1.77-4.61-6.78-6.47-11.94-4.48c-7.62,2.92-6.72,9.42-6.72,9.42
	L1263.51,1753.3z"/>
<path style="&st3;" d="M1288.01,1750.52c-2.11-5.47-1.52-9.36,1.48-10.52c2.97-1.12,6,1.33,8.11,6.83c2.25,5.86,1.5,9.33-1.47,10.45
	C1293.14,1758.44,1290.26,1756.38,1288.01,1750.52z M1281.76,1752.91c3.86,10.08,10.62,12.06,16.45,9.81
	c5.83-2.23,9.5-8.22,5.64-18.3c-3.61-9.41-10.61-12.09-16.44-9.86C1281.59,1736.82,1278.15,1743.5,1281.76,1752.91z"/>
<polygon style="&st3;" points="1307.31,1744.86 1309.25,1749.89 1319.86,1745.81 1317.92,1740.78 "/>
<path style="&st3;" d="M1329.17,1740.76c-0.78-2.05,0.16-4.03,2.11-4.77c1.91-0.73,4,0.08,4.78,2.12c0.78,2.02-0.14,4.02-2.12,4.78
	C1331.89,1743.68,1329.95,1742.78,1329.17,1740.76z M1331.19,1726.67c0.69,1.8-0.11,3.5-1.86,4.17c-1.67,0.64-3.52-0.05-4.2-1.84
	c-0.67-1.75,0.14-3.56,1.88-4.23C1328.78,1724.07,1330.52,1724.92,1331.19,1726.67z M1336.7,1723.53
	c-1.55-4.03-6.89-5.22-11.52-3.44c-4.48,1.72-7.91,6.27-6.36,10.3c1.14,2.98,3.42,4.38,5.94,4.78c-2.23,2.28-3.34,5.44-1.92,9.16
	c1.77,4.58,7.89,5.92,13.16,3.91c5.11-1.97,8.92-7.14,7.16-11.72c-1.42-3.72-4.36-5.3-7.59-5.48
	C1337.16,1729.04,1337.84,1726.51,1336.7,1723.53z"/>
<path style="&st3;" d="M1350.16,1734.13c-2.08,0.8-3.12,3.12-2.31,5.25c0.8,2.06,3.12,3.09,5.2,2.3c2.09-0.8,3.14-3.14,2.34-5.2
	C1354.59,1734.35,1352.26,1733.34,1350.16,1734.13z M1345.87,1722.95c-2.08,0.8-3.12,3.12-2.31,5.23c0.8,2.06,3.12,3.09,5.2,2.3
	c2.09-0.8,3.14-3.14,2.34-5.2C1350.29,1723.16,1347.96,1722.15,1345.87,1722.95z"/>
<path style="&st3;" d="M1357.97,1717.04c0,0-0.66-3.59,2.77-4.91c1.75-0.67,3.86-0.03,4.52,1.7c0.77,1.98-0.31,4.05-1.97,4.67
	l-1.34,0.52l1.56,4.06c0,0,0.45-0.41,1.11-0.66c2.17-0.83,4.55,0.14,5.44,2.47c0.88,2.31-0.25,4.22-2.53,5.09
	c-4.08,1.58-6.05-2.42-6.05-2.42l-4.66,4.98c0,0,4.42,5.98,12.78,2.78c5.83-2.25,8.66-7.59,6.66-12.81
	c-1.09-2.86-3.25-4.41-5.84-4.88c1.03-1.72,1.3-3.8,0.44-6.03c-1.77-4.61-6.78-6.47-11.94-4.48c-7.62,2.92-6.72,9.42-6.72,9.42
	L1357.97,1717.04z"/>
<path style="&st3;" d="M1382.48,1714.26c-2.11-5.47-1.52-9.36,1.48-10.52c2.97-1.12,6,1.33,8.11,6.83c2.25,5.86,1.5,9.33-1.47,10.45
	C1387.6,1722.18,1384.73,1720.12,1382.48,1714.26z M1376.23,1716.65c3.86,10.08,10.62,12.06,16.45,9.81
	c5.83-2.23,9.5-8.22,5.64-18.3c-3.61-9.41-10.61-12.09-16.44-9.86C1376.05,1700.56,1372.62,1707.25,1376.23,1716.65z"/>
<path style="&st3;" d="M1406.84,1703.23l-2.77-7.2l1.73-0.66c2.44-0.94,5.05-1.02,6.12,1.8c1.06,2.75-0.92,4.47-3.36,5.41
	L1406.84,1703.23z M1395.98,1693.48l10.42,27.16l6.2-2.39l-3.88-10.08l3.72-1.42c5.3-2.03,8.09-6.69,5.94-12.28
	c-2.16-5.64-7.19-6.83-12.48-4.8L1395.98,1693.48z"/>
<polygon style="&st3;" points="1450.8,1703.6 1456.98,1701.22 1444.12,1675 1437.55,1677.52 1437.53,1695.49 1425.48,1682.14 
	1418.91,1684.68 1426.89,1712.77 1433.06,1710.39 1428.17,1693.8 1428.34,1693.72 1440.02,1707.55 1443.72,1706.13 1443.14,1688.05 
	1443.33,1687.97 "/>
<path style="&st3;" d="M818.61,1962.33l-6.2,2.38l6.88,17.91c1.05,2.73,0.14,4.34-1.64,5.03c-1.58,0.61-4.25-0.5-4.25-0.5l0.02,5.94
	c0,0,3.45,1.66,7.36,0.16c5.42-2.08,7.38-6.08,5.31-11.42L818.61,1962.33z"/>
<polygon style="&st3;" points="837.76,1954.98 822.21,1960.95 832.63,1988.11 848.18,1982.14 846.1,1976.72 836.76,1980.3 
	834.65,1974.83 843.6,1971.39 841.52,1965.95 832.57,1969.39 830.49,1963.98 839.84,1960.41 "/>
<path style="&st3;" d="M852.14,1963.28l-2.73-7.11l0.72-0.27c2.34-0.91,5.19-1.81,6.48,1.58c1.31,3.41-1.41,4.62-3.75,5.53
	L852.14,1963.28z M841.31,1953.62l10.42,27.16l6.2-2.39l-4.12-10.73l12.42,7.55l7.86-3.02l-13.66-7.64c2.92-2.33,4.09-5.92,2.53-10
	c-2.05-5.34-6.89-6.59-11.94-4.66L841.31,1953.62z"/>
<path style="&st3;" d="M875.74,1954.22l-2.73-7.11l0.72-0.27c2.34-0.91,5.19-1.81,6.48,1.58c1.31,3.41-1.41,4.62-3.75,5.53
	L875.74,1954.22z M864.91,1944.56l10.42,27.16l6.2-2.39l-4.12-10.73l12.42,7.55l7.86-3.02l-13.66-7.64c2.92-2.33,4.09-5.92,2.53-10
	c-2.05-5.34-6.89-6.59-11.94-4.66L864.91,1944.56z"/>
<polygon style="&st3;" points="882.6,1937.76 898.35,1948.9 903.02,1961.09 909.22,1958.7 904.55,1946.51 908.8,1927.7 
	901.36,1930.56 899.04,1941.42 890.04,1934.92 "/>
<polygon style="&st3;" points="931.23,1937.75 939.98,1934.39 944.17,1945.28 950.36,1942.91 939.94,1915.75 933.75,1918.12 
	937.91,1928.95 929.16,1932.31 925,1921.48 918.8,1923.88 929.22,1951.03 935.42,1948.64 "/>
<path style="&st3;" d="M955.36,1932.91c-2.08,0.8-3.12,3.12-2.31,5.25c0.8,2.06,3.12,3.09,5.2,2.3c2.09-0.8,3.14-3.14,2.34-5.2
	C959.78,1933.12,957.45,1932.11,955.36,1932.91z"/>
<polygon style="&st3;" points="970.59,1903.98 964.39,1906.38 974.81,1933.53 990.36,1927.56 988.28,1922.14 978.94,1925.72 "/>
<path style="&st3;" d="M1003.74,1909.95l-6.12,2.34l-0.02-9.05l0.08-0.03L1003.74,1909.95z M997.29,1893.75l-5.73,2.19l-0.53,31.38
	l6.66-2.56l-0.08-6.19l10.34-3.97l4.09,4.66l6.64-2.56L997.29,1893.75z"/>
<path style="&st3;" d="M1024.07,1909.14l-2.47-6.42l1.94-0.73c2.94-1.12,4.88-0.86,5.83,1.64c0.83,2.14-0.42,3.66-3.36,4.78
	L1024.07,1909.14z M1019.55,1897.38l-2.25-5.86l0.5-0.19c2.69-1.03,4.42-0.75,5.17,1.19c0.88,2.28-0.28,3.66-2.92,4.67
	L1019.55,1897.38z M1009.27,1889.14l10.42,27.16l10.31-3.97c5.62-2.16,7.7-6.5,5.98-10.98c-1.69-4.38-4.81-5.33-8.42-4.62
	c1.84-2.06,2.11-4.62,1.16-7.12c-1.98-5.16-6.34-5.5-11.02-3.7L1009.27,1889.14z"/>
<path style="&st3;" d="M1041.88,1892.18c-1.56-4.06-0.86-8.95,3.91-10.78c4.8-1.84,8.52,1.36,10.08,5.42
	c1.55,4.05,1.08,8.88-3.86,10.77C1046.92,1899.54,1043.42,1896.23,1041.88,1892.18z M1035.2,1894.74
	c3.05,7.94,11.06,11.92,19.09,8.84c7.81-3,11.3-11.41,8.25-19.34s-11.5-11.7-19.05-8.81
	C1036.02,1878.3,1032.16,1886.8,1035.2,1894.74z"/>
<polygon style="&st3;" points="1090.31,1889.2 1097.17,1886.55 1094.48,1856.43 1087.62,1859.07 1090.12,1879.48 1089.97,1879.52 
	1077.88,1862.8 1073.22,1864.6 1075.41,1885.12 1075.25,1885.18 1063.47,1868.34 1056.58,1870.98 1074.75,1895.16 1081.62,1892.52 
	1080.12,1875.6 "/>
<polygon style="&st3;" points="1102.16,1853.48 1095.96,1855.87 1106.38,1883.03 1112.58,1880.64 "/>
<polygon style="&st3;" points="1104.89,1858.66 1111.32,1856.18 1119.67,1877.91 1125.87,1875.54 1117.53,1853.8 1123.98,1851.32 
	1121.9,1845.9 1102.81,1853.24 "/>
<polygon style="&st3;" points="1146.95,1836.29 1124.59,1844.87 1126.67,1850.29 1138.19,1845.87 1133.11,1872.76 1156.48,1863.79 
	1154.41,1858.37 1141.81,1863.2 "/>
<polygon style="&st3;" points="1157.23,1838.57 1163.67,1836.09 1172.01,1857.82 1178.21,1855.45 1169.87,1833.71 1176.32,1831.23 
	1174.25,1825.8 1155.15,1833.15 "/>
<polygon style="&st3;" points="1188.91,1838.84 1197.66,1835.48 1201.84,1846.37 1208.03,1844 1197.61,1816.84 1191.42,1819.21 
	1195.58,1830.04 1186.83,1833.4 1182.67,1822.57 1176.47,1824.96 1186.89,1852.12 1193.09,1849.73 "/>
<polygon style="&st3;" points="1217.09,1809.37 1201.55,1815.34 1211.97,1842.49 1227.52,1836.52 1225.44,1831.1 1216.09,1834.68 
	1213.98,1829.21 1222.94,1825.77 1220.86,1820.34 1211.91,1823.77 1209.83,1818.37 1219.17,1814.79 "/>
<path style="&st3;" d="M1241.09,1818.84l-6.12,2.34l-0.02-9.05l0.08-0.03L1241.09,1818.84z M1234.64,1802.64l-5.73,2.19l-0.53,31.38
	l6.66-2.56l-0.08-6.19l10.34-3.97l4.09,4.66l6.64-2.56L1234.64,1802.64z"/>
<polygon style="&st3;" points="1245.39,1804.73 1251.83,1802.25 1260.18,1823.98 1266.38,1821.61 1258.04,1799.87 1264.49,1797.39 
	1262.41,1791.96 1243.32,1799.31 "/>
<path style="&st3;" d="M1275.46,1800.78l-2.73-7.11l0.72-0.27c2.34-0.91,5.19-1.81,6.48,1.58c1.31,3.41-1.41,4.62-3.75,5.53
	L1275.46,1800.78z M1264.63,1791.12l10.42,27.16l6.2-2.39l-4.12-10.73l12.42,7.55l7.86-3.02l-13.66-7.64
	c2.92-2.33,4.09-5.92,2.53-10c-2.05-5.34-6.89-6.59-11.94-4.66L1264.63,1791.12z"/>
<polygon style="&st3;" points="1303.78,1776.09 1288.23,1782.06 1298.65,1809.22 1314.2,1803.25 1312.12,1797.83 1302.78,1801.41 
	1300.67,1795.94 1309.62,1792.5 1307.54,1787.06 1298.59,1790.5 1296.51,1785.09 1305.86,1781.52 "/>
<polygon style="&st3;" points="826.25,2006.62 810.55,2012.65 820.97,2039.8 827.17,2037.41 822.98,2026.52 831.77,2023.16 
	829.69,2017.73 820.91,2021.09 818.83,2015.68 828.33,2012.04 "/>
<path style="&st3;" d="M839.87,2016.95c-1.56-4.06-0.86-8.95,3.91-10.78c4.8-1.84,8.52,1.36,10.08,5.42
	c1.55,4.05,1.08,8.88-3.86,10.77C844.91,2024.3,841.41,2020.99,839.87,2016.95z M833.2,2019.51c3.05,7.94,11.06,11.92,19.09,8.84
	c7.81-3,11.3-11.41,8.25-19.34s-11.5-11.7-19.05-8.81C834.01,2003.07,830.15,2011.57,833.2,2019.51z"/>
<path style="&st3;" d="M868.89,2004.06l-2.73-7.11l0.72-0.27c2.34-0.91,5.19-1.81,6.48,1.58c1.31,3.41-1.41,4.62-3.75,5.53
	L868.89,2004.06z M858.07,1994.41l10.42,27.16l6.2-2.39l-4.12-10.73l12.42,7.55l7.86-3.02l-13.66-7.64c2.92-2.33,4.09-5.92,2.53-10
	c-2.05-5.34-6.89-6.59-11.94-4.66L858.07,1994.41z"/>
<polygon style="&st3;" points="889.44,1988.59 895.88,1986.1 904.22,2007.84 910.42,2005.46 902.08,1983.73 908.53,1981.24 
	906.45,1975.82 887.36,1983.16 "/>
<polygon style="&st3;" points="921.11,1988.86 929.86,1985.5 934.05,1996.39 940.24,1994.01 929.82,1966.86 923.63,1969.23 
	927.79,1980.06 919.04,1983.42 914.88,1972.59 908.68,1974.98 919.1,2002.14 925.3,1999.75 "/>
<polygon style="&st3;" points="949.3,1959.39 933.75,1965.36 944.18,1992.51 959.72,1986.54 957.64,1981.12 948.3,1984.7 
	946.19,1979.23 955.14,1975.79 953.07,1970.36 944.11,1973.79 942.04,1968.39 951.38,1964.81 "/>
<path style="&st3;" d="M972.71,1964.32l-2.77-7.2l1.73-0.66c2.44-0.94,5.05-1.02,6.12,1.8c1.06,2.75-0.92,4.47-3.36,5.41
	L972.71,1964.32z M961.86,1954.57l10.42,27.16l6.2-2.39l-3.88-10.08l3.72-1.42c5.3-2.03,8.09-6.69,5.94-12.28
	c-2.16-5.64-7.19-6.83-12.48-4.8L961.86,1954.57z"/>
<polygon style="&st3;" points="999.33,1940.18 983.79,1946.15 994.21,1973.3 1009.75,1967.34 1007.68,1961.91 998.33,1965.49 
	996.22,1960.02 1005.18,1956.59 1003.1,1951.15 994.14,1954.59 992.07,1949.18 1001.41,1945.6 "/>
<path style="&st3;" d="M1013.71,1948.47l-2.73-7.11l0.72-0.27c2.34-0.91,5.19-1.81,6.48,1.58c1.31,3.41-1.41,4.62-3.75,5.53
	L1013.71,1948.47z M1002.88,1938.82l10.42,27.16l6.2-2.39l-4.12-10.73l12.42,7.55l7.86-3.02l-13.66-7.64
	c2.92-2.33,4.09-5.92,2.53-10c-2.05-5.34-6.89-6.59-11.94-4.66L1002.88,1938.82z"/>
<polygon style="&st3;" points="1042.19,1923.73 1026.48,1929.76 1036.91,1956.91 1043.11,1954.52 1038.92,1943.63 1047.7,1940.27 
	1045.62,1934.84 1036.84,1938.2 1034.77,1932.79 1044.27,1929.15 "/>
<path style="&st3;" d="M1055.8,1934.05c-1.56-4.06-0.86-8.95,3.91-10.78c4.8-1.84,8.52,1.36,10.08,5.42
	c1.55,4.05,1.08,8.88-3.86,10.77C1060.85,1941.41,1057.35,1938.1,1055.8,1934.05z M1049.13,1936.62
	c3.05,7.94,11.06,11.92,19.09,8.84c7.81-3,11.3-11.41,8.25-19.34s-11.5-11.7-19.05-8.81
	C1049.95,1920.18,1046.09,1928.68,1049.13,1936.62z"/>
<path style="&st3;" d="M1084.83,1921.17l-2.73-7.11l0.72-0.27c2.34-0.91,5.19-1.81,6.48,1.58c1.31,3.41-1.41,4.62-3.75,5.53
	L1084.83,1921.17z M1074,1911.52l10.42,27.16l6.2-2.39l-4.12-10.73l12.42,7.55l7.86-3.02l-13.66-7.64c2.92-2.33,4.09-5.92,2.53-10
	c-2.05-5.34-6.89-6.59-11.94-4.66L1074,1911.52z"/>
<polygon style="&st3;" points="1130.5,1920.99 1136.68,1918.61 1123.82,1892.39 1117.25,1894.91 1117.23,1912.88 1105.18,1899.54 
	1098.61,1902.07 1106.59,1930.16 1112.76,1927.79 1107.87,1911.19 1108.04,1911.11 1119.71,1924.94 1123.42,1923.52 
	1122.84,1905.44 1123.03,1905.36 "/>
<polygon style="&st3;" points="1134.93,1888.12 1128.73,1890.51 1139.15,1917.67 1145.35,1915.28 "/>
<polygon style="&st3;" points="1149.04,1894.52 1149.11,1894.5 1166.37,1907.2 1172.56,1904.83 1162.14,1877.67 1155.95,1880.05 
	1162.42,1896.91 1162.36,1896.94 1145.09,1884.22 1138.89,1886.61 1149.31,1913.77 1155.51,1911.38 "/>
<path style="&st3;" d="M1195.23,1878.67l-12.55,4.81l1.84,4.78l6.27-2.39c1.27,3.31-0.94,6.36-3.89,7.48
	c-3.83,1.47-8.36-1.09-10.12-5.7c-1.81-4.72-0.17-9.69,3.66-11.16c2.41-0.92,4.83-0.77,7.39,1.19l2.34-6.02
	c-3.48-1.95-7.47-2.45-12.25-0.62c-7.62,2.94-10.81,11.36-7.81,19.17c2.98,7.77,11.31,11.8,18.61,8.98
	c5.34-2.05,9.95-7.19,8.78-14.64L1195.23,1878.67z"/>
<path style="&st3;" d="M1222.61,1873.15l-6.12,2.34l-0.02-9.05l0.08-0.03L1222.61,1873.15z M1216.16,1856.95l-5.73,2.19l-0.53,31.38
	l6.66-2.56l-0.08-6.19l10.34-3.97l4.09,4.66l6.64-2.56L1216.16,1856.95z"/>
<path style="&st3;" d="M1238.97,1862l-2.73-7.11l0.72-0.27c2.34-0.91,5.19-1.81,6.48,1.58c1.31,3.41-1.41,4.62-3.75,5.53
	L1238.97,1862z M1228.14,1852.35l10.42,27.16l6.2-2.39l-4.12-10.73l12.42,7.55l7.86-3.02l-13.66-7.64c2.92-2.33,4.09-5.92,2.53-10
	c-2.05-5.34-6.89-6.59-11.94-4.66L1228.14,1852.35z"/>
<polygon style="&st3;" points="1250.83,1849.86 1257.27,1847.38 1265.61,1869.11 1271.82,1866.73 1263.47,1845 1269.93,1842.52 
	1267.85,1837.09 1248.75,1844.44 "/>
<path style="&st3;" d="M1279.9,1831.89c-4.39,1.69-7.62,6.62-5.69,11.7c1.09,2.83,3.97,4.64,7.86,4.98
	c3.86,0.39,7.08,0.17,7.84,2.14c0.97,2.53-1.55,3.66-2.91,4.17c-3.03,1.17-7.83-0.52-7.83-0.52l-1.08,6.39c0,0,5.22,2.12,11.58-0.31
	c5.3-2.05,9.36-6.22,6.88-12.7c-1.36-3.55-5.66-4.84-9.2-4.97c-3.59-0.14-6.58-0.23-7.16-1.75c-0.56-1.47,0.17-2.86,2.28-3.67
	c2.81-1.08,6.22-0.22,6.22-0.22l0.61-5.91C1289.3,1831.24,1284.84,1830,1279.9,1831.89z"/>
<polygon style="&st1;" points="0,0 1584,0 1584,624.84 792,956.11 0,624.84 "/>
<polygon style="&st3;" points="594.38,438.5 625.93,438.5 661.57,313.35 630.02,313.35 608.63,399.21 607.88,399.21 585.12,313.35 
	563.59,313.35 540.84,399.21 540.07,399.21 518.68,313.35 486.98,313.35 522.63,438.5 554.34,438.5 574.35,368.26 "/>
<polygon style="&st3;" points="740.02,313.35 668.41,313.35 668.41,438.5 740.02,438.5 740.02,413.46 696.94,413.46 696.94,388.29 
	738.19,388.29 738.19,363.26 696.94,363.26 696.94,338.39 740.02,338.39 "/>
<path style="&st3;" d="M862.35,388.43h-28.2l13.95-36.41h0.3L862.35,388.43z M861.44,313.35h-26.39L784.54,438.5h30.64l9.25-25.03
	h47.64l9.25,25.03h30.64L861.44,313.35z"/>
<path style="&st3;" d="M945.21,368.87V336.1h3.33c10.77,0,23.67,0.77,23.67,16.39c0,15.61-12.91,16.38-23.67,16.38H945.21z
	 M916.68,313.35V438.5h28.53v-49.45l38.22,49.45h36.25l-43.08-51.72c15.33-4.86,25.64-17.45,25.64-36.27
	c0-24.56-17.59-37.16-40.81-37.16H916.68z"/>
<polygon style="&st3;" points="1097.02,313.35 1025.41,313.35 1025.41,438.5 1097.02,438.5 1097.02,413.46 1053.95,413.46 
	1053.95,388.29 1095.2,388.29 1095.2,363.26 1053.95,363.26 1053.95,338.39 1097.02,338.39 "/>
<path style="&st3;" d="M855.63,789.82c-7.23-17.25-4.94-38.5,15.39-47.03c20.47-8.58,36.95,4.8,44.19,22.05
	c7.23,17.23,5.78,38.11-15.25,46.92C878.36,820.82,862.86,807.06,855.63,789.82z M827.18,801.74
	c14.17,33.77,49.25,49.89,83.47,35.55c33.22-13.92,47.2-50.62,33.03-84.39c-14.17-33.8-51.19-48.95-83.3-35.48
	C828.55,730.76,813,767.94,827.18,801.74z"/>
<polygon style="&st3;" points="975.82,723.08 976.11,722.97 1052.2,775.45 1078.56,764.41 1030.06,648.75 1003.7,659.8 
	1033.79,731.58 1033.51,731.7 957.43,679.2 931.09,690.25 979.59,805.91 1005.93,794.86 "/>
<path style="&st3;" d="M1137.04,685.48l-26.08,10.94l-1.22-39.05l0.28-0.12L1137.04,685.48z M1107.1,616.44l-24.39,10.22
	l1.81,135.23l28.31-11.88l-1.14-26.7l44.02-18.47l18.25,19.55l28.33-11.88L1107.1,616.44z"/>
<path style="&st3;" d="M1207.48,634.67l-12.7-30.28l3.09-1.3c9.95-4.17,22.17-8.47,28.23,5.97c6.05,14.44-5.58,20.14-15.53,24.31
	L1207.48,634.67z M1159.62,594.42l48.5,115.66l26.34-11.05l-19.17-45.7l54.5,30.89l33.52-14.05l-59.86-31.12
	c12.28-10.42,16.94-26.06,9.66-43.44c-9.53-22.72-30.69-27.52-52.14-18.53L1159.62,594.42z"/>
<rect x="1283.25" y="541.88" transform="matrix(0.9222 -0.3867 0.3867 0.9222 -132.8542 548.8293)" style="&st3;" width="28.57" height="125.41"/>
<polygon style="&st3;" points="1369.53,506.39 1303.38,534.14 1351.88,649.79 1418.03,622.04 1408.33,598.92 1368.52,615.62 
	1358.75,592.34 1396.89,576.34 1387.2,553.2 1349.06,569.2 1339.42,546.21 1379.23,529.51 "/>
<path style="&st3;" d="M1429.31,478.84c-18.64,7.83-31.95,29.56-22.89,51.16c5.05,12.06,17.72,19.44,34.47,20.5
	c16.62,1.09,30.55-0.3,34.08,8.12c4.53,10.78-6.17,15.92-11.92,18.34c-12.89,5.41-33.8-1.16-33.8-1.16l-3.88,27.66
	c0,0,22.8,8.42,49.86-2.92c22.58-9.47,39.55-27.95,27.97-55.58c-6.36-15.14-25.09-20.14-40.28-20.2
	c-15.53-0.08-28.41-0.12-31.11-6.58c-2.64-6.31,0.41-12.38,9.39-16.12c11.91-5,26.75-1.84,26.75-1.84l1.86-25.48
	C1469.81,474.73,1450.34,470.02,1429.31,478.84z"/>
<path style="&st3;" d="M121.74,528.38l12.67-30.22l3.06,1.3c9.92,4.16,21.53,9.84,15.48,24.25c-6.03,14.41-18.23,10.12-28.16,5.97
	L121.74,528.38z M116.9,466.15L68.5,581.55l26.31,11.03l19.12-45.61l16.11,60.39l33.44,14.02l-19.73-64.34
	c16.02,1.44,30.41-6.19,37.69-23.53c9.48-22.66-1.88-41.08-23.28-50.05L116.9,466.15z"/>
<polygon style="&st3;" points="280.31,534.67 214.28,506.98 165.89,622.39 231.92,650.07 241.59,627 201.88,610.34 211.61,587.12 
	249.64,603.07 259.33,580 221.3,564.04 230.92,541.09 270.64,557.75 "/>
<polygon style="&st3;" points="283.13,671.56 303.83,680.23 400.63,585.12 370.97,572.69 310.08,636.32 312.77,548.29 
	283.11,535.85 "/>
<path style="&st3;" d="M395.38,650.69c7.22-17.2,23.95-30.42,44.23-21.92c20.42,8.56,22.44,29.66,15.22,46.86
	c-7.2,17.2-23.09,30.77-44.08,21.97C389.22,688.57,388.18,667.9,395.38,650.69z M366.99,638.79c-14.12,33.7-1.03,69.97,33.09,84.28
	c33.16,13.91,69.03-1.83,83.16-35.53c14.14-33.72-0.97-70.66-33-84.09C418.49,590.13,381.13,605.07,366.99,638.79z"/>
<polygon style="&st3;" points="541.71,644.28 515.4,633.25 467.01,748.66 533.04,776.34 542.71,753.27 502.99,736.61 "/>
<path style="&st3;" d="M678,701.43l-26.3-11.03l-27.98,66.73c-8.09,19.3-16.31,22.44-29.19,17.03c-12.86-5.39-16.39-13.44-8.3-32.73
	l27.98-66.74l-26.31-11.03l-31.2,74.42c-11.97,28.53-2.38,49.66,26.98,61.97c29.38,12.33,51.14,4.33,63.11-24.2L678,701.43z"/>
<polygon style="&st3;" points="676.47,727.93 703.88,739.43 665.16,831.75 691.47,842.79 730.19,750.46 757.59,761.94 
	767.27,738.86 686.14,704.85 "/>
<polygon style="&st3;" points="806.2,742.13 777.79,742.14 777.8,866.85 792.01,872.79 806.21,866.85 "/>
<polygon style="&st1;" points="544.37,1024.49 561.43,1031.46 608.37,971.66 591.31,964.69 560.76,1006.38 560.35,1006.23 
	567.02,954.77 555.38,950.01 524.1,991.4 523.69,991.23 531.1,940.07 513.96,933.07 505.57,1008.62 522.71,1015.63 549.06,982.07 
	"/>
<polygon style="&st1;" points="610.89,1020.02 632.71,1028.94 621.62,1056.08 637.04,1062.39 664.71,994.72 649.29,988.41 
	638.26,1015.39 616.43,1006.47 627.46,979.48 612.06,973.19 584.39,1040.86 599.79,1047.16 "/>
<path style="&st1;" d="M692.77,1053.59l-15.23-6.23l15.58-16.59l0.17,0.08L692.77,1053.59z M708.89,1012.78l-14.27-5.83l-54.98,56.5
	l16.58,6.78l10.53-11.48l25.73,10.52l-0.52,15.58l16.56,6.78L708.89,1012.78z"/>
<polygon style="&st1;" points="721,1033.54 737.08,1040.12 714.94,1094.25 730.36,1100.54 752.5,1046.42 768.58,1053 
	774.11,1039.45 726.54,1020 "/>
<path style="&st1;" d="M149.28,1011.77l6.55-16l4.84,1.98c7.31,2.98,10.42,6.84,7.88,13.08c-2.19,5.34-7.11,5.91-14.42,2.92
	L149.28,1011.77z M161.27,982.49l5.97-14.59l1.23,0.5c6.72,2.75,9.41,6.23,7.42,11.09c-2.31,5.64-6.73,6.23-13.39,3.5L161.27,982.49
	z M156.69,949.69l-27.67,67.67l25.67,10.5c14.02,5.73,25.3,1.34,29.86-9.81c4.45-10.92,0.38-18.05-7.47-22.97
	c6.94-0.59,11.83-4.84,14.38-11.06c5.27-12.88-2.12-20.98-13.77-25.75L156.69,949.69z"/>
<polygon style="&st1;" points="226.71,978.33 211.31,972.03 183.64,1039.7 222.34,1055.53 227.87,1042 204.57,1032.47 "/>
<path style="&st1;" d="M277.11,1046.35l-15.23-6.23l15.58-16.59l0.17,0.08L277.11,1046.35z M293.24,1005.54l-14.26-5.83l-54.99,56.5
	l16.58,6.78l10.53-11.48l25.73,10.52l-0.52,15.58l16.56,6.78L293.24,1005.54z"/>
<path style="&st1;" d="M334.58,1085.16c-15.5-6.34-17.89-19.97-14.16-29.06c3.69-9.02,14.92-17.08,30.42-10.73
	c7.88,3.22,11.58,9.64,11.58,9.64l11.92-10.45c0,0-5-9.31-19.67-15.31c-19.2-7.86-43.11,0.73-51.06,20.17
	c-7.92,19.38,3.28,42.14,22.39,49.95c14.67,6,24.77,2.86,24.77,2.86l-1.19-15.81C349.58,1086.41,342.45,1088.38,334.58,1085.16z"/>
<polygon style="&st1;" points="416.3,1134.85 399.38,1086.38 439.7,1065.43 421,1057.79 386.47,1075.94 397.78,1048.29 
	382.38,1041.99 354.7,1109.66 370.11,1115.96 381.84,1087.26 395.05,1126.16 "/>
<path style="&st1;" d="M472.38,1114.12l7.34-17.95l4.36,1.78c6.08,2.48,10.97,6.88,8.12,13.84c-2.81,6.89-9.39,6.59-15.47,4.11
	L472.38,1114.12z M469.35,1077.56l-27.67,67.67l15.41,6.3l10.27-25.09l9.28,3.8c13.2,5.39,26.31,1.66,32.02-12.28
	c5.73-14.03-1.41-24.91-14.61-30.3L469.35,1077.56z"/>
<path style="&st1;" d="M523.79,1139.26c4.12-10.09,13.81-17.89,25.72-13.02c11.97,4.89,13.25,17.19,9.12,27.28
	c-4.12,10.08-13.36,18.08-25.64,13.06C520.35,1161.41,519.66,1149.34,523.79,1139.26z M507.11,1132.44
	c-8.09,19.78-0.23,40.89,19.78,49.08c19.44,7.94,40.3-1.42,48.39-21.2c8.08-19.76-0.95-41.25-19.72-48.92
	C536.94,1103.77,515.19,1112.68,507.11,1132.44z"/>
<polygon style="&st1;" points="617.58,1217.17 634.64,1224.14 681.58,1164.34 664.52,1157.37 633.97,1199.06 633.56,1198.9 
	640.23,1147.45 628.59,1142.68 597.31,1184.07 596.91,1183.9 604.31,1132.75 587.17,1125.75 578.78,1201.29 595.92,1208.31 
	622.27,1174.75 "/>
<polygon style="&st1;" points="723.97,1181.69 685.27,1165.86 657.6,1233.54 696.3,1249.36 701.83,1235.83 678.54,1226.3 
	684.1,1212.69 706.43,1221.82 711.97,1208.27 689.65,1199.15 695.15,1185.71 718.44,1195.24 "/>
<path style="&st1;" d="M735.97,1221.65l7.25-17.72l1.81,0.75c5.83,2.38,12.62,5.64,9.17,14.09c-3.45,8.45-10.59,6-16.42,3.62
	L735.97,1221.65z M732.84,1185.32l-27.67,67.67l15.41,6.3l10.94-26.73l9.75,35.19l19.59,8.02L749,1238.27
	c9.36,0.75,17.73-3.77,21.89-13.92c5.44-13.3-1.3-24-13.86-29.14L732.84,1185.32z"/>
<polygon style="&st1;" points="395.25,1225.79 411.32,1232.37 389.18,1286.5 404.6,1292.79 426.75,1238.67 442.82,1245.25 
	448.35,1231.7 400.78,1212.25 "/>
<polygon style="&st1;" points="492.6,1249.8 453.9,1233.98 426.23,1301.65 464.93,1317.48 470.46,1303.95 447.16,1294.41 
	452.73,1280.8 475.06,1289.93 480.6,1276.38 458.27,1267.26 463.77,1253.82 487.07,1263.35 "/>
<polygon style="&st1;" points="516.88,1259.73 501.47,1253.43 473.8,1321.1 512.5,1336.93 518.03,1323.4 494.73,1313.87 "/>
<polygon style="&st1;" points="563.17,1278.66 547.76,1272.36 520.09,1340.03 558.79,1355.86 564.32,1342.33 541.03,1332.8 "/>
<path style="&st1;" d="M619.47,1300.26c-10.89-4.45-25.33-0.98-30.5,11.64c-2.88,7.06-0.72,15.33,5.76,22.67
	c6.39,7.3,12.7,12.47,10.69,17.38c-2.58,6.33-9.11,4.03-12.48,2.66c-7.55-3.09-13.42-14.41-13.42-14.41l-13.03,9.81
	c0,0,5.95,12.88,21.78,19.34c13.2,5.39,27.81,4.77,34.42-11.39c3.62-8.86-2.05-18.66-8.27-24.92c-6.38-6.42-11.69-11.75-10.14-15.53
	c1.52-3.69,5.28-4.94,10.53-2.8c6.97,2.86,11.78,10.28,11.78,10.28l11.26-9.73C637.86,1315.26,631.79,1305.29,619.47,1300.26z"/>
<path style="&st1;" d="M723.58,1344.26l-15.42-6.31l-16,39.12c-4.62,11.33-9.42,13.2-16.95,10.12c-7.55-3.09-9.64-7.78-5.02-19.11
	l16-39.12l-15.42-6.3l-17.84,43.64c-6.84,16.73-1.14,29.02,16.08,36.06s29.89,2.27,36.73-14.47L723.58,1344.26z"/>
<path style="&st1;" d="M756.43,1356.27c-10.89-4.45-25.33-0.98-30.5,11.64c-2.88,7.06-0.72,15.33,5.77,22.67
	c6.39,7.3,12.7,12.47,10.69,17.38c-2.58,6.33-9.11,4.03-12.48,2.66c-7.55-3.09-13.42-14.41-13.42-14.41l-13.03,9.81
	c0,0,5.95,12.88,21.78,19.34c13.2,5.39,27.81,4.77,34.42-11.39c3.62-8.86-2.05-18.66-8.27-24.92c-6.38-6.42-11.69-11.75-10.14-15.53
	c1.52-3.69,5.28-4.94,10.53-2.8c6.97,2.86,11.78,10.28,11.78,10.28l11.27-9.73C774.82,1371.27,768.74,1361.3,756.43,1356.27z"/>
<path style="&st1;" d="M845.09,1392.04l-15.27,6.17l-0.41-22.77l0.17-0.08L845.09,1392.04z M828.2,1351.55l-14.3,5.77l-0.02,78.83
	l16.59-6.69l-0.45-15.59l25.8-10.39l10.48,11.53l16.61-6.7L828.2,1351.55z"/>
<path style="&st1;" d="M896.12,1389.14l-6.47-16.03l4.86-1.95c7.31-2.95,12.23-2.36,14.75,3.89c2.16,5.34-0.97,9.19-8.28,12.14
	L896.12,1389.14z M884.27,1359.8l-5.89-14.62l1.23-0.5c6.73-2.72,11.08-2.09,13.05,2.75c2.28,5.67-0.5,9.19-7.16,11.88
	L884.27,1359.8z M858.12,1339.48l27.34,67.8l25.72-10.38c14.06-5.67,19.08-16.67,14.56-27.84c-4.41-10.95-12.3-13.2-21.34-11.27
	c4.56-5.28,5.11-11.72,2.58-17.97c-5.2-12.89-16.16-13.53-27.81-8.83L858.12,1339.48z"/>
<path style="&st1;" d="M940.16,1345.75c-4.08-10.11-2.58-22.47,9.34-27.27c12-4.84,21.5,3.08,25.58,13.19
	c4.08,10.09,3.06,22.28-9.27,27.25C953.16,1364.04,944.24,1355.85,940.16,1345.75z M923.47,1352.49
	c7.98,19.81,28.33,29.47,48.38,21.39c19.48-7.86,27.89-29.12,19.91-48.94s-29.44-28.92-48.25-21.33
	C924.85,1311.13,915.49,1332.68,923.47,1352.49z"/>
<path style="&st1;" d="M1037.02,1267.33l-15.44,6.22l15.81,39.19c4.58,11.34,2.42,16.05-5.12,19.09
	c-7.56,3.05-12.33,1.14-16.91-10.2l-15.81-39.19l-15.45,6.23l17.62,43.72c6.77,16.77,19.42,21.59,36.69,14.64
	c17.25-6.97,23-19.22,16.23-35.98L1037.02,1267.33z"/>
<polygon style="&st1;" points="1043.24,1280.58 1059.35,1274.08 1081.23,1328.32 1096.68,1322.08 1074.8,1267.85 1090.91,1261.36 
	1085.45,1247.8 1037.77,1267.02 "/>
<path style="&st1;" d="M842.4,1571.01l-16.22-40.17l2.39-0.97c11.5-4.64,22.86,1,27.44,12.36c4.5,11.36,0.2,23.22-11.22,27.81
	L842.4,1571.01z M805.17,1523.26l27.34,67.8l19.66-7.92c18.64-7.53,28.48-27.92,20.5-47.73c-7.95-19.72-29.28-27.56-47.84-20.06
	L805.17,1523.26z"/>
<polygon style="&st1;" points="904.63,1483.13 865.83,1498.79 893.18,1566.59 931.97,1550.93 926.5,1537.37 903.16,1546.79 
	897.66,1533.15 920.02,1524.13 914.55,1510.57 892.19,1519.59 886.75,1506.12 910.1,1496.7 "/>
<polygon style="&st1;" points="996.89,1524.75 1012.34,1518.52 978.92,1453.17 962.48,1459.81 963.22,1505 932.42,1471.94 
	915.97,1478.56 937.23,1548.81 952.69,1542.58 939.69,1501.11 940.09,1500.94 970.03,1535.11 979.23,1531.41 977.08,1486.02 
	977.5,1485.86 "/>
<path style="&st1;" d="M1018.49,1476.57c-4.08-10.11-2.58-22.47,9.34-27.27c12-4.84,21.5,3.08,25.58,13.19
	c4.08,10.09,3.06,22.28-9.27,27.25C1031.49,1494.86,1022.57,1486.67,1018.49,1476.57z M1001.8,1483.31
	c7.98,19.81,28.33,29.47,48.38,21.39c19.48-7.86,27.89-29.12,19.91-48.94s-29.44-28.92-48.25-21.33
	C1003.18,1441.95,993.82,1463.5,1001.8,1483.31z"/>
<path style="&st1;" d="M1121.04,1458.43c-15.55,6.27-26.73-1.83-30.41-10.94c-3.64-9.05-1.22-22.66,14.33-28.92
	c7.88-3.17,15.02-1.16,15.02-1.16l1.25-15.81c0,0-10.08-3.2-24.78,2.73c-19.23,7.77-30.38,30.59-22.52,50.06
	c7.83,19.41,31.7,27.92,50.86,20.2c14.7-5.94,19.75-15.23,19.75-15.23l-11.88-10.48
	C1132.66,1448.89,1128.91,1455.26,1121.04,1458.43z"/>
<path style="&st1;" d="M1152.77,1418.02l-7.16-17.75l1.81-0.73c5.84-2.34,13-4.77,16.41,3.7c3.42,8.47-3.41,11.7-9.25,14.05
	L1152.77,1418.02z M1125.19,1394.18l27.34,67.8l15.45-6.23l-10.81-26.8l31.53,18.44l19.64-7.92l-34.64-18.61
	c7.23-5.95,10.08-15.05,5.97-25.23c-5.38-13.31-17.66-16.3-30.23-11.22L1125.19,1394.18z"/>
<path style="&st1;" d="M1235.41,1397.02l-15.27,6.17l-0.41-22.77l0.17-0.08L1235.41,1397.02z M1218.52,1356.53l-14.3,5.77
	l-0.02,78.83l16.59-6.69l-0.45-15.59l25.8-10.39l10.48,11.53l16.61-6.7L1218.52,1356.53z"/>
<path style="&st1;" d="M1303.67,1384.77c-15.55,6.27-26.73-1.83-30.41-10.94c-3.64-9.05-1.22-22.66,14.33-28.92
	c7.88-3.17,15.02-1.16,15.02-1.16l1.25-15.81c0,0-10.08-3.2-24.78,2.73c-19.23,7.77-30.38,30.59-22.52,50.06
	c7.83,19.41,31.7,27.92,50.86,20.2c14.7-5.94,19.75-15.23,19.75-15.23l-11.88-10.48C1315.3,1375.22,1311.55,1381.59,1303.67,1384.77
	z"/>
<polygon style="&st1;" points="1300.43,1323.5 1340.5,1350.81 1352.76,1381.21 1368.21,1374.98 1355.95,1344.57 1365.86,1297.11 
	1347.28,1304.61 1341.89,1332 1319.01,1316 "/>
<rect x="819.04" y="1679.58" transform="matrix(0.9274 -0.3741 0.3741 0.9274 -581.9785 434.1888)" style="&st1;" width="16.66" height="73.1"/>
<polygon style="&st1;" points="857.16,1694.61 857.33,1694.54 901.25,1725.75 916.71,1719.51 889.36,1651.71 873.91,1657.95 
	890.88,1700.03 890.71,1700.09 846.79,1668.89 831.33,1675.12 858.68,1742.92 874.13,1736.68 "/>
<path style="&st1;" d="M973.02,1665.27l-15.27,6.17l-0.41-22.77l0.17-0.08L973.02,1665.27z M956.13,1624.79l-14.3,5.77l-0.02,78.83
	l16.59-6.69l-0.45-15.59l25.8-10.39l10.48,11.53l16.61-6.7L956.13,1624.79z"/>
<polygon style="&st1;" points="1069.44,1657.91 1084.89,1651.67 1051.47,1586.33 1035.03,1592.97 1035.77,1638.16 1004.97,1605.09 
	988.52,1611.72 1009.78,1681.97 1025.23,1675.73 1012.23,1634.27 1012.64,1634.09 1042.58,1668.27 1051.78,1664.56 1049.62,1619.17 
	1050.05,1619.02 "/>
<polygon style="&st1;" points="1102.52,1565.73 1063.72,1581.39 1091.07,1649.18 1129.86,1633.53 1124.39,1619.96 1101.05,1629.39 
	1095.55,1615.75 1117.91,1606.73 1112.44,1593.17 1090.08,1602.18 1084.64,1588.71 1107.99,1579.29 "/>
<path style="&st1;" d="M1138.97,1586l-7.16-17.75l1.81-0.73c5.84-2.34,13-4.77,16.41,3.7c3.42,8.47-3.41,11.7-9.25,14.05
	L1138.97,1586z M1111.39,1562.16l27.34,67.8l15.45-6.23l-10.81-26.8l31.53,18.44l19.64-7.92l-34.64-18.61
	c7.23-5.95,10.08-15.05,5.97-25.23c-5.38-13.31-17.66-16.3-30.23-11.22L1111.39,1562.16z"/>
<rect x="1183.36" y="1532.63" transform="matrix(0.9274 -0.3741 0.3741 0.9274 -500.542 559.8195)" style="&st1;" width="16.66" height="73.1"/>
<path style="&st1;" d="M1250.88,1568.48c-15.55,6.27-26.73-1.83-30.41-10.94c-3.64-9.05-1.22-22.66,14.33-28.92
	c7.88-3.17,15.02-1.16,15.02-1.16l1.25-15.81c0,0-10.08-3.2-24.78,2.73c-19.23,7.77-30.38,30.59-22.52,50.06
	c7.83,19.41,31.7,27.92,50.86,20.2c14.7-5.94,19.75-15.23,19.75-15.23l-11.88-10.48C1262.5,1558.93,1258.75,1565.3,1250.88,1568.48z
	"/>
<path style="&st1;" d="M1306.36,1530.82l-15.27,6.17l-0.41-22.77l0.17-0.08L1306.36,1530.82z M1289.46,1490.34l-14.3,5.77
	l-0.02,78.83l16.59-6.69l-0.45-15.59l25.8-10.39l10.48,11.53l16.61-6.7L1289.46,1490.34z"/>
<path style="&st3;" d="M386.63,1788.02l-5.94-2.28l5.86-6.53l0.06,0.03L386.63,1788.02z M392.47,1772.18l-5.55-2.14l-20.72,22.23
	l6.45,2.48l3.95-4.53l10.02,3.84l-0.08,6.02l6.45,2.47L392.47,1772.18z"/>
<path style="&st3;" d="M417.81,1805.86c-6.03-2.31-7.06-7.53-5.7-11.08c1.34-3.52,5.61-6.7,11.64-4.39
	c3.06,1.17,4.55,3.61,4.55,3.61l4.52-4.12c0,0-2.02-3.55-7.72-5.75c-7.47-2.86-16.61,0.66-19.52,8.22
	c-2.89,7.52,1.61,16.22,9.05,19.06c5.7,2.2,9.58,0.91,9.58,0.91l-0.59-6.09C423.61,1806.22,420.88,1807.03,417.81,1805.86z"/>
<path style="&st3;" d="M436.13,1804c1.5-3.92,5.17-7.02,9.8-5.23c4.66,1.78,5.27,6.52,3.77,10.44c-1.52,3.92-5,7.09-9.78,5.25
	C435,1812.56,434.61,1807.92,436.13,1804z M429.66,1801.52c-2.95,7.69,0.23,15.77,8.02,18.75c7.56,2.91,15.55-0.89,18.5-8.58
	c2.94-7.69-0.72-15.89-8.03-18.7C440.91,1790.2,432.6,1793.83,429.66,1801.52z"/>
<polygon style="&st3;" points="466.02,1811.83 466.09,1811.86 470.28,1832.22 476.28,1834.52 486.38,1808.21 480.38,1805.91 
	474.11,1822.22 474.05,1822.21 469.84,1801.86 463.84,1799.57 453.75,1825.88 459.75,1828.18 "/>
<polygon style="&st3;" points="485.6,1838.1 490.32,1839.91 511.46,1817.84 504.69,1815.24 491.43,1829.98 491.41,1810.15 
	484.66,1807.55 "/>
<polygon style="&st3;" points="527.51,1824.01 512.45,1818.23 502.35,1844.54 517.42,1850.32 519.43,1845.05 510.37,1841.57 
	512.4,1836.27 521.07,1839.6 523.1,1834.34 514.43,1831.01 516.43,1825.79 525.5,1829.27 "/>
<path style="&st3;" d="M532.49,1839.3l2.64-6.89l0.7,0.27c2.27,0.88,4.92,2.08,3.66,5.36c-1.25,3.28-4.03,2.41-6.3,1.53
	L532.49,1839.3z M530.96,1825.33l-10.09,26.31l6,2.3l4-10.41l4.03,13.5l7.64,2.92l-4.89-14.34c3.61,0.2,6.8-1.61,8.31-5.56
	c2-5.17-0.7-9.23-5.59-11.11L530.96,1825.33z"/>
<path style="&st3;" d="M563.71,1837.34c-4.25-1.62-9.77-0.16-11.66,4.75c-1.06,2.75-0.14,5.92,2.41,8.69c2.52,2.75,5,4.7,4.27,6.61
	c-0.94,2.47-3.47,1.62-4.77,1.12c-2.95-1.12-5.33-5.42-5.33-5.42l-4.92,3.88c0,0,2.39,4.92,8.55,7.28
	c5.12,1.97,10.75,1.61,13.17-4.69c1.31-3.44-0.92-7.17-3.39-9.55c-2.52-2.41-4.61-4.42-4.05-5.89c0.56-1.44,2.02-1.95,4.03-1.17
	c2.72,1.05,4.64,3.88,4.64,3.88l4.27-3.84C570.93,1842.98,568.5,1839.19,563.71,1837.34z"/>
<path style="&st3;" d="M582.79,1863.32l-5.94-2.28l5.86-6.53l0.06,0.03L582.79,1863.32z M588.64,1847.48l-5.55-2.14l-20.72,22.23
	l6.45,2.48l3.95-4.53l10.02,3.84l-0.08,6.02l6.45,2.47L588.64,1847.48z"/>
<polygon style="&st3;" points="595.02,1855.96 601.27,1858.36 593.19,1879.41 599.19,1881.71 607.27,1860.66 613.54,1863.07 
	615.55,1857.8 597.04,1850.69 "/>
<polygon style="&st3;" points="623.69,1860.92 617.69,1858.62 607.6,1884.94 613.6,1887.23 "/>
<path style="&st3;" d="M627.81,1877.58c1.5-3.92,5.17-7.02,9.8-5.23c4.66,1.78,5.27,6.52,3.77,10.44c-1.52,3.92-5,7.09-9.78,5.25
	C626.68,1886.14,626.29,1881.5,627.81,1877.58z M621.34,1875.09c-2.95,7.69,0.23,15.77,8.02,18.75c7.56,2.91,15.55-0.89,18.5-8.58
	c2.94-7.69-0.72-15.89-8.03-18.7C632.59,1863.78,624.28,1867.41,621.34,1875.09z"/>
<polygon style="&st3;" points="657.69,1885.41 657.77,1885.44 661.96,1905.8 667.96,1908.1 678.05,1881.79 672.05,1879.49 
	665.79,1895.8 665.72,1895.79 661.52,1875.44 655.52,1873.14 645.43,1899.46 651.43,1901.75 "/>
<polygon style="&st3;" points="697.97,1919.62 704.6,1922.17 722.19,1898.73 715.57,1896.18 704.15,1912.53 703.97,1912.46 
	706.11,1892.56 701.6,1890.82 689.9,1907.06 689.72,1907 692.15,1887.2 685.47,1884.64 682.88,1913.82 689.55,1916.39 
	699.44,1903.23 "/>
<polygon style="&st3;" points="729.63,1901.59 723.63,1899.29 713.54,1925.6 719.54,1927.9 "/>
<polygon style="&st3;" points="728.25,1907.1 734.5,1909.5 726.42,1930.55 732.42,1932.85 740.5,1911.8 746.76,1914.21 
	748.78,1908.94 730.26,1901.83 "/>
<polygon style="&st3;" points="750.88,1927.81 759.36,1931.08 755.31,1941.64 761.31,1943.94 771.41,1917.62 765.41,1915.33 
	761.39,1925.81 752.91,1922.55 756.92,1912.06 750.92,1909.77 740.83,1936.08 746.83,1938.38 "/>
<path style="&st3;" d="M116.86,1725.62l2.69-6.98l1.69,0.66c2.38,0.91,4.3,2.55,3.25,5.27c-1.03,2.69-3.56,2.62-5.94,1.72
	L116.86,1725.62z M115.38,1711.56l-10.09,26.31l6,2.3l3.75-9.77l3.62,1.39c5.12,1.97,10.14,0.42,12.24-5
	c2.09-5.45-0.77-9.58-5.89-11.55L115.38,1711.56z"/>
<polygon style="&st3;" points="151.69,1725.5 136.62,1719.72 126.53,1746.03 141.59,1751.81 143.61,1746.55 134.55,1743.06 
	136.58,1737.77 145.25,1741.09 147.28,1735.83 138.61,1732.5 140.61,1727.28 149.67,1730.77 "/>
<polygon style="&st3;" points="157.31,1739.09 157.38,1739.12 161.57,1759.48 167.57,1761.77 177.66,1735.46 171.66,1733.16 
	165.4,1749.48 165.34,1749.46 161.13,1729.12 155.13,1726.82 145.04,1753.13 151.04,1755.43 "/>
<polygon style="&st3;" points="187.49,1739.24 181.49,1736.94 171.4,1763.25 177.4,1765.55 "/>
<polygon style="&st3;" points="206.4,1746.5 191.34,1740.72 181.24,1767.03 196.31,1772.81 198.32,1767.55 189.26,1764.06 
	191.29,1758.77 199.96,1762.09 201.99,1756.83 193.32,1753.5 195.32,1748.28 204.38,1751.77 "/>
<polygon style="&st3;" points="215.84,1750.12 209.84,1747.82 199.75,1774.14 214.81,1779.92 216.83,1774.65 207.77,1771.17 "/>
<path style="&st3;" d="M248.03,1762.48l-6-2.3l-6.66,17.34c-1.02,2.66-2.72,3.2-4.45,2.53c-1.53-0.58-2.72-3.08-2.72-3.08
	l-3.83,4.27c0,0,1.42,3.44,5.17,4.89c5.28,2.02,9.27,0.39,11.25-4.78L248.03,1762.48z"/>
<path style="&st3;" d="M251.8,1779c1.5-3.92,5.17-7.02,9.8-5.23c4.66,1.78,5.27,6.52,3.77,10.44c-1.52,3.92-5,7.09-9.78,5.25
	C250.67,1787.56,250.28,1782.92,251.8,1779z M245.33,1776.51c-2.95,7.69,0.23,15.77,8.02,18.75c7.56,2.91,15.55-0.89,18.5-8.58
	c2.94-7.69-0.72-15.89-8.03-18.7C256.58,1765.2,248.27,1768.82,245.33,1776.51z"/>
<path style="&st3;" d="M289.4,1777.8c-4.25-1.62-9.76-0.16-11.66,4.75c-1.06,2.75-0.14,5.92,2.41,8.69c2.52,2.75,5,4.7,4.27,6.61
	c-0.94,2.47-3.47,1.62-4.77,1.12c-2.95-1.12-5.33-5.42-5.33-5.42l-4.92,3.88c0,0,2.39,4.92,8.55,7.28
	c5.12,1.97,10.75,1.61,13.17-4.69c1.31-3.44-0.92-7.17-3.39-9.55c-2.52-2.41-4.61-4.42-4.05-5.89c0.56-1.44,2.02-1.95,4.03-1.17
	c2.72,1.05,4.64,3.88,4.64,3.88l4.27-3.84C296.62,1783.44,294.18,1779.64,289.4,1777.8z"/>
<polygon style="&st3;" points="316.01,1788.57 300.95,1782.79 290.85,1809.11 305.92,1814.89 307.93,1809.62 298.87,1806.14 
	300.9,1800.84 309.57,1804.17 311.6,1798.9 302.93,1795.57 304.93,1790.36 314,1793.84 "/>
<path style="&st3;" d="M320.94,1803.96l2.69-6.98l1.69,0.66c2.38,0.91,4.3,2.55,3.25,5.27c-1.03,2.69-3.56,2.62-5.94,1.72
	L320.94,1803.96z M319.45,1789.9l-10.09,26.31l6,2.3l3.75-9.77l3.62,1.39c5.12,1.97,10.14,0.42,12.23-5
	c2.09-5.45-0.77-9.58-5.89-11.55L319.45,1789.9z"/>
<polygon style="&st3;" points="340.66,1816.1 349.14,1819.37 345.09,1829.93 351.09,1832.23 361.19,1805.91 355.19,1803.62 
	351.17,1814.1 342.69,1810.84 346.7,1800.35 340.7,1798.05 330.61,1824.37 336.61,1826.66 "/>
<path style="&st3;" d="M381.26,1831.72l-5.94-2.28l5.86-6.53l0.06,0.03L381.26,1831.72z M387.1,1815.88l-5.55-2.14l-20.72,22.23
	l6.45,2.48l3.95-4.53l10.02,3.84l-0.08,6.02l6.45,2.47L387.1,1815.88z"/>
<polygon style="&st3;" points="400.89,1832.59 400.97,1832.62 405.16,1852.98 411.16,1855.28 421.25,1828.96 415.25,1826.67 
	408.98,1842.98 408.92,1842.96 404.72,1822.62 398.72,1820.32 388.62,1846.64 394.62,1848.93 "/>
<path style="&st3;" d="M423.05,1853.7l5.98-15.61l0.94,0.36c4.45,1.72,6.19,6.3,4.5,10.7c-1.72,4.41-6.05,6.61-10.48,4.91
	L423.05,1853.7z M425.08,1830.45l-10.09,26.31l7.64,2.92c7.23,2.78,15.38-0.39,18.33-8.08c2.94-7.66-1.03-15.47-8.23-18.23
	L425.08,1830.45z"/>
<polygon style="&st3;" points="451.61,1840.62 455.75,1858.88 451.22,1870.67 457.22,1872.97 461.75,1861.17 477.02,1850.38 
	469.82,1847.61 461.11,1853.91 458.85,1843.41 "/>
<path style="&st3;" d="M478.25,1865.92c1.5-3.92,5.17-7.02,9.8-5.23c4.66,1.78,5.27,6.52,3.77,10.44c-1.52,3.92-5,7.09-9.78,5.25
	C477.12,1874.48,476.73,1869.84,478.25,1865.92z M471.78,1863.44c-2.95,7.69,0.24,15.77,8.02,18.75c7.56,2.91,15.55-0.89,18.5-8.58
	c2.94-7.69-0.72-15.89-8.03-18.7C483.03,1852.12,474.71,1855.75,471.78,1863.44z"/>
<polygon style="&st3;" points="505.91,1879.54 514.4,1882.8 510.35,1893.37 516.35,1895.66 526.44,1869.35 520.44,1867.05 
	516.43,1877.54 507.94,1874.27 511.96,1863.79 505.96,1861.49 495.87,1887.8 501.87,1890.1 "/>
<path style="&st3;" d="M550.5,1878.59l-6-2.3l-5.83,15.22c-1.7,4.39-3.52,5.16-6.45,4.03c-2.95-1.14-3.8-2.92-2.09-7.31l5.83-15.22
	l-6-2.31l-6.5,16.97c-2.5,6.5-0.22,11.2,6.5,13.78c6.69,2.56,11.55,0.61,14.05-5.89L550.5,1878.59z"/>
<path style="&st3;" d="M555.54,1893.9l2.64-6.89l0.7,0.27c2.27,0.88,4.92,2.08,3.66,5.36c-1.25,3.28-4.03,2.41-6.3,1.53
	L555.54,1893.9z M554,1879.93l-10.09,26.31l6,2.3l4-10.41l4.03,13.5l7.64,2.92l-4.89-14.34c3.61,0.2,6.8-1.61,8.31-5.56
	c2-5.17-0.7-9.23-5.59-11.11L554,1879.93z"/>
<path style="&st3;" d="M597.11,1896.48l-6-2.3l-5.83,15.22c-1.7,4.39-3.52,5.16-6.45,4.03c-2.95-1.14-3.8-2.92-2.09-7.31l5.83-15.22
	l-6-2.31l-6.5,16.97c-2.5,6.5-0.22,11.2,6.5,13.78c6.69,2.56,11.55,0.61,14.05-5.89L597.11,1896.48z"/>
<polygon style="&st3;" points="616.71,1934.18 623.33,1936.73 640.93,1913.29 634.3,1910.75 622.88,1927.09 622.71,1927.03 
	624.85,1907.12 620.33,1905.39 608.63,1921.62 608.46,1921.56 610.88,1901.76 604.21,1899.2 601.61,1928.39 608.29,1930.95 
	618.18,1917.79 "/>
<polygon style="&st3;" points="648.37,1916.15 642.37,1913.85 632.27,1940.16 638.27,1942.46 "/>
<polygon style="&st3;" points="658.21,1919.93 652.21,1917.63 642.12,1943.95 657.18,1949.73 659.19,1944.46 650.13,1940.98 "/>
<polygon style="&st3;" points="676.22,1926.84 670.22,1924.55 660.12,1950.86 675.19,1956.64 677.2,1951.38 668.14,1947.89 "/>
<polygon style="&st3;" points="694.23,1933.75 688.23,1931.46 678.13,1957.77 684.13,1960.07 "/>
<path style="&st3;" d="M705.6,1956.22l-5.94-2.28l5.86-6.53l0.06,0.03L705.6,1956.22z M711.45,1940.38l-5.55-2.14l-20.72,22.23
	l6.45,2.48l3.95-4.53l10.02,3.84l-0.08,6.02l6.45,2.47L711.45,1940.38z"/>
<polygon style="&st3;" points="734.73,1979.5 740.73,1981.8 748.47,1954.58 742.09,1952.12 730.41,1965.08 730.41,1947.64 
	724.03,1945.2 711.58,1970.61 717.56,1972.91 724.8,1957.78 724.95,1957.84 724.42,1975.36 728,1976.73 739.33,1963.36 
	739.47,1963.42 "/>
<path style="&st3;" d="M762.49,1959.4c-4.25-1.62-9.76-0.16-11.66,4.75c-1.06,2.75-0.14,5.92,2.41,8.69c2.52,2.75,5,4.7,4.27,6.61
	c-0.94,2.47-3.47,1.62-4.77,1.12c-2.95-1.12-5.33-5.42-5.33-5.42l-4.92,3.88c0,0,2.39,4.92,8.55,7.28
	c5.12,1.97,10.75,1.61,13.17-4.69c1.31-3.44-0.92-7.17-3.39-9.55c-2.52-2.41-4.61-4.42-4.05-5.89c0.56-1.44,2.02-1.95,4.03-1.17
	c2.72,1.05,4.64,3.88,4.64,3.88l4.27-3.84C769.71,1965.04,767.27,1961.25,762.49,1959.4z"/>
<polygon style="&st3;" points="446.4,1884.17 439.84,1901.25 457.71,1908.11 487.29,1919.46 488.62,1919.97 505.16,1926.32 
	523.5,1933.36 536.07,1938.19 572.29,1952.09 619.73,1970.3 635.55,1976.38 683,1994.59 684.33,1995.1 700.87,2001.45 
	702.21,2001.96 731.78,2013.31 749.65,2020.18 756.21,2003.1 738.33,1996.24 708.76,1984.89 707.43,1984.37 690.89,1978.02 
	689.55,1977.51 642.1,1959.3 626.29,1953.23 578.84,1935.02 542.62,1921.11 530.06,1916.29 511.71,1909.25 495.18,1902.9 
	493.84,1902.39 464.27,1891.04 "/>
<path style="&st3;" d="M99.96,1751.19c-2.27,5.96-4.62,12-6.62,17.05l11.85,4.55l20.83,8l44.96,17.26l38.71,14.86l7.55,2.9l20.84,8
	l44.95,17.26l17.87,6.86l20.84,8l17.88,6.86l6.56-17.07l-17.88-6.86l-20.84-8l-17.87-6.86l-44.95-17.25l-20.84-8l-7.55-2.89
	l-38.71-14.86l-44.96-17.26l-20.83-8C107.84,1754.23,103.8,1752.63,99.96,1751.19z"/>
<polygon style="&st0;" points="115.82,1761.13 119.93,1762.71 114.6,1776.6 118.56,1778.12 123.88,1764.23 128.02,1765.82 
	129.43,1762.15 117.23,1757.46 "/>
<path style="&st0;" d="M144.2,1767.82l-3.95-1.52l-3.89,10.14c-1.11,2.91-2.28,3.28-4.23,2.53c-1.92-0.73-2.53-1.8-1.42-4.7
	l3.89-10.14l-3.95-1.52l-4.33,11.3c-1.64,4.28-0.17,7.5,4.23,9.19c4.42,1.7,7.69,0.3,9.33-3.98L144.2,1767.82z"/>
<polygon style="&st0;" points="156.54,1772.55 146.51,1768.7 139.78,1786.27 143.73,1787.78 146.4,1780.83 152.03,1782.98 
	153.45,1779.28 147.82,1777.12 149.06,1773.89 155.14,1776.22 "/>
<polygon style="&st0;" points="156.22,1776.64 160.33,1778.22 155,1792.11 158.96,1793.62 164.29,1779.73 168.43,1781.33 
	169.83,1777.66 157.63,1772.97 "/>
<path style="&st0;" d="M177.77,1780.33c-2.8-1.08-6.48,0.02-7.73,3.25c-0.69,1.81-0.12,4,1.55,5.83l0.02-0.03
	c1.67,1.83,3.34,3.02,2.86,4.28c-0.62,1.62-2.27,0.97-3.14,0.64c-1.94-0.75-3.55-3.39-3.55-3.39l0.06-0.16l-3.27,2.55l-0.06,0.17
	c0,0,1.58,3.27,5.62,4.83c3.39,1.3,7.14,0.95,8.73-3.19c0.88-2.28-0.58-4.84-2.2-6.41c-1.64-1.59-3.08-2.83-2.7-3.8
	c0.36-0.94,1.28-1.17,2.64-0.66c1.78,0.69,3.05,2.53,3.05,2.53l2.81-2.55C182.46,1784.23,180.93,1781.55,177.77,1780.33z"/>
<path style="&st0;" d="M204.48,1790.96l-3.95-1.52l-3.89,10.14c-1.11,2.91-2.28,3.28-4.23,2.53c-1.92-0.73-2.53-1.8-1.42-4.7
	l3.89-10.14l-3.95-1.52l-4.33,11.3c-1.64,4.28-0.17,7.5,4.23,9.19c4.42,1.7,7.69,0.3,9.33-3.98L204.48,1790.96z"/>
<polygon style="&st0;" points="208.14,1800.16 208.2,1800.19 210.98,1813.59 214.92,1815.11 221.66,1797.55 217.69,1796.03 
	213.56,1806.8 213.48,1806.77 210.7,1793.34 206.8,1791.84 200.06,1809.41 204.02,1810.92 "/>
<rect x="220.67" y="1798.65" transform="matrix(0.9337 0.358 -0.358 0.9337 662.1045 40.0902)" style="&st0;" width="4.23" height="18.81"/>
<polygon style="&st0;" points="229.67,1820.76 232.71,1821.93 246.82,1807.21 242.4,1805.51 233.53,1815.37 233.51,1802.11 
	229.04,1800.39 229.68,1820.78 "/>
<polygon style="&st0;" points="257.37,1811.26 247.44,1807.45 240.71,1825.01 250.63,1828.82 252.04,1825.15 246.07,1822.86 
	247.34,1819.57 253.06,1821.78 254.48,1818.07 248.76,1815.87 249.99,1812.64 255.96,1814.93 "/>
<path style="&st0;" d="M260.62,1821.45l1.7-4.42l0.45,0.17c1.5,0.58,3.28,1.27,2.45,3.42c-0.84,2.17-2.62,1.48-4.12,0.91l-0.45-0.17
	L260.62,1821.45z M259.62,1812.24l-6.7,17.45l3.95,1.52l2.64-6.89l2.67,8.94l5.17,1.98l-3.23-9.5c2.25,0.11,4.38-1.19,5.38-3.8
	c1.31-3.39-0.42-6.19-3.64-7.44l-6.2-2.38L259.62,1812.24z"/>
<path style="&st0;" d="M280.95,1819.93c-2.8-1.08-6.48,0.02-7.73,3.25c-0.69,1.81-0.12,4,1.55,5.83l0.01-0.03
	c1.67,1.83,3.34,3.02,2.86,4.28c-0.62,1.62-2.27,0.97-3.14,0.64c-1.94-0.75-3.55-3.39-3.55-3.39l0.06-0.16l-3.27,2.55l-0.06,0.17
	c0,0,1.58,3.27,5.62,4.83c3.39,1.3,7.14,0.95,8.73-3.19c0.88-2.28-0.58-4.84-2.2-6.41c-1.64-1.59-3.08-2.83-2.7-3.8
	c0.36-0.94,1.28-1.17,2.64-0.66c1.78,0.69,3.05,2.53,3.05,2.53l2.81-2.55C285.64,1823.84,284.1,1821.15,280.95,1819.93z"/>
<rect x="285.06" y="1823.37" transform="matrix(0.9337 0.358 -0.358 0.9337 675.1465 18.6588)" style="&st0;" width="4.23" height="18.81"/>
<polygon style="&st0;" points="292.85,1829.09 296.96,1830.67 291.64,1844.56 295.59,1846.07 300.92,1832.18 305.06,1833.78 
	306.46,1830.11 294.26,1825.42 "/>
<polygon style="&st0;" points="306.23,1830.23 308.95,1842.27 305.95,1850.06 309.9,1851.58 312.9,1843.78 323.15,1836.52 
	318.29,1834.66 312.54,1838.83 311,1831.84 306.15,1829.98 "/>
<polygon style="&st0;" points="489.91,1900.52 479.88,1896.67 473.15,1914.23 477.1,1915.75 479.77,1908.8 485.4,1910.95 
	486.82,1907.25 481.19,1905.09 482.43,1901.86 488.51,1904.19 "/>
<path style="&st0;" d="M496.01,1914.81l-3.88-1.47l3.69-4.16l0.16,0.06l-0.03,5.55L496.01,1914.81z M499.87,1904.36l-3.58-1.38
	l-13.81,14.84l4.19,1.61l2.61-2.98l6.7,2.58l-0.05,3.95l4.25,1.64l-0.39-20.3L499.87,1904.36z"/>
<rect x="504.03" y="1907.42" transform="matrix(0.9337 0.358 -0.358 0.9337 719.7493 -54.1592)" style="&st0;" width="4.23" height="18.81"/>
<path style="&st0;" d="M515,1919.09l1.7-4.42l0.45,0.17c1.5,0.58,3.28,1.27,2.45,3.42c-0.84,2.17-2.62,1.48-4.12,0.91l-0.45-0.17
	L515,1919.09z M514,1909.89l-6.7,17.45l3.95,1.52l2.64-6.89l2.67,8.94l5.17,1.98l-3.23-9.5c2.25,0.11,4.38-1.19,5.38-3.8
	c1.31-3.39-0.42-6.19-3.64-7.44l-6.2-2.38L514,1909.89z"/>
<polygon style="&st0;" points="539.14,1919.41 529.11,1915.57 522.38,1933.13 526.33,1934.65 529,1927.7 534.62,1929.85 
	536.05,1926.15 530.42,1923.99 531.66,1920.76 537.73,1923.09 "/>
<rect x="537.52" y="1920.28" transform="matrix(0.9337 0.358 -0.358 0.9337 726.5709 -65.2954)" style="&st0;" width="4.23" height="18.81"/>
<polygon style="&st0;" points="557.44,1926.45 547.52,1922.64 540.79,1940.2 550.71,1944.01 552.11,1940.34 546.15,1938.04 
	547.41,1934.76 553.13,1936.96 554.55,1933.26 548.83,1931.06 550.07,1927.82 556.04,1930.12 "/>
<polygon style="&st0;" points="563.68,1928.84 559.72,1927.32 552.99,1944.88 562.91,1948.7 564.32,1945.02 558.35,1942.73 "/>
<path style="&st0;" d="M570.21,1947.33l3.91-10.19l0.59,0.23c2.95,1.12,4.14,4.03,2.98,7.03c-1.12,2.91-3.91,4.16-6.84,3.03
	l-0.59-0.23L570.21,1947.33z M571.57,1931.99l-6.7,17.45l5.02,1.92c4.78,1.84,10.19-0.36,12.14-5.44c1.94-5.05-0.64-10.3-5.41-12.12
	l-5.01-1.92L571.57,1931.99z"/>
<path style="&st0;" d="M606.23,1945.18l-3.95-1.52l-3.89,10.14c-1.11,2.91-2.28,3.28-4.23,2.53c-1.92-0.73-2.53-1.8-1.42-4.7
	l3.89-10.14l-3.95-1.52l-4.33,11.3c-1.64,4.28-0.17,7.5,4.23,9.19c4.42,1.7,7.69,0.3,9.33-3.98L606.23,1945.18z"/>
<polygon style="&st0;" points="609.88,1954.37 609.94,1954.4 612.73,1967.81 616.66,1969.32 623.4,1951.76 619.43,1950.25 
	615.31,1961.01 615.23,1960.98 612.44,1947.56 608.54,1946.06 601.81,1963.62 605.76,1965.14 "/>
<rect x="622.41" y="1952.86" transform="matrix(0.9337 0.358 -0.358 0.9337 743.8627 -93.5273)" style="&st0;" width="4.23" height="18.81"/>
<polygon style="&st0;" points="631.12,1974.86 634.16,1976.04 648.27,1961.32 643.85,1959.61 634.98,1969.47 634.96,1956.21 
	630.49,1954.49 631.13,1974.88 "/>
<polygon style="&st0;" points="658.81,1965.36 648.89,1961.55 642.16,1979.11 652.08,1982.93 653.48,1979.25 647.52,1976.96 
	648.78,1973.68 654.5,1975.88 655.92,1972.18 650.2,1969.97 651.44,1966.74 657.41,1969.04 "/>
<path style="&st0;" d="M661.55,1975.35l1.7-4.42l0.45,0.17c1.5,0.58,3.28,1.27,2.45,3.42c-0.84,2.17-2.62,1.48-4.12,0.91l-0.45-0.17
	L661.55,1975.35z M660.55,1966.15l-6.7,17.45l3.95,1.52l2.64-6.89l2.67,8.94l5.17,1.98l-3.23-9.5c2.25,0.11,4.38-1.19,5.38-3.8
	c1.31-3.39-0.42-6.19-3.64-7.44l-6.2-2.38L660.55,1966.15z"/>
<path style="&st0;" d="M681.84,1973.82c-2.8-1.08-6.48,0.02-7.73,3.25c-0.69,1.81-0.12,4,1.55,5.83l0.02-0.03
	c1.67,1.83,3.34,3.02,2.86,4.28c-0.62,1.62-2.26,0.97-3.14,0.64c-1.94-0.75-3.55-3.39-3.55-3.39l0.06-0.16l-3.26,2.55l-0.06,0.17
	c0,0,1.58,3.27,5.62,4.83c3.39,1.3,7.14,0.95,8.73-3.19c0.88-2.28-0.58-4.84-2.2-6.41c-1.64-1.59-3.08-2.83-2.7-3.8
	c0.36-0.94,1.28-1.17,2.64-0.66c1.78,0.69,3.05,2.53,3.05,2.53l2.81-2.55C686.53,1977.73,685,1975.04,681.84,1973.82z"/>
<rect x="685.27" y="1976.99" transform="matrix(0.9337 0.358 -0.358 0.9337 756.6662 -114.4297)" style="&st0;" width="4.23" height="18.81"/>
<polygon style="&st0;" points="692.77,1982.6 696.88,1984.18 691.55,1998.07 695.5,1999.59 700.83,1985.7 704.97,1987.29 
	706.38,1983.62 694.18,1978.93 "/>
<polygon style="&st0;" points="706.14,1983.75 708.86,1995.78 705.86,2003.57 709.81,2005.09 712.81,1997.29 723.06,1990.03 
	718.2,1988.17 712.45,1992.34 710.91,1985.36 706.06,1983.5 "/>
<path style="&st2;" d="M152.74,2298.97l22.24,22.24c0.2,0.18,0.4,0.17,0.57,0.02c0.02-0.02,0.04-0.05,0.06-0.08l3.12-4.68
	c0.18-0.25,0.13-0.7-0.09-0.91l-10.43-10.43l-5-4.99l-5.82-5.82L152.74,2298.97"/>
<path style="&st2;" d="M183.97,2267.74l-2.27,2.27l4.66,4.66l1.28-1.28c0.22-0.21,0.27-0.66,0.09-0.91l-3.12-4.69
	c-0.02-0.03-0.04-0.05-0.06-0.07C184.36,2267.56,184.16,2267.55,183.97,2267.74"/>
<polyline style="&st2;" points="169.71,2281.99 174.37,2286.65 181.03,2280 176.37,2275.34 169.71,2281.99 "/>
<path style="&st2;" d="M191.96,2283.71l-16.25,16.25l4.66,4.66l15.25-15.25c0.22-0.21,0.27-0.66,0.09-0.91l-3.12-4.68
	c-0.02-0.03-0.04-0.05-0.06-0.08C192.35,2283.54,192.15,2283.53,191.96,2283.71"/>
<path style="&st2;" d="M182.64,2307.56l-8.27-8.26l-4.66,4.66l7.27,7.27c0.21,0.22,0.66,0.27,0.91,0.09l4.68-3.12
	c0.03-0.02,0.06-0.04,0.08-0.07C182.81,2307.96,182.82,2307.76,182.64,2307.56"/>
<path style="&st2;" d="M131.97,2286.61l3.12,4.68c0.02,0.03,0.04,0.05,0.06,0.08c0.17,0.16,0.37,0.16,0.57-0.02l16.35-16.35
	l-4.66-4.66l-15.35,15.35C131.84,2285.91,131.79,2286.36,131.97,2286.61"/>
<path style="&st2;" d="M197.55,2274.77l-4.68-3.12c-0.25-0.18-0.7-0.13-0.91,0.09l-10.26,10.26l4.66,4.66l11.26-11.26
	c0.18-0.19,0.18-0.39,0.02-0.56C197.61,2274.81,197.58,2274.79,197.55,2274.77"/>
<polyline style="&st2;" points="163.72,2299.96 168.38,2304.62 181.03,2291.98 176.37,2287.32 163.72,2299.96 "/>
<path style="&st2;" d="M166.77,2255.75c-0.21-0.22-0.66-0.27-0.91-0.09l-4.68,3.12c-0.03,0.02-0.06,0.04-0.08,0.06
	c-0.16,0.17-0.16,0.37,0.01,0.56l20.25,20.25l4.66-4.66L166.77,2255.75"/>
<polyline style="&st2;" points="175.7,2285.98 181.36,2291.64 186.02,2286.98 180.36,2281.33 175.7,2285.98 "/>
<path style="&st2;" d="M150.8,2263.74c-0.21-0.22-0.66-0.27-0.91-0.09l-4.69,3.12c-0.03,0.02-0.05,0.04-0.08,0.06
	c-0.16,0.17-0.16,0.37,0.02,0.56l8.26,8.27l4.66-4.66L150.8,2263.74"/>
<path style="&st2;" d="M140.06,2302.48l3.12,4.69c0.02,0.03,0.04,0.05,0.07,0.08c0.17,0.16,0.37,0.16,0.56-0.02l2.28-2.27
	l-4.66-4.66l-1.28,1.28C139.92,2301.79,139.88,2302.23,140.06,2302.48"/>
<polyline style="&st2;" points="146.75,2294.97 151.41,2299.63 158.06,2292.98 153.4,2288.32 146.75,2294.97 "/>
<path style="&st2;" d="M166.66,2315.55l-20.25-20.25l-4.66,4.66l19.25,19.25c0.21,0.22,0.66,0.27,0.91,0.09l4.68-3.12
	c0.03-0.02,0.06-0.04,0.08-0.07C166.84,2315.95,166.84,2315.75,166.66,2315.55"/>
<path style="&st2;" d="M130.05,2300.24c0.02,0.02,0.05,0.04,0.08,0.06l4.69,3.12c0.25,0.18,0.7,0.13,0.91-0.09l10.36-10.36
	l-4.66-4.66l-11.36,11.36C129.88,2299.87,129.89,2300.07,130.05,2300.24"/>
<polyline style="&st2;" points="146.75,2282.99 151.41,2287.65 164.05,2275 159.4,2270.34 146.75,2282.99 "/>
<polyline style="&st2;" points="141.75,2287.98 147.41,2293.64 152.07,2288.98 146.41,2283.32 141.75,2287.98 "/>
<polyline style="&st2;" points="158.73,2281 169.38,2291.64 174.04,2286.98 163.39,2276.34 158.73,2281 "/>
<polyline style="&st2;" points="158.56,2292.81 164.39,2298.63 169.05,2293.97 158.4,2283.32 153.74,2287.98 158.56,2292.81 "/>
<path style="&st2;" d="M152.23,2253.74c-0.02,0.02-0.04,0.05-0.07,0.08l-3.12,4.68c-0.18,0.25-0.13,0.7,0.09,0.91l10.43,10.43
	l4.99,5l5.83,5.82l4.66-4.66l-22.25-22.24C152.6,2253.58,152.4,2253.59,152.23,2253.74"/>
<polyline style="&st2;" points="204.77,2254.95 204.77,2260.07 203.26,2260.07 203.26,2254.95 201.31,2254.95 201.31,2253.57 
	206.72,2253.57 206.72,2254.95 204.77,2254.95 "/>
<polyline style="&st2;" points="211.66,2260.07 211.66,2257.46 209.16,2257.46 209.16,2260.07 207.66,2260.07 207.66,2253.57 
	209.16,2253.57 209.16,2256.12 211.66,2256.12 211.66,2253.57 213.17,2253.57 213.17,2260.07 211.66,2260.07 "/>
<polyline style="&st2;" points="214.7,2260.07 214.7,2253.57 218.81,2253.57 218.81,2254.95 216.2,2254.95 216.2,2256.12 
	218.58,2256.12 218.58,2257.43 216.2,2257.43 216.2,2258.7 218.81,2258.7 218.81,2260.07 214.7,2260.07 "/>
<polyline style="&st2;" points="214.7,2280.95 214.7,2273.51 207.57,2273.51 207.57,2280.95 203.26,2280.95 203.26,2262.4 
	207.57,2262.4 207.57,2269.66 214.7,2269.66 214.7,2262.4 219,2262.4 219,2280.95 214.7,2280.95 "/>
<path style="&st2;" d="M230.78,2281.25c-4.99,0-7.77-2.68-7.77-7.84v-11.01h4.3v10.71c0,2.63,1.11,4.23,3.57,4.23
	c2.43,0,3.54-1.59,3.54-4.23v-10.71h4.3v11.01C238.72,2278.57,235.76,2281.25,230.78,2281.25"/>
<polyline style="&st2;" points="257.6,2280.95 257.37,2271.84 252.23,2278.34 251.78,2278.34 246.59,2271.84 246.41,2280.95 
	242.26,2280.95 243.12,2262.27 243.71,2262.22 252.1,2272.83 260.31,2262.22 260.89,2262.27 261.77,2280.95 257.6,2280.95 "/>
<path style="&st2;" d="M277.29,2280.95l-1.39-3.37h-6.4l-1.39,3.37h-4.38l8.73-18.7h0.58l8.73,18.7H277.29 M272.71,2269.84
	l-1.85,4.45h3.67L272.71,2269.84z"/>
<polyline style="&st2;" points="299.3,2281.3 288.11,2271.26 288.11,2280.95 283.81,2280.95 283.81,2262.15 284.39,2262.05 
	295.42,2272.02 295.42,2262.4 299.73,2262.4 299.73,2281.23 299.3,2281.3 "/>
<rect x="303.95" y="2262.4" style="&st2;" width="4.3" height="18.55"/>
<polyline style="&st2;" points="320.6,2266.35 320.6,2280.95 316.31,2280.95 316.31,2266.35 310.74,2266.35 310.74,2262.4 
	326.18,2262.4 326.18,2266.35 320.6,2266.35 "/>
<rect x="328.7" y="2262.4" style="&st2;" width="4.3" height="18.55"/>
<polyline style="&st2;" points="337.18,2280.95 337.18,2262.4 348.92,2262.4 348.92,2266.35 341.48,2266.35 341.48,2269.66 
	348.26,2269.66 348.26,2273.41 341.48,2273.41 341.48,2277.03 348.92,2277.03 348.92,2280.95 337.18,2280.95 "/>
<path style="&st2;" d="M357.65,2281.25c-2.1,0-4.63-0.84-6.25-1.9l1.19-3.9c1.5,1.09,3.44,1.8,5.19,1.8c1.52,0,2.1-0.71,2.1-1.62
	c0-0.96-0.48-1.62-3.32-2.76c-3.26-1.31-4.4-3.21-4.4-5.44c0-2.71,2.2-5.34,6.53-5.34c2.03,0,4.1,0.71,5.19,1.44l-1.09,3.85
	c-1.06-0.73-2.79-1.52-4.1-1.52c-1.57,0-2.2,0.73-2.2,1.49c0,1.21,0.94,1.62,3.26,2.61c3.47,1.47,4.51,3.14,4.51,5.52
	C364.25,2278.45,362.1,2281.25,357.65,2281.25"/>
<rect x="203.26" y="2285.18" style="&st2;" width="4.3" height="18.55"/>
<polyline style="&st2;" points="227.23,2304.08 216.04,2294.04 216.04,2303.73 211.74,2303.73 211.74,2284.93 212.32,2284.82 
	223.35,2294.8 223.35,2285.18 227.66,2285.18 227.66,2304.01 227.23,2304.08 "/>
<rect x="231.89" y="2285.18" style="&st2;" width="4.3" height="18.55"/>
<polyline style="&st2;" points="248.54,2289.13 248.54,2303.73 244.24,2303.73 244.24,2289.13 238.67,2289.13 238.67,2285.18 
	254.1,2285.18 254.1,2289.13 248.54,2289.13 "/>
<rect x="256.63" y="2285.18" style="&st2;" width="4.31" height="18.55"/>
<path style="&st2;" d="M276.57,2303.73l-1.39-3.37h-6.4l-1.39,3.37H263l8.73-18.7h0.58l8.73,18.7H276.57 M271.99,2292.62l-1.85,4.45
	h3.67L271.99,2292.62z"/>
<polyline style="&st2;" points="289.37,2289.13 289.37,2303.73 285.07,2303.73 285.07,2289.13 279.5,2289.13 279.5,2285.18 
	294.93,2285.18 294.93,2289.13 289.37,2289.13 "/>
<rect x="297.46" y="2285.18" style="&st2;" width="4.3" height="18.55"/>
<polyline style="&st2;" points="313.19,2303.88 312.69,2303.88 303.83,2285.18 308.77,2285.18 312.99,2295.2 317.22,2285.18 
	322.06,2285.18 313.19,2303.88 "/>
<polyline style="&st2;" points="324.11,2303.73 324.11,2285.18 335.85,2285.18 335.85,2289.13 328.41,2289.13 328.41,2292.44 
	335.19,2292.44 335.19,2296.19 328.41,2296.19 328.41,2299.8 335.85,2299.8 335.85,2303.73 324.11,2303.73 "/>
<polyline style="&st2;" points="208.44,2319.55 204.37,2315.25 204.37,2319.42 203.26,2319.42 203.26,2312.84 203.44,2312.8 
	207.46,2317.03 207.46,2312.93 208.56,2312.93 208.56,2319.52 208.44,2319.55 "/>
<polyline style="&st2;" points="210.09,2319.42 210.09,2312.93 214.06,2312.93 214.06,2313.93 211.2,2313.93 211.2,2315.64 
	213.78,2315.64 213.78,2316.61 211.2,2316.61 211.2,2318.41 214.06,2318.41 214.06,2319.42 210.09,2319.42 "/>
<polyline style="&st2;" points="221.29,2319.53 221.1,2319.55 219.09,2315.02 217.09,2319.55 216.93,2319.53 214.84,2312.93 
	216.06,2312.93 217.23,2317.02 219.04,2312.87 219.16,2312.87 220.98,2316.99 222.14,2312.93 223.34,2312.93 221.29,2319.53 "/>
<polyline style="&st2;" points="228.81,2316.69 228.81,2319.42 227.7,2319.42 227.7,2316.68 225.42,2312.93 226.68,2312.93 
	228.28,2315.67 229.86,2312.93 231.1,2312.93 228.81,2316.69 "/>
<path style="&st2;" d="M234.5,2319.53c-1.88,0-3.25-1.43-3.25-3.35c0-1.93,1.44-3.36,3.32-3.36c1.88,0,3.25,1.43,3.25,3.36
	C237.82,2318.1,236.38,2319.53,234.5,2319.53 M234.54,2313.81c-1.24,0-2.1,1.01-2.1,2.37c0,1.35,0.85,2.37,2.1,2.37
	c1.23,0,2.09-1.02,2.09-2.37C236.63,2314.82,235.77,2313.81,234.54,2313.81z"/>
<path style="&st2;" d="M242.58,2319.42l-1.42-2.34c-0.11,0.01-0.22,0.01-0.34,0.01c-0.21,0-0.44-0.01-0.65-0.02v2.35h-1.11v-6.44
	c0.51-0.06,1.05-0.11,1.71-0.11c1.84,0,2.66,0.89,2.66,2.05c0,0.84-0.46,1.53-1.27,1.88l1.7,2.62H242.58 M240.92,2313.87
	c-0.27,0-0.52,0.01-0.75,0.05v2.21c0.2,0.03,0.43,0.04,0.64,0.04c0.96,0,1.45-0.45,1.45-1.2
	C242.27,2314.32,241.77,2313.87,240.92,2313.87z"/>
<polyline style="&st2;" points="248.53,2319.42 245.87,2316.3 245.87,2319.42 244.77,2319.42 244.77,2312.93 245.87,2312.93 
	245.87,2315.85 248.43,2312.93 249.76,2312.93 246.93,2316.04 249.91,2319.42 248.53,2319.42 "/>
<path style="&st2;" d="M255.13,2319.53c-1.62,0-2.58-0.91-2.58-2.6v-4h1.11v3.93c0,1.12,0.55,1.66,1.49,1.66
	c0.93,0,1.49-0.56,1.49-1.66v-3.93h1.11v4C257.75,2318.59,256.73,2319.53,255.13,2319.53"/>
<polyline style="&st2;" points="264.39,2319.55 260.32,2315.25 260.32,2319.42 259.21,2319.42 259.21,2312.84 259.39,2312.8 
	263.41,2317.03 263.41,2312.93 264.51,2312.93 264.51,2319.52 264.39,2319.55 "/>
<rect x="266.06" y="2312.93" style="&st2;" width="1.1" height="6.5"/>
<polyline style="&st2;" points="271.15,2319.51 271,2319.51 268,2312.93 269.27,2312.93 271.09,2317.25 272.91,2312.93 
	274.14,2312.93 271.15,2319.51 "/>
<polyline style="&st2;" points="274.96,2319.42 274.96,2312.93 278.92,2312.93 278.92,2313.93 276.07,2313.93 276.07,2315.64 
	278.65,2315.64 278.65,2316.61 276.07,2316.61 276.07,2318.41 278.92,2318.41 278.92,2319.42 274.96,2319.42 "/>
<path style="&st2;" d="M283.78,2319.42l-1.41-2.34c-0.12,0.01-0.22,0.01-0.35,0.01c-0.21,0-0.43-0.01-0.65-0.02v2.35h-1.11v-6.44
	c0.51-0.06,1.05-0.11,1.71-0.11c1.84,0,2.66,0.89,2.66,2.05c0,0.84-0.46,1.53-1.27,1.88l1.7,2.62H283.78 M282.12,2313.87
	c-0.27,0-0.52,0.01-0.74,0.05v2.21c0.2,0.03,0.42,0.04,0.64,0.04c0.96,0,1.45-0.45,1.45-1.2
	C283.46,2314.32,282.97,2313.87,282.12,2313.87z"/>
<path style="&st2;" d="M287.62,2319.53c-0.73,0-1.47-0.27-2.04-0.64l0.38-0.99c0.51,0.37,1.13,0.6,1.69,0.6
	c0.68,0,0.98-0.4,0.98-0.85s-0.2-0.73-1.22-1.17c-1.14-0.48-1.54-1.07-1.54-1.85c0-0.94,0.78-1.82,2.14-1.82
	c0.63,0,1.25,0.21,1.63,0.47l-0.36,0.97c-0.34-0.24-0.86-0.46-1.3-0.46c-0.68,0-1,0.38-1,0.81s0.32,0.69,1.12,1.05
	c1.29,0.55,1.66,1.08,1.66,1.93C289.77,2318.63,288.96,2319.53,287.62,2319.53"/>
<rect x="290.97" y="2312.93" style="&st2;" width="1.1" height="6.5"/>
<polyline style="&st2;" points="296.2,2313.93 296.2,2319.42 295.09,2319.42 295.09,2313.93 293.03,2313.93 293.03,2312.93 
	298.26,2312.93 298.26,2313.93 296.2,2313.93 "/>
<polyline style="&st2;" points="302.3,2316.69 302.3,2319.42 301.19,2319.42 301.19,2316.68 298.91,2312.93 300.18,2312.93 
	301.77,2315.67 303.35,2312.93 304.59,2312.93 302.3,2316.69 "/>
<rect x="1169.43" y="2284.87" style="&st2;" width="3.12" height="3.12"/>
<rect x="1169.43" y="2277.28" style="&st2;" width="3.12" height="3.12"/>
<rect x="1178.67" y="2284.87" style="&st2;" width="3.11" height="3.12"/>
<rect x="1186.08" y="2284.87" style="&st2;" width="3.12" height="3.12"/>
<rect x="1186.08" y="2281.03" style="&st2;" width="3.12" height="3.12"/>
<rect x="1201.21" y="2281.03" style="&st2;" width="3.12" height="3.12"/>
<rect x="1201.21" y="2277.28" style="&st2;" width="3.12" height="3.12"/>
<rect x="1222.27" y="2284.87" style="&st2;" width="3.12" height="3.12"/>
<rect x="1234.03" y="2284.87" style="&st2;" width="3.11" height="3.12"/>
<rect x="1234.03" y="2281.03" style="&st2;" width="3.11" height="3.12"/>
<rect x="1244.61" y="2281.03" style="&st2;" width="3.12" height="3.12"/>
<rect x="1244.61" y="2277.28" style="&st2;" width="3.12" height="3.12"/>
<rect x="1240.85" y="2284.87" style="&st2;" width="3.12" height="3.12"/>
<rect x="1240.85" y="2277.28" style="&st2;" width="3.12" height="3.12"/>
<rect x="1257.96" y="2281.03" style="&st2;" width="3.11" height="3.12"/>
<rect x="1257.96" y="2277.28" style="&st2;" width="3.11" height="3.12"/>
<rect x="1261.81" y="2284.87" style="&st2;" width="3.11" height="3.12"/>
<rect x="1273.87" y="2284.87" style="&st2;" width="3.12" height="3.12"/>
<rect x="1281.93" y="2284.87" style="&st2;" width="3.12" height="3.12"/>
<rect x="1288.5" y="2284.87" style="&st2;" width="3.12" height="3.12"/>
<rect x="1300.27" y="2284.87" style="&st2;" width="3.12" height="3.12"/>
<rect x="1300.27" y="2281.03" style="&st2;" width="3.12" height="3.12"/>
<rect x="1300.27" y="2277.28" style="&st2;" width="3.12" height="3.12"/>
<rect x="1330.46" y="2284.87" style="&st2;" width="3.12" height="3.12"/>
<rect x="1312.87" y="2281.03" style="&st2;" width="3.12" height="3.12"/>
<rect x="1341.04" y="2284.87" style="&st2;" width="3.12" height="3.12"/>
<rect x="1341.04" y="2281.03" style="&st2;" width="3.12" height="3.12"/>
<rect x="1361.41" y="2284.87" style="&st2;" width="3.11" height="3.12"/>
<rect x="1386.82" y="2284.87" style="&st2;" width="3.12" height="3.12"/>
<rect x="1386.82" y="2281.03" style="&st2;" width="3.12" height="3.12"/>
<rect x="1397.5" y="2281.03" style="&st2;" width="3.11" height="3.12"/>
<rect x="1409.95" y="2284.87" style="&st2;" width="3.11" height="3.12"/>
<rect x="1428.84" y="2284.87" style="&st2;" width="3.11" height="3.12"/>
<rect x="1441" y="2284.57" style="&st2;" width="3.11" height="3.12"/>
<rect x="1441" y="2281.03" style="&st2;" width="3.11" height="3.12"/>
<rect x="1448.41" y="2284.57" style="&st2;" width="3.12" height="3.12"/>
<rect x="1448.41" y="2281.03" style="&st2;" width="3.12" height="3.12"/>
<rect x="1190.04" y="2284.87" style="&st2;" width="3.12" height="3.12"/>
<path style="&st2;" d="M1168.58,2297.51v-8.02h4.94v7.95c0,1.8,0.93,2.57,2.24,2.57s2.24-0.71,2.24-2.47v-8.05h4.94v7.91
	c0,4.96-2.89,6.91-7.23,6.91S1168.58,2302.32,1168.58,2297.51"/>
<path style="&st2;" d="M1185.31,2289.49h7.1c2.57,0,4.21,0.64,5.23,1.66c0.87,0.87,1.33,1.95,1.33,3.45v0.04
	c0,2.12-1.1,3.59-2.87,4.45l3.39,4.94h-5.55l-2.74-4.15h-1.04v4.15h-4.86V2289.49z M1192.27,2296.41c1.16,0,1.87-0.52,1.87-1.41
	v-0.04c0-0.93-0.73-1.39-1.85-1.39h-2.12v2.84H1192.27z"/>
<path style="&st2;" d="M1200.98,2289.49h8.14c2.02,0,3.28,0.46,4.13,1.31c0.52,0.52,0.89,1.27,0.89,2.26v0.04
	c0,1.72-1.04,2.78-2.59,3.32c1.87,0.54,3.07,1.54,3.07,3.53v0.04c0,2.33-1.91,4.03-5.59,4.03h-8.06V2289.49z M1207.84,2295.2
	c1.04,0,1.54-0.36,1.54-1v-0.04c0-0.64-0.52-1-1.56-1h-2.1v2.04H1207.84z M1208.14,2300.35c1.06,0,1.6-0.44,1.6-1.06v-0.04
	c0-0.62-0.52-1.06-1.58-1.06h-2.45v2.16H1208.14z"/>
<path style="&st2;" d="M1221.57,2289.39h4.82l6.12,14.64h-5.28l-0.77-1.95h-5.09l-0.75,1.95h-5.19L1221.57,2289.39z
	 M1225.27,2298.63l-1.33-3.53l-1.33,3.53H1225.27z"/>
<polygon style="&st2;" points="1233.95,2289.49 1238.5,2289.49 1243.66,2295.91 1243.66,2289.49 1248.48,2289.49 1248.48,2304.03 
	1244.16,2304.03 1238.77,2297.32 1238.77,2304.03 1233.95,2304.03 "/>
<path style="&st2;" d="M1257.07,2289.49h5.56c5.77,0,8.66,2.84,8.66,7.14v0.04c0,4.3-2.95,7.35-8.82,7.35h-5.4V2289.49z
	 M1262.74,2299.79c2.22,0,3.65-0.91,3.65-3.01v-0.04c0-2.1-1.43-3.01-3.65-3.01h-0.81v6.06H1262.74z"/>
<polygon style="&st2;" points="1273.45,2289.49 1285.85,2289.49 1285.85,2293.48 1278.23,2293.48 1278.23,2294.95 1285.33,2294.95 
	1285.33,2298.46 1278.23,2298.46 1278.23,2300.04 1285.95,2300.04 1285.95,2304.03 1273.45,2304.03 "/>
<polygon style="&st2;" points="1288.09,2289.49 1293.15,2289.49 1296.27,2294.6 1299.38,2289.49 1304.45,2289.49 1304.45,2304.03 
	1299.61,2304.03 1299.61,2296.82 1296.27,2301.99 1296.18,2301.99 1292.84,2296.82 1292.84,2304.03 1288.09,2304.03 "/>
<path style="&st2;" d="M1306.61,2296.8v-0.04c0-4.21,3.46-7.58,7.95-7.58c4.49,0,7.91,3.32,7.91,7.54v0.04
	c0,4.21-3.47,7.58-7.95,7.58S1306.61,2301.02,1306.61,2296.8 M1317.57,2296.8v-0.04c0-1.72-1.18-3.28-3.05-3.28
	c-1.85,0-3.01,1.54-3.01,3.24v0.04c0,1.73,1.18,3.28,3.05,3.28C1316.41,2300.04,1317.57,2298.5,1317.57,2296.8"/>
<path style="&st2;" d="M1324.29,2296.8v-0.04c0-4.34,3.39-7.58,7.73-7.58c3.2,0,5.36,1.56,6.58,3.78l-4.01,2.34
	c-0.54-1.04-1.31-1.77-2.64-1.77c-1.64,0-2.72,1.43-2.72,3.18v0.04c0,1.89,1.12,3.22,2.72,3.22c1.37,0,2.14-0.75,2.74-1.83
	l4.01,2.27c-1.22,2.16-3.26,3.93-6.87,3.93C1327.8,2304.34,1324.29,2301.3,1324.29,2296.8"/>
<path style="&st2;" d="M1340.46,2289.49h7.1c2.57,0,4.21,0.64,5.23,1.66c0.87,0.87,1.33,1.95,1.33,3.45v0.04
	c0,2.12-1.1,3.59-2.87,4.45l3.39,4.94h-5.54l-2.74-4.15h-1.04v4.15h-4.86V2289.49z M1347.42,2296.41c1.16,0,1.87-0.52,1.87-1.41
	v-0.04c0-0.93-0.73-1.39-1.85-1.39h-2.12v2.84H1347.42z"/>
<path style="&st2;" d="M1360.68,2289.39h4.82l6.12,14.64h-5.27l-0.77-1.95h-5.09l-0.75,1.95h-5.19L1360.68,2289.39z
	 M1364.38,2298.63l-1.33-3.53l-1.33,3.53H1364.38z"/>
<path style="&st2;" d="M1371.78,2296.8v-0.04c0-4.34,3.38-7.58,7.72-7.58c3.2,0,5.36,1.56,6.58,3.78l-4.01,2.34
	c-0.54-1.04-1.3-1.77-2.64-1.77c-1.64,0-2.72,1.43-2.72,3.18v0.04c0,1.89,1.12,3.22,2.72,3.22c1.37,0,2.14-0.75,2.74-1.83l4.01,2.27
	c-1.23,2.16-3.26,3.93-6.87,3.93C1375.29,2304.34,1371.78,2301.3,1371.78,2296.8"/>
<polygon style="&st2;" points="1391.65,2298.88 1386.16,2289.49 1391.61,2289.49 1394.1,2294.27 1396.61,2289.49 1401.99,2289.49 
	1396.51,2298.82 1396.51,2304.03 1391.65,2304.03 "/>
<polygon style="&st2;" points="1409.42,2289.49 1414.27,2289.49 1414.27,2299.88 1421.11,2299.88 1421.11,2304.03 1409.42,2304.03 
	"/>
<path style="&st2;" d="M1428.06,2289.39h4.82l6.12,14.64h-5.27l-0.77-1.95h-5.09l-0.75,1.95h-5.19L1428.06,2289.39z
	 M1431.75,2298.63l-1.33-3.53l-1.33,3.53H1431.75z"/>
<path style="&st2;" d="M1440.43,2289.49h8.14c2.01,0,3.28,0.46,4.13,1.31c0.52,0.52,0.89,1.27,0.89,2.26v0.04
	c0,1.72-1.04,2.78-2.59,3.32c1.87,0.54,3.07,1.54,3.07,3.53v0.04c0,2.33-1.91,4.03-5.59,4.03h-8.05V2289.49z M1447.28,2295.2
	c1.04,0,1.54-0.36,1.54-1v-0.04c0-0.64-0.52-1-1.55-1h-2.1v2.04H1447.28z M1447.59,2300.35c1.06,0,1.6-0.44,1.6-1.06v-0.04
	c0-0.62-0.52-1.06-1.58-1.06h-2.45v2.16H1447.59z"/>
<rect x="1169.43" y="2281.03" style="&st2;" width="3.11" height="3.12"/>
<rect x="1186.08" y="2277.28" style="&st2;" width="3.12" height="3.12"/>
<rect x="1201.21" y="2284.87" style="&st2;" width="3.12" height="3.12"/>
<rect x="1222.27" y="2281.03" style="&st2;" width="3.12" height="3.12"/>
<rect x="1234.03" y="2277.28" style="&st2;" width="3.11" height="3.12"/>
<rect x="1244.61" y="2284.87" style="&st2;" width="3.12" height="3.12"/>
<rect x="1240.85" y="2281.03" style="&st2;" width="3.12" height="3.12"/>
<rect x="1257.96" y="2284.87" style="&st2;" width="3.11" height="3.12"/>
<rect x="1261.81" y="2281.03" style="&st2;" width="3.11" height="3.12"/>
<rect x="1277.88" y="2284.87" style="&st2;" width="3.12" height="3.12"/>
<rect x="1288.5" y="2281.03" style="&st2;" width="3.12" height="3.12"/>
<rect x="1288.5" y="2277.28" style="&st2;" width="3.12" height="3.12"/>
<rect x="1330.46" y="2281.03" style="&st2;" width="3.12" height="3.12"/>
<rect x="1312.87" y="2284.87" style="&st2;" width="3.12" height="3.12"/>
<rect x="1344.9" y="2284.87" style="&st2;" width="3.12" height="3.12"/>
<rect x="1361.41" y="2281.03" style="&st2;" width="3.11" height="3.12"/>
<rect x="1377.23" y="2284.87" style="&st2;" width="3.12" height="3.12"/>
<rect x="1386.82" y="2277.28" style="&st2;" width="3.12" height="3.12"/>
<rect x="1397.5" y="2284.87" style="&st2;" width="3.11" height="3.12"/>
<rect x="1428.84" y="2281.03" style="&st2;" width="3.11" height="3.12"/>
<rect x="1444.75" y="2284.57" style="&st2;" width="3.12" height="3.12"/>
<rect x="1448.41" y="2277.28" style="&st2;" width="3.12" height="3.12"/>
<rect x="1190.04" y="2281.03" style="&st2;" width="3.12" height="3.12"/>
<path style="&st2;" d="M784.68,2295.47v-0.05c0-5,3.89-9.09,9.21-9.09c3.16,0,5.07,0.85,6.9,2.41l-2.43,2.93
	c-1.36-1.13-2.56-1.78-4.59-1.78c-2.81,0-5.04,2.48-5.04,5.47v0.05c0,3.21,2.21,5.57,5.32,5.57c1.4,0,2.66-0.35,3.64-1.05v-2.51
	h-3.89v-3.34h7.63v7.63c-1.81,1.53-4.29,2.79-7.51,2.79C788.44,2304.51,784.68,2300.67,784.68,2295.47"/>
<path style="&st2;" d="M809.65,2286.52h3.56l7.53,17.69h-4.04l-1.61-3.94h-7.43l-1.61,3.94h-3.94L809.65,2286.52 M813.72,2296.86
	l-2.33-5.7l-2.34,5.7H813.72z"/>
<polyline style="&st2;" points="822.96,2286.64 826.82,2286.64 826.82,2300.7 835.58,2300.7 835.58,2304.21 822.96,2304.21 
	822.96,2286.64 "/>
<polyline style="&st2;" points="838,2286.64 841.86,2286.64 841.86,2300.7 850.62,2300.7 850.62,2304.21 838,2304.21 838,2286.64 
	"/>
<path style="&st2;" d="M859.05,2286.52h3.57l7.53,17.69h-4.04l-1.61-3.94h-7.43l-1.61,3.94h-3.94L859.05,2286.52 M863.12,2296.86
	l-2.33-5.7l-2.34,5.7H863.12z"/>
<polyline style="&st2;" points="873.95,2290.2 868.6,2290.2 868.6,2286.64 883.16,2286.64 883.16,2290.2 877.81,2290.2 
	877.81,2304.21 873.95,2304.21 873.95,2290.2 "/>
<rect x="885.79" y="2286.64" style="&st2;" width="3.87" height="17.57"/>
<polyline style="&st2;" points="893.55,2286.64 897.11,2286.64 905.35,2297.46 905.35,2286.64 909.16,2286.64 909.16,2304.21 
	905.88,2304.21 897.37,2293.04 897.37,2304.21 893.55,2304.21 893.55,2286.64 "/>
<rect x="776.18" y="2279.84" style="&st2;" width="0.68" height="31.16"/>
<polyline style="&st2;" points="715.73,2286.43 719.33,2286.43 727.62,2297.33 727.62,2286.43 731.46,2286.43 731.46,2304.14 
	728.15,2304.14 719.58,2292.88 719.58,2304.14 715.73,2304.14 715.73,2286.43 "/>
<polyline style="&st2;" points="740.21,2297.16 733.41,2286.43 737.96,2286.43 742.18,2293.54 746.48,2286.43 750.91,2286.43 
	744.1,2297.08 744.1,2304.14 740.21,2304.14 740.21,2297.16 "/>
<path style="&st2;" d="M752.57,2296.55v-10.12h3.9v10.02c0,2.88,1.44,4.38,3.82,4.38s3.82-1.45,3.82-4.25v-10.14H768v9.99
	c0,5.36-3.01,7.99-7.76,7.99S752.57,2301.76,752.57,2296.55"/>
<path style="&st2;" d="M707.62,2311h-31.16v-31.16h31.16V2311 M690.97,2307.36c0.03,0.21,0.51,0.33,0.61,0l1.09-8.63h-2.65
	L690.97,2307.36z M693.6,2298.11v-1.31h-4.5v1.31H693.6z M692.3,2296.16c5.7,0.2,6.1-4.99,6.12-6.93c0-0.12-0.05-0.12-0.08-0.05
	c-0.17,0.41-0.91,1.86-2.96,2.73c-1.84,0.79-2.94,2.58-3.13,4.18C692.24,2296.14,692.27,2296.16,692.3,2296.16z M691.67,2295.78
	c0.9-4.32,4.43-4.43,4.74-5.25c0.49-1.28-0.41-3.55-0.64-3.82c-0.02-0.03-0.05-0.01-0.07,0.02c-0.48,1.05-1.25,2.05-1.82,2.5
	c-0.8,0.64-3.86,2.91-2.29,6.56C691.62,2295.83,691.66,2295.82,691.67,2295.78z M691.05,2295.96c-1.91-4.08,1.91-6.71,2.53-7.29
	c0.09-0.08,0.06-0.16,0.07-0.25c0-1.29-0.73-3.36-0.97-3.66c-0.03-0.05-0.07-0.03-0.08,0.02c-0.33,1.27-2.07,3.15-2.41,3.57
	c-2.95,3.5-2.28,5.64,0.8,7.65C691.02,2296.03,691.07,2296,691.05,2295.96z M690.19,2296.1c-3.19-1.91-2.88-4.63-1.55-6.63
	c0.03-0.04,0.04-0.11,0.03-0.2c-0.06-0.47-0.57-1.68-0.79-2c-0.06-0.09-0.11-0.08-0.11-0.02c-0.02,0.54-0.64,1.91-1.58,3.48
	c-1.01,1.67-1.01,5.3,3.99,5.44C690.23,2296.17,690.24,2296.12,690.19,2296.1z"/>
<polygon style="&st3;" points="1307.9,1870.92 1290.02,1877.78 1260.45,1889.13 1259.11,1889.64 1242.57,1895.99 1224.23,1903.04 
	1211.66,1907.86 1175.45,1921.76 1128,1939.98 1112.19,1946.05 1064.74,1964.26 1063.41,1964.77 1053.39,1968.62 1046.87,1971.12 
	1045.53,1971.63 1040.82,1973.44 1015.96,1982.98 998.08,1989.85 957.16,2005.56 941.34,2011.63 893.89,2029.84 892.56,2030.35 
	876.02,2036.7 874.69,2037.21 845.11,2048.57 827.24,2055.43 833.79,2072.5 851.67,2065.64 881.24,2054.29 882.58,2053.78 
	899.12,2047.43 900.45,2046.92 947.9,2028.7 963.71,2022.63 1011.16,2004.42 1047.38,1990.52 1053.42,1988.2 1059.95,1985.69 
	1069.96,1981.85 1078.29,1978.65 1094.82,1972.3 1096.16,1971.79 1125.73,1960.44 1143.61,1953.58 1143.61,1953.57 1182,1938.84 
	1218.22,1924.93 1230.79,1920.11 1249.13,1913.07 1265.67,1906.72 1267,1906.21 1296.58,1894.86 1314.45,1888 "/>
<polygon style="&st0;" points="948.89,2016.78 951.03,2013.82 955.68,2025.95 959.64,2024.43 952.9,2006.87 951.07,2007.56 
	947.32,2012.7 "/>
<polygon style="&st0;" points="979.41,2016.84 983.73,2015.19 982.02,1995.69 977.66,1997.36 979.25,2010.41 979.06,2010.48 
	971.34,1999.8 968.44,2000.91 969.84,2014.02 969.66,2014.09 962.14,2003.33 957.73,2005.02 969.48,2020.66 973.81,2018.98 
	972.84,2008.06 979.44,2016.83 "/>
<path style="&st0;" d="M993.94,2003.08l-3.88,1.47l-0.03-5.53l0.16-0.06l3.69,4.14L993.94,2003.08z M989.83,1992.69l-3.58,1.38
	l-0.34,20.28l4.19-1.61l-0.05-3.95l6.7-2.58l2.61,2.98l4.25-1.64l-13.86-14.83L989.83,1992.69z"/>
<path style="&st0;" d="M1003.35,1987.13c-2.8,1.08-4.83,4.36-3.58,7.59c0.69,1.81,2.56,3.06,5.05,3.3l-0.02-0.03
	c2.45,0.23,4.5,0.02,4.98,1.28c0.62,1.62-1.02,2.22-1.89,2.55c-1.94,0.75-4.92-0.14-4.92-0.14l-0.06-0.16l-0.7,4.08l0.06,0.17
	c0,0,3.36,1.39,7.41-0.17c3.39-1.3,5.95-4.08,4.36-8.22c-0.88-2.28-3.67-3.22-5.92-3.28c-2.3-0.09-4.17-0.05-4.55-1.02
	c-0.36-0.94,0.16-1.73,1.52-2.25c1.78-0.69,3.95-0.16,3.95-0.16l0.41-3.77C1009.44,1986.91,1006.5,1985.91,1003.35,1987.13z"/>
<polygon style="&st0;" points="1019.23,1993.58 1024.82,1991.42 1027.5,1998.38 1031.45,1996.86 1024.71,1979.3 1020.76,1980.81 
	1023.4,1987.72 1017.81,1989.88 1015.17,1982.97 1011.21,1984.48 1017.95,2002.05 1021.9,2000.53 "/>
<rect x="1030.47" y="1976.95" transform="matrix(0.9337 -0.358 0.358 0.9337 -642.6606 501.2997)" style="&st0;" width="4.23" height="18.81"/>
<polygon style="&st0;" points="1040.3,1981.12 1040.36,1981.09 1051.39,1989.21 1055.33,1987.7 1048.59,1970.14 1044.62,1971.65 
	1048.75,1982.42 1048.67,1982.45 1037.64,1974.34 1033.73,1975.84 1040.47,1993.4 1044.42,1991.89 "/>
<path style="&st0;" d="M1069.73,1970.78l-8.02,3.06l1.25,3.27l4-1.53c0.78,2.02-0.67,3.86-2.56,4.59c-2.45,0.94-5.3-0.59-6.42-3.55
	c-1.17-3.02-0.08-6.08,2.38-7.02c1.53-0.59,3.08-0.52,4.72,0.72l1.53-3.95c-2.31-1.3-4.89-1.66-7.94-0.48
	c-4.88,1.88-6.88,7.39-4.95,12.38c1.89,4.95,7.28,7.64,11.94,5.84c3.41-1.3,6.3-4.69,5.56-9.44L1069.73,1970.78z"/>
<polygon style="&st0;" points="1067.82,1966.97 1071.93,1965.39 1077.26,1979.28 1081.21,1977.77 1075.89,1963.88 1080.03,1962.28 
	1078.62,1958.61 1066.42,1963.3 "/>
<path style="&st0;" d="M1086.23,1965.74c-1-2.58-0.5-5.61,2.55-6.78c3.08-1.17,5.41,0.77,6.41,3.34c1,2.59,0.64,5.59-2.52,6.8
	C1089.43,1970.35,1087.23,1968.33,1086.23,1965.74z M1081.96,1967.38c1.95,5.08,7.11,7.73,12.25,5.77
	c4.98-1.91,7.17-7.39,5.22-12.47c-1.94-5.06-7.39-7.59-12.2-5.75C1082.46,1956.75,1080.03,1962.32,1081.96,1967.38z"/>
<polygon style="&st0;" points="1104.4,1956.52 1104.46,1956.48 1115.49,1964.61 1119.43,1963.09 1112.7,1945.53 1108.73,1947.05 
	1112.85,1957.81 1112.77,1957.84 1101.74,1949.73 1097.84,1951.23 1104.57,1968.8 1108.52,1967.28 "/>
<path style="&st0;" d="M1127.94,1948.7l-1.73-4.48l1.11-0.44c1.56-0.59,3.19-0.75,3.88,1.05c0.69,1.77-0.62,2.75-2.19,3.34
	l-1.11,0.44L1127.94,1948.7z M1121,1942.46l6.7,17.45l3.95-1.52l-2.47-6.44l2.38-0.92c3.39-1.3,5.11-4.36,3.73-7.95
	c-1.38-3.58-4.61-4.47-8-3.17l-6.33,2.44L1121,1942.46z"/>
<polygon style="&st0;" points="1138.94,1935.46 1134.98,1936.97 1141.72,1954.54 1151.64,1950.72 1150.23,1947.05 1144.27,1949.35 
	"/>
<path style="&st0;" d="M1160.11,1939.29l-3.88,1.47l-0.03-5.53l0.16-0.06l3.69,4.14L1160.11,1939.29z M1156,1928.9l-3.58,1.38
	l-0.34,20.28l4.19-1.61l-0.05-3.95l6.7-2.58l2.61,2.98l4.25-1.64l-13.86-14.83L1156,1928.9z"/>
<path style="&st0;" d="M1177.52,1936.43c-3.98,1.53-6.77-0.47-7.66-2.8c-0.89-2.3-0.17-5.66,3.81-7.19
	c2.02-0.77,3.83-0.25,3.83-0.25l0.39-4.02c0,0-2.62-1.05-6.39,0.39c-4.94,1.89-7.83,7.77-5.91,12.75c1.91,4.95,7.98,7.34,12.89,5.47
	c3.77-1.44,5.08-3.81,5.08-3.81l-0.06-0.17l-2.98-2.73l0.06,0.17C1180.59,1934.25,1179.54,1935.67,1177.52,1936.43z"/>
<polygon style="&st0;" points="1188.79,1916.32 1178.87,1920.13 1185.6,1937.69 1195.52,1933.88 1194.12,1930.21 1188.15,1932.5 
	1186.88,1929.22 1192.6,1927.02 1191.18,1923.32 1185.46,1925.52 1184.23,1922.29 1190.2,1919.99 "/>
</svg>
